<?xml version="1.0" standalone="no"?>
<!DOCTYPE svg PUBLIC "-//W3C//DTD SVG 20010904//EN"
 "http://www.w3.org/TR/2001/REC-SVG-20010904/DTD/svg10.dtd">
<svg version="1.0" xmlns="http://www.w3.org/2000/svg"
 width="300.000000pt" height="438.000000pt" viewBox="0 0 300.000000 438.000000"
 preserveAspectRatio="xMidYMid meet">
<metadata>
Created by potrace 1.10, written by Peter Selinger 2001-2011
</metadata>
<g transform="translate(0.000000,438.000000) scale(0.100000,-0.100000)"
fill="#000000" stroke="none">
<path d="M1550 4357 c-72 -30 -154 -84 -209 -140 l-44 -44 -81 20 c-59 15
-117 20 -216 21 -123 1 -143 -1 -224 -28 -291 -96 -481 -374 -635 -930 -17
-61 -29 -111 -27 -113 4 -4 134 -55 466 -183 118 -46 219 -87 224 -91 14 -13
-47 -66 -90 -78 -21 -7 -138 -14 -259 -17 -121 -3 -226 -7 -233 -9 -6 -3 -12
-17 -12 -32 0 -96 475 -374 743 -433 46 -11 57 -17 52 -29 -4 -9 -22 -61 -41
-117 l-35 -101 -46 24 c-95 48 -189 18 -309 -99 -41 -39 -74 -74 -74 -78 0 -3
15 -4 33 -2 27 3 39 -2 62 -26 l29 -31 27 20 c38 26 110 59 133 59 17 0 18 -2
4 -17 -24 -27 -105 -195 -149 -306 -42 -107 -80 -241 -99 -348 -9 -53 -16 -69
-35 -77 -22 -10 -25 -6 -66 84 -24 51 -47 94 -50 94 -4 0 -24 -19 -46 -43
l-40 -43 -39 33 c-21 18 -41 33 -44 33 -3 0 -18 -20 -33 -44 -43 -68 -45 -69
-115 -44 -33 13 -63 20 -65 18 -16 -16 62 -340 103 -424 62 -131 126 -154 325
-120 50 8 136 21 193 29 l103 14 82 -53 c45 -29 122 -76 170 -105 82 -49 89
-56 84 -80 -18 -90 -43 -106 -183 -116 -56 -4 -115 -10 -133 -13 -31 -7 -30
-7 44 -47 41 -21 75 -41 75 -44 0 -2 -22 -30 -49 -61 l-49 -56 94 -24 c52 -13
94 -27 94 -30 0 -4 -11 -33 -25 -64 -14 -31 -25 -58 -25 -61 0 -5 29 -1 225
32 83 14 172 27 199 30 l48 6 91 138 c89 135 92 138 121 132 17 -3 118 -39
223 -79 283 -106 366 -125 568 -125 140 1 257 17 394 56 138 39 184 60 203 91
24 39 23 48 -11 81 -39 38 -94 122 -117 178 l-19 46 -49 -7 c-27 -3 -81 -17
-119 -30 -38 -13 -73 -21 -78 -18 -13 7 -27 68 -40 170 l-11 92 -38 5 c-20 2
-68 1 -106 -3 -38 -4 -72 -5 -76 -3 -13 7 -9 39 22 170 17 69 30 132 28 140
-2 7 -36 32 -77 56 -41 23 -79 50 -85 59 -13 22 5 60 90 194 35 56 64 105 64
110 0 5 -26 26 -58 47 -67 45 -96 80 -87 106 3 10 29 45 57 77 28 33 71 85 95
117 l43 59 -20 37 c-45 89 -80 173 -75 181 3 5 27 16 53 26 26 10 87 38 136
63 l88 45 -6 42 c-3 24 -22 93 -41 154 -20 61 -34 118 -31 126 3 7 64 43 136
79 71 36 130 67 130 70 0 3 -22 66 -50 140 -27 74 -50 143 -50 152 0 9 19 42
43 72 24 31 63 84 86 118 l42 63 -43 42 c-42 42 -71 58 -170 93 l-48 17 35 54
c73 114 82 130 95 166 11 31 11 39 0 53 -22 26 -48 33 -181 45 -202 18 -192
15 -184 58 3 20 16 67 28 105 17 54 18 70 8 80 -9 9 -55 11 -171 10 l-158 -3
-11 48 c-5 26 -16 73 -22 106 -16 74 -31 90 -79 82 -30 -5 -174 -49 -232 -71
-13 -5 -21 9 -42 76 -23 74 -48 119 -65 119 -3 0 -31 -11 -61 -23z m105 -94
c17 -50 33 -94 36 -98 4 -3 61 12 127 34 130 44 169 50 179 26 3 -9 15 -61 27
-116 l21 -101 162 1 c101 1 164 -2 168 -8 3 -6 -3 -41 -14 -78 -11 -38 -23
-87 -27 -109 l-6 -41 133 -13 c174 -15 239 -28 246 -47 7 -19 -23 -83 -88
-184 -57 -89 -57 -89 -124 -19 -72 75 -253 220 -380 305 -208 139 -475 264
-700 326 -44 12 -84 26 -88 30 -24 20 239 193 283 186 9 -1 26 -37 45 -94z
m-530 -77 c195 -31 315 -63 495 -133 205 -79 481 -235 640 -362 74 -59 243
-207 272 -237 72 -78 100 -310 58 -479 -39 -156 -87 -255 -291 -596 -64 -108
-135 -234 -158 -281 l-40 -85 -11 -219 c-33 -667 82 -1084 353 -1287 89 -67
195 -102 395 -132 142 -21 161 -33 127 -81 -25 -37 -240 -103 -403 -125 -121
-16 -355 -6 -452 20 -109 29 -122 33 -270 91 -154 60 -245 90 -270 90 -12 0
-49 -48 -108 -138 l-91 -138 -148 -23 c-81 -13 -177 -29 -213 -36 -36 -8 -66
-12 -68 -11 -1 2 9 29 23 61 14 31 23 60 20 63 -3 3 -44 15 -91 27 -75 19 -84
23 -73 36 8 9 31 34 53 56 l39 41 -64 33 -64 33 110 11 c118 12 144 21 167 57
15 24 42 108 36 112 -2 2 -12 9 -23 15 -14 9 -15 11 -3 7 21 -6 60 60 149 254
135 299 206 538 224 763 l7 87 -40 0 c-31 0 -52 -9 -100 -45 l-61 -44 -13 35
c-11 31 -16 34 -38 29 -14 -3 -35 -9 -47 -12 -56 -13 -6 116 57 148 44 23 125
39 195 39 61 0 65 6 65 101 0 112 -84 225 -227 305 -94 53 -160 76 -228 79
-168 8 -586 213 -737 361 -27 26 -48 53 -48 60 0 9 39 13 163 13 200 1 314 14
365 40 39 20 88 80 74 92 -6 5 -249 102 -604 240 -52 20 -88 40 -88 48 0 22
69 247 111 361 130 355 306 568 529 639 96 30 220 36 345 17z m1531 -776 c72
-25 105 -44 138 -79 36 -38 35 -41 -63 -170 -39 -52 -71 -102 -71 -112 0 -14
43 -137 95 -271 5 -13 -19 -29 -124 -83 -85 -43 -132 -73 -136 -86 -4 -11 4
-51 19 -92 27 -79 56 -186 56 -210 0 -15 -160 -100 -212 -112 -14 -4 -35 -15
-46 -26 -25 -23 -21 -42 35 -154 47 -94 52 -79 -64 -217 -40 -47 -77 -97 -82
-111 -16 -41 29 -96 124 -152 15 -9 10 -21 -45 -109 -84 -133 -105 -182 -91
-212 6 -13 43 -41 86 -64 41 -23 75 -48 75 -55 0 -7 -9 -49 -20 -94 -31 -122
-41 -183 -34 -204 5 -17 13 -18 114 -12 l107 7 18 -113 c9 -62 22 -123 28
-136 13 -30 41 -30 140 2 108 35 111 34 142 -27 14 -29 39 -70 55 -92 17 -22
28 -41 27 -43 -5 -5 -210 28 -272 43 -174 45 -321 174 -416 364 -108 218 -155
588 -130 1028 l11 193 53 107 c30 59 108 197 174 307 187 315 243 437 273 599
19 101 9 253 -23 344 -22 63 -23 73 -9 66 9 -4 40 -15 68 -24z m-1552 -1130
c148 -50 284 -156 327 -252 22 -52 30 -142 15 -167 -4 -6 -28 -11 -54 -11 -66
0 -165 -26 -207 -52 -40 -27 -66 -74 -73 -136 l-5 -45 37 7 c21 4 44 10 51 13
9 3 21 -8 32 -31 9 -20 19 -36 22 -36 3 0 33 20 66 45 37 28 70 45 87 45 25 0
28 -4 28 -32 0 -52 -28 -226 -50 -311 -49 -189 -172 -495 -266 -664 l-34 -62
-48 22 c-325 152 -464 325 -463 579 0 88 5 122 33 228 40 149 137 360 224 488
1 2 11 -1 22 -7 17 -9 24 -7 39 13 20 25 55 105 96 221 45 126 60 165 62 165
1 0 27 -9 59 -20z m-251 -214 c18 -8 40 -20 51 -28 18 -14 18 -16 -2 -59 -33
-71 -34 -72 -68 -54 -42 22 -64 19 -138 -18 -62 -32 -67 -33 -82 -16 -8 9 -27
20 -41 24 -26 6 -26 6 28 61 90 91 177 122 252 90z m-389 -923 c2 -2 22 3 44
11 l42 15 0 -32 c0 -90 64 -234 136 -308 25 -25 41 -48 38 -52 -4 -4 -26 -7
-48 -7 -23 0 -106 -11 -186 -25 -170 -29 -206 -30 -259 -9 -52 20 -86 67 -121
162 -30 82 -86 319 -78 328 3 3 25 -2 49 -10 64 -23 71 -21 107 35 l33 50 41
-34 40 -34 41 44 40 44 39 -88 c21 -48 40 -88 42 -90z"/>
<path d="M1462 3383 c-61 -52 -36 -193 34 -193 53 0 84 39 84 105 0 86 -65
133 -118 88z m53 -58 c0 -23 -5 -30 -19 -30 -28 0 -43 29 -26 50 21 25 45 14
45 -20z m19 -86 c-22 -24 -50 -24 -64 0 -14 27 -14 28 19 23 22 -3 33 1 43 17
l13 22 3 -21 c2 -12 -4 -30 -14 -41z"/>
<path d="M1743 1835 c-73 -51 -25 -212 53 -177 60 28 59 153 -3 181 -29 14
-24 14 -50 -4z m61 -27 c30 -43 11 -138 -28 -138 -45 0 -67 100 -31 140 23 26
40 25 59 -2z"/>
<path d="M1563 1525 c-46 -20 -73 -69 -73 -133 0 -45 4 -57 33 -88 26 -28 42
-37 78 -41 87 -10 149 45 149 131 0 63 -25 106 -73 129 -42 20 -71 21 -114 2z
m129 -32 c55 -49 58 -132 6 -183 -25 -25 -38 -30 -78 -30 -40 0 -53 5 -78 30
-61 60 -43 168 33 201 30 13 94 3 117 -18z"/>
<path d="M1661 1104 c-72 -60 -50 -179 38 -205 74 -22 141 35 141 121 0 34 -6
48 -34 76 -44 44 -99 47 -145 8z m133 -20 c36 -36 37 -104 2 -139 -51 -51
-117 -39 -149 28 -16 31 -17 43 -8 70 24 69 105 90 155 41z"/>
<path d="M806 1494 c-4 -9 -5 -19 -2 -21 2 -2 93 -42 202 -89 148 -63 200 -81
206 -72 11 18 10 38 -2 38 -5 0 -93 36 -196 80 -103 44 -191 80 -195 80 -4 0
-10 -7 -13 -16z m188 -73 c177 -75 210 -90 204 -97 -5 -4 -364 149 -375 160
-13 12 8 5 171 -63z"/>
<path d="M694 1228 c-3 -11 -4 -21 -2 -23 6 -6 401 -175 403 -173 2 2 5 12 8
23 6 18 -16 29 -198 106 -189 80 -205 85 -211 67z m219 -88 c97 -41 177 -78
177 -82 0 -4 -35 8 -77 26 -43 18 -129 54 -190 80 -62 27 -113 50 -113 53 0 8
20 0 203 -77z"/>
</g>
</svg>
