<?xml version="1.0" standalone="no"?>
<!DOCTYPE svg PUBLIC "-//W3C//DTD SVG 20010904//EN"
 "http://www.w3.org/TR/2001/REC-SVG-20010904/DTD/svg10.dtd">
<svg version="1.0" xmlns="http://www.w3.org/2000/svg"
 width="300.000000pt" height="148.000000pt" viewBox="0 0 300.000000 148.000000"
 preserveAspectRatio="xMidYMid meet">
<metadata>
Created by potrace 1.10, written by Peter Selinger 2001-2011
</metadata>
<g transform="translate(0.000000,148.000000) scale(0.100000,-0.100000)"
fill="#000000" stroke="none">
<path d="M895 1473 c-59 -5 -85 -12 -85 -24 0 -6 7 -6 18 -1 9 5 34 10 54 11
20 1 50 6 65 11 29 9 19 9 -52 3z"/>
<path d="M1052 1473 c-51 -3 -71 -7 -66 -15 5 -7 2 -9 -9 -5 -9 3 -36 0 -59
-9 -23 -8 -54 -13 -68 -12 -14 2 -26 -1 -27 -6 -3 -18 -34 -28 -48 -16 -9 7
-15 8 -20 0 -3 -5 -1 -10 5 -10 7 0 10 -6 7 -13 -7 -17 9 -44 20 -34 4 5 1 12
-6 16 -10 6 -10 10 -1 16 6 4 14 4 17 1 10 -9 44 14 37 26 -4 7 -3 8 5 4 6 -4
9 -11 7 -15 -3 -4 11 -13 30 -20 19 -7 32 -16 29 -21 -3 -5 3 -14 12 -20 16
-9 15 -10 -7 -8 -18 2 -24 -1 -23 -12 2 -10 -6 -16 -22 -16 -15 -1 -25 4 -25
11 0 7 -7 12 -15 11 -21 -3 -31 -16 -12 -16 9 0 18 -4 21 -8 3 -5 -8 -6 -25
-4 -16 2 -29 8 -29 13 0 5 -8 6 -17 3 -11 -4 -14 -2 -8 3 12 9 13 23 4 38 -11
19 -19 65 -12 66 5 0 16 2 26 4 9 2 15 -1 11 -6 -3 -5 -1 -9 5 -9 5 0 9 8 8
19 -1 13 -9 18 -29 19 -16 0 -26 -3 -23 -8 7 -11 -22 -33 -35 -25 -8 5 -8 11
1 21 9 11 8 14 -5 14 -9 0 -19 -6 -22 -14 -3 -8 -19 -19 -36 -25 -40 -14 -41
-14 -26 3 7 7 19 11 25 9 7 -3 13 0 13 7 0 8 -8 10 -22 6 -13 -3 -29 -6 -36
-6 -7 0 -10 -4 -7 -10 3 -5 -1 -10 -9 -10 -24 0 -66 -22 -60 -31 3 -5 -5 -9
-18 -9 -13 1 -54 1 -93 2 -38 1 -92 1 -120 1 -59 1 -159 -39 -151 -60 3 -8 -2
-13 -13 -13 -23 0 -43 -23 -36 -42 4 -10 -10 -19 -47 -33 -82 -29 -40 -29 48
1 43 14 94 30 113 34 43 11 83 -3 74 -26 -3 -9 0 -20 8 -25 11 -7 12 -12 2
-27 -7 -13 -8 -23 -2 -29 6 -6 3 -18 -8 -34 -35 -47 -43 -69 -37 -97 4 -15 10
-31 14 -37 4 -5 13 -31 20 -57 7 -26 19 -53 28 -60 13 -11 14 -8 8 22 l-8 35
22 -38 c11 -21 18 -42 15 -47 -7 -11 63 -60 86 -60 26 0 65 -23 97 -58 28 -29
61 -45 47 -22 -3 6 1 7 9 4 20 -8 20 -38 0 -69 -28 -43 -25 -76 14 -138 20
-32 47 -67 60 -78 23 -18 26 -28 33 -142 13 -201 37 -257 116 -273 39 -8 50 9
17 25 -21 9 -25 17 -21 37 2 13 1 27 -4 30 -5 2 -4 17 2 32 6 15 10 28 10 30
-4 12 2 20 19 25 11 3 20 12 20 21 0 9 5 16 10 16 9 0 41 60 54 103 3 9 17 22
31 27 27 10 45 45 45 85 0 14 9 39 20 57 11 18 20 36 20 40 0 14 -55 58 -72
58 -32 0 -68 23 -88 57 -10 18 -26 33 -35 33 -21 0 -76 41 -69 52 3 5 -7 8
-23 7 -15 -1 -42 2 -59 6 -25 6 -36 3 -52 -13 -16 -16 -27 -19 -49 -13 -24 7
-28 12 -25 39 3 28 0 32 -22 32 -24 0 -25 2 -14 25 17 39 -5 57 -33 26 -26
-28 -43 -23 -47 16 -5 47 24 74 85 80 47 4 52 3 55 -18 5 -36 28 -36 28 0 0
24 12 44 54 86 30 30 58 55 63 55 5 0 17 9 26 21 10 11 25 18 33 15 20 -8 64
14 64 32 0 12 -3 12 -16 1 -14 -12 -16 -11 -12 6 2 13 12 20 28 21 14 0 31 3
37 7 6 4 14 0 17 -9 5 -13 1 -15 -19 -12 -14 3 -25 1 -25 -3 0 -8 30 -12 48
-6 11 3 9 59 -4 82 -15 27 -23 75 -13 75 5 0 9 7 9 17 0 9 3 13 6 10 4 -3 15
-2 26 4 17 9 15 13 -23 50 -23 22 -40 41 -38 42 23 16 64 27 67 18 2 -6 19
-13 38 -17 27 -5 34 -10 29 -22 -17 -44 -17 -99 0 -115 23 -24 40 -21 62 9 19
25 54 43 136 67 20 6 37 15 37 19 0 4 9 17 20 28 12 12 18 25 15 30 -3 5 11
15 31 22 l37 13 -49 7 c-50 6 -114 7 -242 1z m223 -13 c17 -7 17 -9 3 -9 -10
-1 -18 -9 -18 -18 -1 -27 -34 -61 -66 -69 -15 -4 -39 -13 -53 -20 -14 -8 -30
-14 -36 -14 -5 0 -23 -14 -41 -31 -29 -28 -32 -29 -48 -14 -22 23 -20 50 6 75
12 11 17 20 11 20 -6 0 -13 9 -16 19 -3 12 -19 24 -38 30 -30 8 -31 9 -8 10
14 1 29 5 35 10 16 17 236 25 269 11z m-573 -58 c-7 -2 -9 -8 -6 -13 3 -6 12
-5 22 2 15 12 15 11 2 -3 -23 -25 -44 -26 -45 -3 0 23 14 37 29 28 6 -4 5 -8
-2 -11z m-37 -17 c0 -6 3 -14 7 -20 4 -6 -13 -9 -45 -9 -41 2 -51 5 -49 17 2
11 -4 14 -20 10 -18 -4 -20 -3 -8 6 19 13 115 10 115 -4z m85 -42 c0 -7 -27
-26 -60 -43 -33 -17 -60 -34 -60 -39 0 -12 29 -41 41 -41 5 0 14 -12 19 -26
l10 -27 33 34 c18 19 38 46 44 62 15 32 43 36 50 6 4 -16 11 -19 29 -15 19 5
24 2 24 -13 0 -10 7 -24 16 -32 14 -12 14 -14 -2 -26 -10 -7 -33 -13 -52 -13
-38 0 -72 -15 -72 -32 0 -9 3 -9 12 0 7 7 15 12 19 12 12 0 18 -40 7 -47 -7
-3 -8 -1 -4 5 9 15 7 15 -33 1 -17 -6 -31 -15 -31 -19 0 -5 -12 -15 -27 -22
-15 -7 -34 -26 -41 -41 -7 -15 -16 -27 -21 -27 -20 0 -51 -44 -52 -73 -1 -30
-1 -30 -8 -7 -6 21 -13 25 -51 27 -58 2 -88 -13 -105 -54 -28 -66 19 -108 66
-60 13 12 20 16 17 7 -20 -60 -20 -60 7 -60 22 0 25 -3 20 -20 -4 -12 -1 -29
6 -38 7 -9 -1 -2 -19 16 -17 17 -36 32 -42 32 -6 0 -18 7 -27 15 -8 8 -19 13
-24 9 -15 -9 -79 36 -79 56 0 9 -6 23 -13 29 -8 6 -20 29 -27 51 -14 43 -26
51 -33 23 -3 -12 -5 -8 -6 9 0 15 -5 30 -11 33 -17 11 -11 71 11 99 22 28 38
126 21 126 -6 0 -8 9 -5 20 10 37 -84 51 -134 19 -20 -12 -25 -11 -40 3 -15
16 -15 18 11 28 15 5 32 10 37 10 13 0 11 18 -3 23 -7 3 0 6 15 6 16 1 26 5
23 9 -12 19 89 33 157 22 60 -9 103 -8 177 6 17 3 21 2 11 -4 -7 -5 -9 -12 -5
-15 15 -9 134 -5 140 4 3 5 9 7 14 4 4 -3 13 2 20 11 11 12 15 12 21 2 5 -7 9
-19 9 -25z m30 -50 c0 -4 -10 -18 -22 -31 -13 -14 -17 -22 -10 -18 6 4 12 3
12 -3 0 -5 -9 -13 -20 -16 -11 -3 -20 -13 -20 -21 0 -8 -5 -12 -10 -9 -6 4 -8
10 -5 15 2 4 -9 13 -25 20 -37 15 -38 35 -2 54 27 15 102 22 102 9z m86 -10
c-2 -9 -8 -19 -15 -21 -14 -5 -11 20 4 30 14 10 14 10 11 -9z m-564 -365 c-7
-7 -12 -8 -12 -2 0 14 12 26 19 19 2 -3 -1 -11 -7 -17z m353 -187 c-3 -5 -1
-12 5 -16 5 -3 10 -1 10 5 0 19 78 5 103 -18 13 -12 36 -26 53 -32 21 -7 34
-21 43 -45 7 -20 17 -33 22 -29 5 3 16 1 23 -5 7 -6 22 -12 33 -14 11 -1 32
-11 46 -20 l27 -17 -20 -43 c-10 -23 -22 -59 -25 -80 -5 -30 -14 -43 -41 -59
-19 -11 -34 -28 -34 -38 0 -11 -10 -35 -21 -55 -17 -28 -26 -34 -43 -29 -17 5
-19 4 -8 -7 18 -20 15 -39 -8 -39 -11 0 -20 -7 -20 -16 0 -8 -4 -13 -8 -10 -7
4 -9 -58 -2 -74 1 -3 1 -15 1 -27 -1 -12 7 -28 21 -37 25 -18 13 -21 -25 -7
-32 12 -60 58 -59 95 0 17 -4 33 -9 37 -6 3 -12 48 -15 100 -6 133 -11 155
-43 181 -39 33 -85 117 -83 153 2 16 9 36 17 45 8 9 15 28 15 41 0 14 9 35 20
47 21 22 36 30 25 13z"/>
<path d="M2037 1434 c-4 -4 -21 -9 -39 -11 -18 -2 -36 -7 -41 -12 -11 -11 73
-2 88 9 6 4 28 5 50 1 34 -6 37 -8 22 -17 -14 -8 0 -11 58 -12 43 -2 86 -7 98
-13 12 -7 41 -9 71 -5 28 3 98 -1 155 -9 57 -8 107 -13 111 -10 15 9 120 -17
113 -29 -4 -6 -8 -18 -8 -26 0 -8 -10 -16 -23 -18 -29 -4 -41 -31 -19 -44 10
-5 17 -19 17 -30 0 -21 0 -21 -26 3 -19 18 -24 30 -20 51 3 15 1 30 -4 33 -6
3 -10 2 -10 -3 0 -5 -11 -7 -25 -4 -17 3 -25 0 -25 -10 0 -10 -11 -13 -40 -10
-36 4 -41 1 -50 -24 -12 -30 -1 -44 32 -44 23 0 50 -53 42 -84 -3 -13 -15 -27
-26 -29 -16 -5 -19 -12 -16 -31 6 -28 -9 -36 -19 -10 -3 8 -11 13 -19 10 -7
-3 -15 0 -17 7 -3 8 -10 7 -23 -6 -16 -15 -17 -19 -4 -27 8 -5 18 -6 24 -3 5
4 7 -1 3 -11 -4 -10 0 -25 12 -37 30 -32 22 -79 -18 -106 -19 -13 -40 -22 -47
-19 -7 3 -20 -1 -30 -9 -17 -12 -17 -15 10 -49 43 -58 11 -93 -41 -44 -20 19
-23 19 -23 4 0 -9 4 -15 9 -11 5 3 18 -6 29 -20 l19 -24 22 23 c27 29 26 38
-4 74 -21 25 -22 32 -11 41 11 9 15 8 20 -4 4 -11 2 -14 -6 -9 -7 4 -8 3 -4
-4 11 -18 26 -14 26 6 1 24 69 56 77 36 3 -8 9 -11 14 -8 13 7 11 44 -2 44 -6
0 -8 11 -4 28 4 22 0 33 -20 52 -19 18 -22 26 -14 37 9 10 8 13 0 13 -7 0 -9
5 -6 11 8 13 45 -18 45 -38 0 -7 9 -13 20 -13 24 0 28 38 5 46 -21 8 -19 17
10 48 14 15 25 36 25 47 0 32 -31 78 -54 81 -13 2 -21 10 -21 23 0 17 6 20 48
18 38 -1 47 2 43 13 -6 16 2 18 23 5 7 -5 11 -14 7 -20 -4 -6 9 -27 28 -48 29
-30 38 -35 45 -24 13 20 5 53 -16 69 -17 12 -9 17 23 13 7 -1 14 5 18 14 3 8
13 15 23 15 14 1 13 4 -7 15 -14 8 -20 14 -13 15 6 0 20 3 30 6 15 5 15 4 3
-5 -12 -9 -11 -11 8 -11 13 0 22 5 20 11 -5 16 -134 49 -183 48 -40 -2 -235
20 -246 27 -3 2 -21 -1 -39 -6 -23 -7 -38 -6 -47 2 -7 6 -36 10 -65 9 -31 0
-58 5 -67 13 -19 16 -93 30 -104 20z m513 -425 c0 -5 -4 -9 -10 -9 -5 0 -10 7
-10 16 0 8 5 12 10 9 6 -3 10 -10 10 -16z m-36 -125 c3 -8 2 -12 -4 -9 -6 3
-10 10 -10 16 0 14 7 11 14 -7z"/>
<path d="M1852 1383 c-4 -12 -19 -19 -42 -20 -19 -1 -57 -4 -85 -6 -28 -2 -68
2 -90 9 -71 24 -144 10 -163 -31 -6 -14 -18 -25 -26 -25 -7 0 -19 -7 -26 -15
-9 -11 -8 -20 6 -44 17 -29 17 -30 -6 -49 -23 -18 -26 -19 -36 -3 -6 9 -14 29
-18 44 -8 33 -24 28 -60 -22 -28 -38 -25 -57 6 -40 18 10 20 9 14 -6 -4 -13
-2 -16 9 -11 9 3 15 0 15 -10 0 -9 -5 -12 -12 -8 -10 6 -10 4 0 -7 22 -24 14
-39 -23 -39 -34 0 -35 -1 -35 -36 0 -23 6 -41 17 -49 15 -11 15 -13 -5 -24
-12 -6 -22 -20 -22 -31 0 -11 -8 -24 -19 -29 -33 -18 -53 -62 -56 -125 -4 -64
-4 -62 57 -125 24 -25 31 -27 70 -21 24 4 50 10 59 14 9 4 21 0 29 -9 7 -8 19
-15 26 -15 10 0 14 -10 12 -29 -1 -16 3 -35 9 -43 22 -26 32 -86 20 -118 -9
-23 -8 -37 2 -62 7 -18 17 -46 21 -63 5 -16 15 -48 23 -70 15 -38 17 -40 54
-37 41 4 88 40 99 76 4 12 14 26 22 32 9 7 13 19 9 33 -4 16 2 27 25 44 30 22
30 23 23 89 l-6 67 39 43 c54 60 72 89 72 116 0 21 -3 22 -37 17 -38 -6 -37
-6 14 20 48 24 103 75 103 95 0 5 -9 14 -20 20 -11 6 -20 7 -20 1 0 -5 7 -12
15 -15 27 -10 -11 -54 -70 -81 -62 -30 -65 -30 -65 -6 0 10 -8 29 -19 42 -10
13 -21 33 -25 44 -10 30 -44 71 -52 63 -10 -11 44 -127 80 -169 26 -32 33 -35
58 -28 19 5 28 4 28 -4 0 -18 -32 -68 -69 -107 -44 -47 -49 -63 -37 -122 10
-49 10 -50 -23 -75 -26 -20 -31 -31 -27 -50 5 -16 2 -25 -9 -29 -8 -4 -15 -14
-15 -23 0 -28 -62 -81 -95 -81 -26 0 -32 6 -47 43 -10 23 -18 50 -18 60 0 10
-7 32 -16 49 -14 26 -15 38 -5 64 14 38 10 69 -15 115 -10 19 -17 46 -15 61 2
22 -4 29 -33 43 -21 10 -43 14 -53 10 -10 -4 -35 -9 -57 -11 -34 -3 -43 1 -75
37 -36 38 -37 43 -33 97 4 57 22 96 54 120 10 7 18 19 18 26 0 19 37 49 53 43
8 -3 18 -2 23 3 5 4 30 11 57 14 43 7 47 5 47 -13 0 -14 13 -26 43 -40 38 -18
43 -18 54 -4 10 13 17 14 42 4 43 -18 83 -10 98 18 16 33 9 41 -32 41 -26 0
-39 6 -51 24 -17 27 -47 25 -36 -2 5 -15 4 -15 -11 -3 -9 7 -17 19 -17 27 0 7
-9 16 -20 19 -11 3 -25 16 -31 27 -8 14 -14 17 -22 9 -7 -7 -5 -16 8 -31 10
-11 13 -20 8 -20 -6 0 -17 9 -24 20 -20 28 -68 14 -94 -28 -33 -52 -88 -55
-83 -3 3 21 9 27 38 31 30 4 35 8 32 30 -1 19 5 30 28 43 16 10 30 22 30 28 0
5 7 9 15 9 9 0 15 9 15 23 0 17 2 19 9 7 6 -8 8 -17 5 -21 -2 -4 15 -6 38 -5
29 2 43 8 48 20 3 10 10 18 15 19 6 1 9 5 8 10 -2 4 6 7 17 7 11 0 20 5 20 11
0 7 -11 8 -30 4 -27 -6 -30 -4 -28 18 1 14 5 24 9 21 4 -2 10 0 14 6 3 5 -1
10 -10 10 -26 0 -53 -33 -53 -64 1 -39 -24 -53 -35 -20 -7 20 -12 23 -24 13
-12 -10 -16 -10 -23 1 -9 15 5 40 22 40 5 0 20 13 34 29 32 38 79 46 144 25
35 -11 47 -20 39 -25 -8 -5 -17 -3 -21 4 -4 6 -10 8 -14 4 -7 -7 14 -37 27
-37 4 0 14 6 21 13 14 14 56 29 97 33 13 2 30 5 38 8 7 3 24 1 38 -4 16 -6 25
-6 25 0 0 6 -4 10 -10 10 -5 0 -10 7 -10 15 0 8 4 15 10 15 10 0 35 -41 32
-52 -4 -14 15 -9 28 7 10 12 10 15 -3 15 -9 0 -19 5 -22 10 -4 6 -3 10 2 9 4
-1 19 -1 32 0 39 2 16 13 -34 17 -36 3 -47 1 -53 -13z m-306 -145 c-6 -10 -17
-18 -25 -18 -11 0 -10 5 3 24 11 17 12 26 4 28 -7 3 -8 10 -4 17 6 9 11 7 20
-11 9 -16 9 -28 2 -40z m-177 -72 c-9 -8 -10 -8 -5 2 4 7 1 12 -8 12 -10 0
-13 6 -10 15 4 8 1 21 -5 29 -6 7 -8 16 -5 19 4 4 15 -10 26 -30 15 -28 17
-38 7 -47z m-53 27 c-10 -10 -19 5 -10 18 6 11 8 11 12 0 2 -7 1 -15 -2 -18z
m155 -119 c13 -12 22 -13 38 -5 13 8 22 8 26 1 4 -6 3 -10 -2 -9 -19 3 -34 -2
-29 -10 3 -5 -24 -14 -62 -20 -37 -7 -75 -14 -84 -17 -11 -3 -5 9 17 33 37 42
70 51 96 27z m184 -64 c34 0 44 -13 27 -35 -8 -12 -46 -12 -86 0 -19 5 -36 4
-48 -4 -28 -18 -78 6 -78 37 0 19 3 21 18 13 14 -7 21 -5 31 11 l12 20 23 -21
c24 -23 49 -12 40 18 -3 9 2 4 11 -11 12 -22 23 -28 50 -28z m85 -174 c18 -32
27 -56 21 -52 -6 4 -25 35 -42 69 -38 76 -23 64 21 -17z"/>
<path d="M788 1349 c-14 -15 -15 -19 -4 -19 8 0 16 7 20 15 3 8 13 15 23 15
14 0 15 -2 5 -9 -11 -7 -10 -10 3 -15 24 -9 38 3 24 20 -16 19 -51 16 -71 -7z"/>
<path d="M1205 1331 c-3 -2 0 -10 6 -18 15 -17 53 -17 68 1 10 11 4 15 -29 18
-23 2 -43 2 -45 -1z m58 -18 c-7 -2 -21 -2 -30 0 -10 3 -4 5 12 5 17 0 24 -2
18 -5z"/>
<path d="M1680 1123 c-8 -13 -13 -14 -16 -5 -9 20 -30 14 -43 -14 -6 -15 -10
-29 -7 -31 9 -10 125 -12 131 -4 3 5 -9 21 -27 36 -18 15 -28 24 -21 21 6 -4
14 -2 18 4 3 5 -1 10 -9 10 -8 0 -20 -8 -26 -17z m-1 -19 c5 3 19 -2 32 -13
22 -18 22 -18 -32 -15 -30 1 -55 3 -57 3 -1 1 2 10 8 22 9 16 14 18 25 9 8 -7
18 -9 24 -6z"/>
<path d="M1797 1125 c-21 -15 -22 -29 -1 -46 8 -7 13 -21 11 -31 -6 -20 26
-44 43 -33 16 10 7 59 -15 77 -11 10 -15 17 -7 18 6 0 12 4 12 9 0 16 -25 19
-43 6z m19 -11 c-3 -9 3 -27 14 -41 22 -28 26 -53 10 -53 -6 0 -13 8 -16 18
-3 9 -12 29 -19 43 -11 20 -11 29 -3 37 16 16 21 15 14 -4z"/>
<path d="M1816 941 c-3 -5 4 -22 16 -37 12 -16 23 -31 25 -33 1 -2 13 3 25 11
16 10 32 12 53 6 17 -4 35 -6 42 -3 7 2 22 -7 35 -20 13 -14 29 -25 36 -25 6
0 12 -8 12 -17 0 -29 43 -123 56 -123 6 0 15 -8 18 -17 5 -12 9 -14 18 -5 9 9
9 17 0 34 -16 34 -9 62 26 103 38 43 59 42 81 -2 9 -18 21 -31 28 -28 14 5 23
-17 23 -60 0 -21 6 -35 16 -39 11 -4 14 -13 11 -27 -3 -12 0 -22 9 -26 16 -6
44 -54 44 -74 0 -7 -8 -5 -20 6 -11 10 -20 22 -20 28 0 5 -10 23 -22 40 -13
18 -16 28 -7 23 7 -4 5 -1 -5 8 -28 22 -39 9 -15 -17 12 -12 27 -36 34 -52 25
-58 82 -85 178 -85 26 0 47 -5 47 -10 0 -6 8 -5 20 2 31 20 24 25 -32 26 -29
0 -66 5 -82 11 -22 9 -32 8 -44 -1 -12 -10 -14 -10 -8 0 4 7 2 12 -5 12 -6 0
-9 8 -6 19 3 11 -1 22 -8 24 -6 3 -12 19 -13 36 0 18 -12 45 -26 62 -14 16
-30 48 -36 70 -8 29 -15 39 -26 35 -8 -3 -14 0 -14 8 0 23 -41 61 -61 58 -34
-6 -88 -73 -89 -109 0 -17 -4 -34 -9 -37 -9 -6 -46 79 -53 119 -3 14 -10 19
-23 17 -11 -2 -17 -1 -13 3 15 15 -40 45 -81 45 -23 0 -41 5 -41 11 0 6 -8 8
-18 5 -12 -4 -26 1 -37 14 -20 22 -31 25 -39 11z m39 -25 c14 -13 22 -26 18
-29 -4 -2 -18 9 -31 24 -29 35 -22 38 13 5z m515 -269 c0 -16 -18 3 -23 25 -6
22 -5 22 8 4 8 -11 15 -24 15 -29z m95 -125 c-3 -3 -11 0 -18 7 -9 10 -8 11 6
5 10 -3 15 -9 12 -12z"/>
<path d="M557 863 c-14 -13 -7 -25 7 -14 12 10 18 9 33 -6 16 -16 53 -20 53
-6 0 22 -76 44 -93 26z m68 -13 c3 -5 1 -10 -4 -10 -6 0 -11 5 -11 10 0 6 2
10 4 10 3 0 8 -4 11 -10z"/>
<path d="M653 826 c-10 -11 -9 -15 1 -19 21 -8 57 4 53 17 -5 16 -40 18 -54 2z"/>
<path d="M2520 810 c-8 -14 -8 -26 0 -41 10 -17 14 -18 28 -7 9 7 14 9 10 4
-4 -5 -3 -17 2 -27 7 -12 7 -20 0 -24 -5 -3 -10 -14 -10 -23 1 -15 2 -15 15 2
8 11 18 16 22 12 4 -4 1 -11 -7 -16 -8 -5 -11 -12 -8 -15 10 -11 28 4 27 23
-1 30 -35 77 -55 77 -18 0 -21 6 -11 23 2 4 2 1 0 -6 -1 -7 2 -10 7 -7 13 8
13 32 1 40 -6 3 -15 -4 -21 -15z"/>
<path d="M2475 670 c-16 -17 -35 -30 -43 -30 -11 0 -13 -8 -8 -32 7 -38 4 -34
42 -42 29 -6 31 -5 42 31 22 73 22 80 9 91 -11 9 -20 5 -42 -18z m38 -13 c-4
-7 -8 -16 -8 -22 -3 -36 -19 -66 -32 -61 -8 3 -18 6 -23 6 -4 0 -11 7 -14 16
-4 10 7 27 31 49 35 31 62 38 46 12z"/>
<path d="M2559 632 c-28 -3 -39 -23 -39 -71 0 -17 4 -22 16 -17 9 3 20 6 25 6
6 0 7 9 4 21 -4 13 0 27 11 40 20 23 18 26 -17 21z m-13 -49 c-11 -11 -17 4
-9 23 7 18 8 18 11 1 2 -10 1 -21 -2 -24z"/>
<path d="M2630 599 c0 -6 7 -9 14 -6 10 4 13 1 10 -8 -3 -8 6 -19 23 -27 15
-8 27 -20 26 -26 -3 -13 41 -27 56 -18 6 4 22 -1 36 -10 14 -9 29 -14 33 -10
3 4 1 11 -6 15 -8 4 -14 15 -16 25 -5 38 -115 89 -116 54 -1 -8 -6 -6 -14 5
-15 19 -46 23 -46 6z m45 -19 c3 -5 1 -10 -4 -10 -6 0 -11 5 -11 10 0 6 2 10
4 10 3 0 8 -4 11 -10z m81 -9 c17 -10 34 -29 37 -41 4 -17 3 -20 -5 -12 -6 6
-24 8 -39 5 -22 -4 -29 -2 -29 10 0 9 -7 20 -16 25 -18 10 -11 32 9 32 7 0 26
-9 43 -19z"/>
<path d="M2625 474 c-13 -17 -21 -21 -30 -14 -8 7 -20 1 -41 -21 -16 -16 -48
-39 -71 -49 -44 -20 -49 -30 -44 -92 1 -15 -3 -36 -9 -48 -17 -32 10 -35 85
-11 64 20 95 19 95 -1 0 -18 44 -58 65 -59 15 0 16 -2 5 -6 -32 -13 -39 -43
-10 -43 13 0 22 9 26 26 4 14 14 29 24 32 25 10 89 89 97 120 4 18 -2 41 -20
76 -14 28 -31 66 -37 83 -12 33 -30 36 -30 5 0 -9 -4 -23 -9 -31 -8 -12 -12
-13 -25 -2 -12 10 -14 17 -5 27 11 14 11 14 -34 28 -8 2 -22 -7 -32 -20z m47
-16 c-1 -8 7 -23 19 -34 20 -18 21 -18 35 1 8 10 14 28 15 39 1 14 5 10 13
-14 6 -19 22 -54 34 -78 20 -37 21 -48 12 -75 -16 -49 -72 -99 -115 -104 l-37
-4 4 40 c3 36 2 39 -13 25 -14 -13 -18 -13 -29 2 -10 11 -23 14 -49 9 -20 -4
-40 -10 -46 -14 -5 -5 -25 -11 -44 -15 -27 -5 -32 -3 -27 10 3 9 6 38 6 65 0
48 1 51 37 66 21 8 51 28 68 44 16 16 35 27 42 24 8 -2 23 5 34 16 22 22 46
21 41 -3z m18 -302 c0 -3 -4 -8 -10 -11 -5 -3 -10 -1 -10 4 0 6 5 11 10 11 6
0 10 -2 10 -4z"/>
<path d="M1808 451 c-22 -21 -28 -39 -30 -77 -3 -43 -1 -49 17 -49 15 0 24 15
42 65 32 91 21 113 -29 61z m15 -62 c-20 -61 -40 -64 -35 -5 3 25 11 46 25 57
29 23 31 12 10 -52z"/>
<path d="M2950 218 c0 -15 -5 -30 -10 -33 -6 -4 -7 -11 -4 -17 4 -7 2 -8 -4
-4 -16 10 -116 -54 -103 -67 6 -6 25 1 56 22 25 17 50 31 54 31 13 0 61 40 61
51 0 5 -4 8 -9 7 -5 -2 -17 6 -25 17 -15 19 -15 19 -16 -7z m24 -27 c3 -5 -1
-11 -9 -14 -9 -4 -12 -1 -8 9 6 16 10 17 17 5z m-54 -36 c0 -6 -77 -55 -87
-55 -5 0 12 14 37 30 50 32 50 32 50 25z"/>
</g>
</svg>
