<?xml version="1.0" encoding="utf-8" ?>
<svg baseProfile="tiny" height="100mm" version="1.2" width="100mm" xmlns="http://www.w3.org/2000/svg" xmlns:ev="http://www.w3.org/2001/xml-events" xmlns:xlink="http://www.w3.org/1999/xlink"><defs /><polyline fill="none" points="207,488 214,488" stroke="black" stroke-width="1" /><polyline fill="none" points="21,476 21,480 19,482 17,482 15,484 14,484 13,485 13,486 12,487 12,488 11,489 11,492 10,493 10,504 11,505 11,507 12,508 12,509 14,511 18,511 18,510 20,508 20,507 21,506 21,504 22,503 22,498 23,497 22,496 22,491 21,490 21,486 24,483 24,478 23,477 23,476" stroke="black" stroke-width="1" /><polyline fill="none" points="224,66 223,67 220,67 219,68 218,68 217,69 216,69 215,70 214,70 212,72 211,72 206,77 204,77 203,78 199,78 198,79 195,79 194,80 192,80 191,81 190,81 188,83 187,83 185,85 184,85 182,87 181,87 179,89 178,89 177,90 175,90 174,91 173,91 172,92 170,92 169,93 167,93 166,94 165,94 164,95 163,95 162,96 161,96 159,98 158,98 156,100 155,100 152,103 152,104 150,106 150,107 148,109 148,111 147,112 147,119 148,120 148,121 149,122 149,123 148,124 147,124 146,125 145,125 143,127 142,127 138,131 137,131 135,133 135,134 132,137 132,138 130,140 130,141 129,142 129,144 128,145 128,149 127,150 127,155 128,156 128,159 129,160 129,161 134,166 134,167 133,168 132,168 132,169 129,172 129,173 128,174 128,182 129,183 129,185 130,186 130,187 132,189 133,189 134,190 133,191 133,193 132,194 132,202 133,203 133,205 137,209 138,209 140,211 140,212 141,213 141,214 142,215 142,220 143,221 143,229 144,230 144,237 140,241 140,242 139,243 139,244 138,245 138,249 137,250 137,290 138,291 138,296 139,297 139,302 140,303 140,306 141,307 141,309 142,310 142,311 143,312 143,313 149,319 149,321 150,322 150,326 151,327 151,331 152,332 152,334 153,335 153,337 154,338 154,340 155,341 155,343 156,344 156,345 157,346 157,347 158,348 158,350 159,351 159,352 160,353 160,354 161,355 161,356 162,357 162,358 164,360 164,361 165,362 165,363 167,365 167,366 168,367 168,368 170,370 170,371 172,373 172,374 174,376 174,377 175,378 175,379 176,380 176,382 175,383 170,383 169,382 163,382 162,383 158,383 157,384 155,384 154,385 153,385 151,387 150,387 143,394 143,395 141,397 141,398 136,403 135,403 134,404 133,404 132,405 131,405 130,406 128,406 127,407 125,407 124,408 122,408 121,409 119,409 118,410 116,410 115,411 112,411 111,412 108,412 107,413 103,413 102,414 99,414 98,415 95,415 94,416 91,416 90,417 87,417 86,418 83,418 82,419 79,419 78,420 76,420 75,421 72,421 71,422 68,422 67,423 64,423 63,424 60,424 59,425 56,425 55,426 52,426 51,427 48,427 47,428 45,428 44,429 42,429 41,430 39,430 38,431 37,431 36,432 34,432 33,433 32,433 31,434 30,434 29,435 28,435 27,436 26,436 25,437 24,437 23,438 22,438 20,440 19,440 17,442 16,442 13,445 12,445 1,456 1,457 0,458 0,462 3,459 3,458 16,445 17,445 20,442 21,442 23,440 24,440 25,439 26,439 27,438 28,438 29,437 30,437 31,436 32,436 33,435 34,435 35,434 36,434 37,433 39,433 40,432 41,432 42,431 45,431 46,430 48,430 49,429 51,429 52,428 55,428 56,427 59,427 60,426 62,426 63,425 67,425 68,424 71,424 72,423 75,423 76,422 79,422 80,421 83,421 84,420 86,420 87,419 90,419 91,418 93,418 94,417 97,417 98,416 101,416 102,417 100,419 99,419 98,420 97,420 96,421 94,421 93,422 91,422 90,423 88,423 87,424 85,424 84,425 82,425 81,426 79,426 78,427 75,427 74,428 72,428 71,429 68,429 67,430 65,430 64,431 62,431 61,432 59,432 58,433 56,433 55,434 53,434 52,435 50,435 49,436 47,436 46,437 45,437 44,438 43,438 42,439 40,439 39,440 38,440 37,441 36,441 35,442 34,442 33,443 32,443 30,445 29,445 28,446 27,446 25,448 24,448 22,450 21,450 16,455 15,455 11,459 11,460 6,465 6,466 3,469 3,470 0,473 0,478 2,476 2,475 5,472 5,471 9,467 9,466 14,461 14,460 17,457 18,457 23,452 24,452 27,449 28,449 30,447 31,447 32,446 33,446 34,445 35,445 36,444 37,444 38,443 39,443 40,442 41,442 42,441 43,441 44,440 46,440 47,439 48,439 49,438 51,438 52,437 54,437 55,436 57,436 58,435 60,435 61,434 63,434 64,433 66,433 67,432 69,432 70,431 72,431 73,430 76,430 77,429 79,429 80,428 83,428 84,427 86,427 87,426 89,426 90,425 92,425 93,424 94,424 95,423 97,423 98,422 100,422 101,421 102,421 103,420 105,420 106,419 108,419 109,418 111,418 112,417 113,417 115,415 115,414 117,412 118,412 119,411 121,411 122,410 124,410 125,409 127,409 128,408 130,408 131,407 132,407 133,406 135,406 136,405 137,405 138,404 139,404 140,405 140,415 141,416 141,419 142,420 142,422 143,423 143,425 144,426 144,427 145,428 145,430 146,431 146,432 147,433 147,434 148,435 148,436 149,437 149,438 150,439 150,440 152,442 152,443 154,445 154,446 158,450 158,451 173,466 174,466 178,470 179,470 181,472 182,472 184,474 185,474 187,476 188,476 190,478 191,478 192,479 193,479 194,480 195,480 196,481 198,481 199,482 200,482 201,483 202,483 203,484 204,484 205,485 206,485 206,484 205,484 203,482 202,482 201,481 200,481 199,480 198,480 197,479 196,479 195,478 194,478 192,476 191,476 189,474 188,474 186,472 185,472 183,470 182,470 179,467 178,467 173,462 172,462 161,451 161,450 157,446 157,445 154,442 154,441 152,439 152,438 150,436 150,435 149,434 149,433 147,431 147,430 146,429 146,427 147,426 149,428 149,429 151,431 151,432 154,435 154,436 157,439 157,440 171,454 172,454 180,462 181,462 184,465 185,465 187,467 188,467 190,469 191,469 192,470 193,470 195,472 196,472 197,473 198,473 199,474 200,474 202,476 203,476 204,477 205,477 206,478 207,478 208,479 209,479 210,480 211,480 212,481 213,481 214,482 216,482 217,483 219,483 220,484 222,484 223,485 226,485 227,486 232,486 233,487 240,487 241,488 258,488 259,487 264,487 265,486 269,486 270,485 273,485 274,484 276,484 277,483 278,483 279,482 280,482 281,481 282,481 283,480 284,480 285,479 288,479 289,480 289,481 294,486 295,486 296,487 296,488 290,494 290,495 289,496 289,499 288,500 288,509 289,510 289,511 291,511 291,498 292,497 292,496 297,491 298,491 299,490 300,491 301,491 302,492 303,492 305,494 306,494 308,496 309,496 310,497 311,497 313,499 314,499 315,500 316,500 317,501 318,501 319,502 320,502 321,503 322,502 322,497 321,496 321,493 320,492 320,491 319,490 319,489 318,488 318,487 317,486 316,486 314,484 312,484 311,483 310,483 309,484 306,484 305,485 303,485 302,486 299,486 298,485 297,485 289,477 289,476 288,475 288,472 287,471 287,464 288,463 288,461 289,460 289,459 290,458 290,457 294,453 295,453 296,452 297,452 299,450 302,450 303,451 304,451 305,452 306,452 307,453 308,453 309,454 310,454 311,455 313,455 314,456 316,456 317,457 329,457 332,454 332,450 331,449 331,448 330,447 329,447 327,445 326,445 324,443 323,443 322,442 319,442 318,443 318,444 319,444 320,445 321,445 322,446 323,446 324,447 325,447 329,451 329,453 328,454 326,454 325,455 321,455 320,454 317,454 316,453 315,453 314,452 314,451 315,450 320,450 320,449 316,449 315,448 307,448 306,447 304,447 303,446 302,446 301,445 300,445 298,443 298,442 297,441 297,440 296,439 296,437 295,436 295,431 296,430 296,428 297,427 297,426 302,421 303,421 304,420 305,420 306,419 307,419 308,418 313,418 314,417 329,417 330,418 335,418 336,419 342,419 343,420 349,420 350,421 356,421 357,422 359,422 360,423 361,423 363,425 365,425 365,423 363,421 362,421 360,419 361,418 372,418 373,417 377,417 378,416 380,416 381,415 382,415 383,414 384,414 389,409 389,408 390,407 390,405 391,404 391,403 390,402 390,399 389,398 389,395 388,394 388,392 387,391 387,390 386,389 386,387 385,386 385,385 384,384 384,382 383,381 383,380 382,379 382,378 381,377 381,375 380,374 380,373 379,372 379,371 378,370 378,369 377,368 377,367 376,366 376,365 375,364 375,363 374,362 374,361 373,360 373,358 372,357 372,355 371,354 371,351 370,350 370,346 369,345 369,330 370,329 370,325 371,324 371,321 372,320 372,319 373,318 373,316 375,314 375,313 380,308 381,308 383,306 385,306 387,308 387,309 388,310 388,317 387,318 387,320 388,321 388,326 389,327 389,329 390,330 390,331 391,332 391,333 392,334 396,334 397,335 398,335 399,336 399,337 400,338 400,339 401,340 401,341 402,342 402,344 403,345 403,346 406,349 406,350 405,351 403,351 402,350 397,350 397,352 398,353 398,354 400,356 400,357 404,361 405,361 406,362 412,362 417,367 417,368 419,370 419,371 421,373 421,374 423,376 423,377 425,379 425,380 426,381 426,382 428,384 428,385 430,387 430,388 432,390 432,391 435,394 435,395 439,399 439,400 441,402 441,403 443,405 443,406 445,408 445,409 447,411 447,412 449,414 449,415 450,416 450,417 452,419 452,420 453,421 453,422 455,424 455,425 456,426 456,427 457,428 457,429 459,431 459,432 460,433 460,434 462,436 462,437 463,438 463,439 464,440 464,441 465,442 465,443 467,445 467,446 468,447 468,448 470,450 470,451 472,453 472,454 474,456 474,457 476,459 476,460 481,465 481,466 490,475 491,475 500,484 501,484 507,490 508,490 511,493 511,490 507,486 506,486 502,482 502,478 503,477 503,476 504,475 504,474 505,473 505,471 506,470 506,465 507,464 507,460 506,459 506,453 505,452 505,449 504,448 504,444 503,443 503,441 500,441 497,444 497,446 496,447 496,451 495,452 495,460 494,461 494,473 493,474 481,462 481,461 477,457 477,456 474,453 474,452 472,450 472,449 471,448 471,447 469,445 469,444 467,442 467,441 466,440 466,439 465,438 465,437 463,435 463,434 462,433 462,432 461,431 461,430 460,429 460,428 458,426 458,425 457,424 457,423 456,422 456,421 454,419 454,418 453,417 453,416 451,414 451,413 449,411 449,410 447,408 447,407 445,405 445,404 443,402 443,401 441,399 441,398 438,395 438,394 439,393 442,393 443,394 447,394 448,395 451,395 452,396 455,396 456,397 459,397 460,398 462,398 463,399 465,399 466,400 469,400 470,401 471,401 472,402 474,402 475,403 477,403 478,404 479,404 480,405 481,405 482,406 483,406 484,407 485,407 487,409 488,409 490,411 491,411 494,414 495,414 510,429 510,430 511,431 511,427 509,425 509,424 498,413 497,413 493,409 492,409 490,407 489,407 488,406 487,406 486,405 485,405 484,404 483,404 482,403 481,403 480,402 479,402 478,401 477,401 476,400 474,400 473,399 471,399 470,398 468,398 467,397 465,397 464,396 461,396 460,395 457,395 456,394 453,394 452,393 449,393 448,392 444,392 443,391 437,391 436,390 435,390 432,387 432,386 431,385 431,384 429,382 429,381 427,379 427,378 425,376 425,375 423,373 423,372 421,370 421,369 420,368 420,367 418,365 418,364 416,362 416,359 415,358 415,357 413,355 413,354 407,348 407,347 405,345 405,344 404,343 404,342 403,341 403,339 402,338 402,334 401,333 401,330 400,329 400,326 399,325 399,323 398,322 398,320 397,319 397,318 396,317 396,315 395,314 395,312 394,311 392,311 391,312 390,311 390,307 389,306 389,304 388,303 384,303 383,304 382,304 381,305 380,305 373,312 373,313 371,315 371,316 370,317 370,319 369,320 369,323 368,324 368,330 367,331 367,343 368,344 368,350 369,351 369,354 370,355 370,358 371,359 371,360 372,361 372,362 373,363 373,365 374,366 374,367 375,368 375,369 376,370 376,371 377,372 377,373 378,374 378,375 379,376 379,377 380,378 380,380 381,381 381,382 382,383 382,384 383,385 383,386 384,387 384,389 385,390 385,392 386,393 386,395 385,396 384,396 383,395 381,395 380,394 379,394 378,393 376,393 375,392 372,392 371,391 368,391 367,390 363,390 362,389 358,389 357,388 353,388 352,387 345,387 344,386 343,387 341,385 341,383 340,382 340,381 339,380 339,379 337,377 335,377 334,376 334,375 337,372 337,371 338,370 338,369 339,368 339,367 340,366 340,365 341,364 341,363 342,362 342,361 343,360 343,359 344,358 344,357 345,356 345,354 346,353 346,352 347,351 347,350 348,349 348,347 349,346 349,344 350,343 350,342 351,341 351,338 352,337 352,334 353,333 353,330 354,329 354,324 355,323 355,301 356,300 356,299 357,298 357,296 358,295 358,290 359,289 359,284 360,283 360,247 359,246 359,238 358,237 358,234 357,233 357,231 356,230 356,228 355,227 355,226 354,225 354,224 353,223 352,223 351,222 350,222 349,221 349,220 350,219 350,187 349,186 349,180 348,179 348,177 347,176 347,174 349,172 349,171 350,170 350,168 351,167 351,165 352,164 352,161 353,160 353,157 354,156 354,148 350,144 341,144 340,143 343,140 344,140 348,136 349,136 352,133 352,132 354,130 354,129 355,128 355,127 356,126 356,124 357,123 357,119 356,118 356,116 354,114 354,113 353,112 352,112 350,110 348,110 347,109 345,109 344,108 343,108 342,107 341,107 340,106 339,106 335,102 335,101 334,100 334,99 333,98 333,97 332,96 332,95 331,94 331,93 330,92 330,91 327,88 327,87 321,81 320,81 318,79 317,79 316,78 314,78 313,77 310,77 309,76 302,76 301,77 299,77 298,78 297,78 296,79 294,79 293,78 292,78 291,77 290,77 288,75 287,75 285,73 284,73 283,72 282,72 281,71 279,71 278,70 276,70 275,69 273,69 272,68 270,68 269,67 267,67 266,66 253,66 252,67 250,67 249,68 248,68 247,69 246,68 243,68 242,67 237,67 236,66" stroke="black" stroke-width="1" /></svg>