<svg version="1.1" baseProfile="full" xmlns="http://www.w3.org/2000/svg" xmlns:xlink="http://www.w3.org/1999/xlink" id="react-sketch-canvas" style="width: 100%; height: 100%;" viewBox="0 0 851 500" width="851" height="500"><g id="react-sketch-canvas__eraser-stroke-group" display="none"><rect id="react-sketch-canvas__mask-background" x="0" y="0" width="100%" height="100%" fill="white"></rect></g><defs><pattern id="react-sketch-canvas__background" x="0" y="0" width="100%" height="100%" patternUnits="userSpaceOnUse"><image x="0" y="0" width="100%" height="100%" xlink:href="https://www.citypng.com/public/uploads/preview/-516139508715odbbx9gze.png" preserveAspectRatio="none"></image></pattern></defs><g id="react-sketch-canvas__canvas-background-group"><rect id="react-sketch-canvas__canvas-background" x="0" y="0" width="100%" height="100%" fill="url(#react-sketch-canvas__background)"></rect></g><g id="react-sketch-canvas__stroke-group-0" mask="url(#react-sketch-canvas__eraser-mask-0)"><path id="react-sketch-canvas__0" d="M 388.25,187 C 388.25,187 388.25,187.4 388.25, 187 C 388.25,186.6 388.25,186 388.25, 185 C 388.25,184 388.25,183.4 388.25, 182 C 388.25,180.6 388.25,179.4 388.25, 178 C 388.25,176.6 388.25,176 388.25, 175 C 388.25,174 388.25,174 388.25, 173 C 388.25,172 388.25,170.8 388.25, 170 C 388.25,169.2 388.25,169.4 388.25, 169 C 388.25,168.6 388.25,168.4 388.25, 168 C 388.25,167.6 388.25,167.2 388.25, 167 C 388.25,166.8 388.25,167 388.25, 167 C 388.25,167 388.25,167 388.25, 167 C 388.25,167 388.25,167.4 388.25, 167 C 388.25,166.6 388.25,165.8 388.25, 165 C 388.25,164.2 388.25,163.8 388.25, 163 C 388.25,162.2 388.05,161.8 388.25, 161 C 388.45,160.2 389.05,159.6 389.25, 159 C 389.45,158.4 389.05,158.4 389.25, 158 C 389.45,157.6 390.05,157.2 390.25, 157 C 390.45,156.8 390.25,157.4 390.25, 157 C 390.25,156.6 389.85,155.8 390.25, 155 C 390.65,154.2 391.65,153.8 392.25, 153 C 392.85,152.2 393.05,151.8 393.25, 151 C 393.45,150.2 393.05,149.8 393.25, 149 C 393.45,148.2 393.85,147.6 394.25, 147 C 394.65,146.4 395.05,146.2 395.25, 146 C 395.45,145.8 395.05,146.4 395.25, 146 C 395.45,145.6 395.85,145 396.25, 144 C 396.65,143 396.65,142.2 397.25, 141 C 397.85,139.8 398.45,139.2 399.25, 138 C 400.05,136.8 400.45,136 401.25, 135 C 402.05,134 402.65,133.8 403.25, 133 C 403.85,132.2 403.85,131.8 404.25, 131 C 404.65,130.2 404.65,130 405.25, 129 C 405.85,128 406.25,127.2 407.25, 126 C 408.25,124.8 409.05,124.4 410.25, 123 C 411.45,121.6 412.25,120.6 413.25, 119 C 414.25,117.4 414.25,116.4 415.25, 115 C 416.25,113.6 417.25,113 418.25, 112 C 419.25,111 419.25,111 420.25, 110 C 421.25,109 422.25,108 423.25, 107 C 424.25,106 424.25,106 425.25, 105 C 426.25,104 427.25,103 428.25, 102 C 429.25,101 429.45,100.6 430.25, 100 C 431.05,99.4 431.45,99.6 432.25, 99 C 433.05,98.4 433.45,97.8 434.25, 97 C 435.05,96.2 435.65,95.6 436.25, 95 C 436.85,94.4 436.45,94.6 437.25, 94 C 438.05,93.4 439.25,92.8 440.25, 92 C 441.25,91.2 441.45,90.6 442.25, 90 C 443.05,89.4 443.25,89.6 444.25, 89 C 445.25,88.4 446.25,87.8 447.25, 87 C 448.25,86.2 448.25,85.6 449.25, 85 C 450.25,84.4 451.05,84.6 452.25, 84 C 453.45,83.4 454.25,82.6 455.25, 82 C 456.25,81.4 456.25,81.4 457.25, 81 C 458.25,80.6 459.05,80.4 460.25, 80 C 461.45,79.6 462.05,79.4 463.25, 79 C 464.45,78.6 465.05,78.4 466.25, 78 C 467.45,77.6 468.05,77.4 469.25, 77 C 470.45,76.6 471.25,76.4 472.25, 76 C 473.25,75.6 473.25,75.2 474.25, 75 C 475.25,74.8 476.25,75.2 477.25, 75 C 478.25,74.8 478.45,74.2 479.25, 74 C 480.05,73.8 480.25,74 481.25, 74 C 482.25,74 483.25,74 484.25, 74 C 485.25,74 485.25,74.2 486.25, 74 C 487.25,73.8 488.25,73.2 489.25, 73 C 490.25,72.8 490.45,73 491.25, 73 C 492.05,73 492.45,73 493.25, 73 C 494.05,73 494.25,73 495.25, 73 C 496.25,73 497.05,73 498.25, 73 C 499.45,73 500.25,73 501.25, 73 C 502.25,73 502.25,73 503.25, 73 C 504.25,73 505.25,73 506.25, 73 C 507.25,73 507.25,73 508.25, 73 C 509.25,73 510.25,73 511.25, 73 C 512.25,73 512.25,73 513.25, 73 C 514.25,73 515.05,73 516.25, 73 C 517.45,73 518.25,73 519.25, 73 C 520.25,73 520.25,73 521.25, 73 C 522.25,73 523.25,73 524.25, 73 C 525.25,73 525.45,73 526.25, 73 C 527.05,73 527.25,73 528.25, 73 C 529.25,73 530.25,72.8 531.25, 73 C 532.25,73.2 532.25,73.8 533.25, 74 C 534.25,74.2 535.05,73.8 536.25, 74 C 537.45,74.2 538.05,74.8 539.25, 75 C 540.45,75.2 541.25,74.8 542.25, 75 C 543.25,75.2 543.25,75.8 544.25, 76 C 545.25,76.2 546.25,75.8 547.25, 76 C 548.25,76.2 548.25,76.8 549.25, 77 C 550.25,77.2 551.05,77 552.25, 77 C 553.45,77 554.05,76.8 555.25, 77 C 556.45,77.2 557.25,77.6 558.25, 78 C 559.25,78.4 559.25,78.8 560.25, 79 C 561.25,79.2 562.05,78.8 563.25, 79 C 564.45,79.2 565.05,79.6 566.25, 80 C 567.45,80.4 568.25,80.6 569.25, 81 C 570.25,81.4 570.45,81.6 571.25, 82 C 572.05,82.4 572.65,82.6 573.25, 83 C 573.85,83.4 573.65,83.6 574.25, 84 C 574.85,84.4 575.65,84.8 576.25, 85 C 576.85,85.2 577.05,84.8 577.25, 85 C 577.45,85.2 577.05,85.8 577.25, 86 C 577.45,86.2 578.05,86 578.25, 86 C 578.45,86 578.25,85.8 578.25, 86 C 578.25,86.2 578.25,86.8 578.25, 87 C 578.25,87.2 578.25,87 578.25, 87 C 578.25,87 578.05,86.8 578.25, 87 C 578.45,87.2 578.65,87.6 579.25, 88 C 579.85,88.4 580.45,88.4 581.25, 89 C 582.05,89.6 582.25,90.4 583.25, 91 C 584.25,91.6 585.25,91.4 586.25, 92 C 587.25,92.6 587.65,93.4 588.25, 94 C 588.85,94.6 588.85,94.6 589.25, 95 C 589.65,95.4 589.85,95.6 590.25, 96 C 590.65,96.4 590.85,96.6 591.25, 97 C 591.65,97.4 591.85,97.8 592.25, 98 C 592.65,98.2 592.85,97.8 593.25, 98 C 593.65,98.2 593.85,98.8 594.25, 99 C 594.65,99.2 595.05,98.8 595.25, 99 C 595.45,99.2 595.25,99.8 595.25, 100 C 595.25,100.2 595.25,100 595.25, 100 C 595.25,100 595.25,100 595.25, 100 C 595.25,100 595.05,100 595.25, 100 C 595.45,100 596.05,100 596.25, 100 C 596.45,100 596.25,100 596.25, 100 C 596.25,100 596.25,100 596.25, 100 C 596.25,100 596.05,100 596.25, 100 C 596.45,100 596.65,100.2 597.25, 100 C 597.85,99.8 598.25,99.6 599.25, 99 C 600.25,98.4 600.85,97.8 602.25, 97 C 603.65,96.2 604.45,95.6 606.25, 95 C 608.05,94.4 609.45,94.6 611.25, 94 C 613.05,93.4 613.85,92.6 615.25, 92 C 616.65,91.4 617.05,91.4 618.25, 91 C 619.45,90.6 620.05,90.4 621.25, 90 C 622.45,89.6 622.85,89.4 624.25, 89 C 625.65,88.6 626.85,88.2 628.25, 88 C 629.65,87.8 630.25,88.2 631.25, 88 C 632.25,87.8 632.65,87.2 633.25, 87 C 633.85,86.8 633.85,87 634.25, 87 C 634.65,87 634.85,87 635.25, 87 C 635.65,87 635.65,87.2 636.25, 87 C 636.85,86.8 637.65,86.2 638.25, 86 C 638.85,85.8 638.65,86 639.25, 86 C 639.85,86 640.65,86 641.25, 86 C 641.85,86 641.85,86.2 642.25, 86 C 642.65,85.8 642.85,85.2 643.25, 85 C 643.65,84.8 643.65,85 644.25, 85 C 644.85,85 645.45,85.2 646.25, 85 C 647.05,84.8 647.45,84.2 648.25, 84 C 649.05,83.8 649.45,84.2 650.25, 84 C 651.05,83.8 651.65,83.2 652.25, 83 C 652.85,82.8 652.85,83 653.25, 83 C 653.65,83 653.85,83 654.25, 83 C 654.65,83 655.05,83 655.25, 83 C 655.45,83 655.05,83.2 655.25, 83 C 655.45,82.8 655.85,82.2 656.25, 82 C 656.65,81.8 657.05,82.2 657.25, 82 C 657.45,81.8 657.05,81.2 657.25, 81 C 657.45,80.8 658.05,81 658.25, 81 C 658.45,81 658.25,81 658.25, 81 C 658.25,81 658.25,81 658.25, 81 C 658.25,81 658.25,81 658.25, 81 C 658.25,81 658.25,81 658.25, 81 C 658.25,81 658.25,81 658.25, 81 C 658.25,81 658.25,80.8 658.25, 81 C 658.25,81.2 658.25,81.8 658.25, 82 C 658.25,82.2 658.25,82 658.25, 82 C 658.25,82 658.25,81.8 658.25, 82 C 658.25,82.2 658.45,82.8 658.25, 83 C 658.05,83.2 657.65,82.8 657.25, 83 C 656.85,83.2 656.65,83.6 656.25, 84 C 655.85,84.4 655.45,84.4 655.25, 85 C 655.05,85.6 655.45,86.6 655.25, 87 C 655.05,87.4 654.45,86.8 654.25, 87 C 654.05,87.2 654.45,87.6 654.25, 88 C 654.05,88.4 653.65,88.6 653.25, 89 C 652.85,89.4 652.85,89.4 652.25, 90 C 651.65,90.6 651.05,91.2 650.25, 92 C 649.45,92.8 649.05,93 648.25, 94 C 647.45,95 646.85,96 646.25, 97 C 645.65,98 645.65,98.4 645.25, 99 C 644.85,99.6 644.45,99.6 644.25, 100 C 644.05,100.4 644.25,100.8 644.25, 101 C 644.25,101.2 644.45,101 644.25, 101 C 644.05,101 643.45,101 643.25, 101 C 643.05,101 643.45,100.8 643.25, 101 C 643.05,101.2 642.65,101.2 642.25, 102 C 641.85,102.8 642.05,103.8 641.25, 105 C 640.45,106.2 639.25,106.8 638.25, 108 C 637.25,109.2 637.05,109.6 636.25, 111 C 635.45,112.4 634.85,113.8 634.25, 115 C 633.65,116.2 633.65,116.4 633.25, 117 C 632.85,117.6 632.45,117.6 632.25, 118 C 632.05,118.4 632.25,118.8 632.25, 119 C 632.25,119.2 632.25,119 632.25, 119 C 632.25,119 632.25,119 632.25, 119 C 632.25,119 632.45,119 632.25, 119 C 632.05,119 631.45,118.8 631.25, 119 C 631.05,119.2 631.45,119.8 631.25, 120 C 631.05,120.2 630.65,119.6 630.25, 120 C 629.85,120.4 629.65,121.4 629.25, 122 C 628.85,122.6 628.65,122.6 628.25, 123 C 627.85,123.4 627.45,123.8 627.25, 124 C 627.05,124.2 627.45,123.8 627.25, 124 C 627.05,124.2 626.45,124.8 626.25, 125 C 626.05,125.2 626.05,125 626.25, 125 C 626.45,125 627.05,125 627.25, 125 C 627.45,125 627.05,125 627.25, 125 C 627.45,125 628.05,125 628.25, 125 C 628.45,125 628.05,125 628.25, 125 C 628.45,125 628.85,125 629.25, 125 C 629.65,125 629.85,125 630.25, 125 C 630.65,125 630.85,125 631.25, 125 C 631.65,125 631.65,125 632.25, 125 C 632.85,125 633.65,125 634.25, 125 C 634.85,125 634.65,125 635.25, 125 C 635.85,125 636.25,125 637.25, 125 C 638.25,125 639.05,125 640.25, 125 C 641.45,125 642.05,125 643.25, 125 C 644.45,125 645.25,125 646.25, 125 C 647.25,125 647.45,125 648.25, 125 C 649.05,125 649.65,125 650.25, 125 C 650.85,125 651.05,125 651.25, 125 C 651.45,125 651.05,125 651.25, 125 C 651.45,125 651.85,125 652.25, 125 C 652.65,125 652.65,125.2 653.25, 125 C 653.85,124.8 654.45,124.2 655.25, 124 C 656.05,123.8 656.65,124 657.25, 124 C 657.85,124 657.85,124 658.25, 124 C 658.65,124 659.05,124 659.25, 124 C 659.45,124 659.05,124.2 659.25, 124 C 659.45,123.8 659.85,123.2 660.25, 123 C 660.65,122.8 660.85,123 661.25, 123 C 661.65,123 661.45,123 662.25, 123 C 663.05,123 664.45,123 665.25, 123 C 666.05,123 665.65,123 666.25, 123 C 666.85,123 667.85,123 668.25, 123 C 668.65,123 668.05,123 668.25, 123 C 668.45,123 668.85,123.2 669.25, 123 C 669.65,122.8 669.65,122.2 670.25, 122 C 670.85,121.8 671.45,122 672.25, 122 C 673.05,122 673.45,122.2 674.25, 122 C 675.05,121.8 675.65,121.2 676.25, 121 C 676.85,120.8 676.85,121 677.25, 121 C 677.65,121 678.05,121 678.25, 121 C 678.45,121 678.25,121 678.25, 121 C 678.25,121 678.45,121 678.25, 121 C 678.05,121 677.45,121 677.25, 121 C 677.05,121 677.25,121 677.25, 121 C 677.25,121 677.45,121 677.25, 121 C 677.05,121 676.45,121 676.25, 121 C 676.05,121 676.45,121 676.25, 121 C 676.05,121 675.65,121 675.25, 121 C 674.85,121 674.65,121 674.25, 121 C 673.85,121 673.65,120.8 673.25, 121 C 672.85,121.2 672.65,121.8 672.25, 122 C 671.85,122.2 671.65,122 671.25, 122 C 670.85,122 670.65,121.8 670.25, 122 C 669.85,122.2 669.45,122.8 669.25, 123 C 669.05,123.2 669.45,122.8 669.25, 123 C 669.05,123.2 668.85,123.6 668.25, 124 C 667.65,124.4 666.85,124.6 666.25, 125 C 665.65,125.4 665.65,125.6 665.25, 126 C 664.85,126.4 664.85,126.4 664.25, 127 C 663.65,127.6 663.05,128.2 662.25, 129 C 661.45,129.8 661.05,130 660.25, 131 C 659.45,132 659.05,133 658.25, 134 C 657.45,135 657.05,135.4 656.25, 136 C 655.45,136.6 654.85,136.6 654.25, 137 C 653.65,137.4 653.65,137.4 653.25, 138 C 652.85,138.6 653.05,139.2 652.25, 140 C 651.45,140.8 650.45,141 649.25, 142 C 648.05,143 647.65,143.8 646.25, 145 C 644.85,146.2 643.65,146.8 642.25, 148 C 640.85,149.2 640.25,150 639.25, 151 C 638.25,152 637.85,152.4 637.25, 153 C 636.65,153.6 636.45,153.8 636.25, 154 C 636.05,154.2 636.65,153.6 636.25, 154 C 635.85,154.4 635.05,155.2 634.25, 156 C 633.45,156.8 633.25,157 632.25, 158 C 631.25,159 630.25,160 629.25, 161 C 628.25,162 628.05,162.4 627.25, 163 C 626.45,163.6 625.65,163.6 625.25, 164 C 624.85,164.4 625.25,164.8 625.25, 165 C 625.25,165.2 625.45,164.8 625.25, 165 C 625.05,165.2 624.45,165.6 624.25, 166 C 624.05,166.4 624.65,166.4 624.25, 167 C 623.85,167.6 623.05,168.2 622.25, 169 C 621.45,169.8 620.85,170.2 620.25, 171 C 619.65,171.8 619.65,172.4 619.25, 173 C 618.85,173.6 618.45,173.6 618.25, 174 C 618.05,174.4 618.25,174.8 618.25, 175 C 618.25,175.2 618.25,175 618.25, 175 C 618.25,175 618.25,175 618.25, 175 C 618.25,175 618.25,174.8 618.25, 175 C 618.25,175.2 618.45,175.8 618.25, 176 C 618.05,176.2 617.45,175.8 617.25, 176 C 617.05,176.2 617.25,176.8 617.25, 177 C 617.25,177.2 617.25,176.6 617.25, 177 C 617.25,177.4 617.45,178 617.25, 179 C 617.05,180 616.65,180.6 616.25, 182 C 615.85,183.4 615.85,184.2 615.25, 186 C 614.65,187.8 613.65,189.4 613.25, 191 C 612.85,192.6 613.45,193 613.25, 194 C 613.05,195 612.45,195.4 612.25, 196 C 612.05,196.6 612.25,196.6 612.25, 197 C 612.25,197.4 612.25,197.8 612.25, 198 C 612.25,198.2 612.25,197.8 612.25, 198 C 612.25,198.2 612.25,198.8 612.25, 199 C 612.25,199.2 612.25,198.8 612.25, 199 C 612.25,199.2 612.25,199.4 612.25, 200 C 612.25,200.6 612.25,200.6 612.25, 202 C 612.25,203.4 612.25,205.2 612.25, 207 C 612.25,208.8 612.25,209.8 612.25, 211 C 612.25,212.2 612.25,212.2 612.25, 213 C 612.25,213.8 612.25,214.4 612.25, 215 C 612.25,215.6 612.25,215.6 612.25, 216 C 612.25,216.4 612.45,216.8 612.25, 217 C 612.05,217.2 611.45,217 611.25, 217 C 611.05,217 611.25,216.6 611.25, 217 C 611.25,217.4 611.45,218 611.25, 219 C 611.05,220 610.65,220.4 610.25, 222 C 609.85,223.6 609.45,225 609.25, 227 C 609.05,229 609.45,230.4 609.25, 232 C 609.05,233.6 608.45,234 608.25, 235 C 608.05,236 608.25,236.4 608.25, 237 C 608.25,237.6 608.25,237.8 608.25, 238 C 608.25,238.2 608.45,237.6 608.25, 238 C 608.05,238.4 607.65,239 607.25, 240 C 606.85,241 606.65,241.4 606.25, 243 C 605.85,244.6 605.65,245.8 605.25, 248 C 604.85,250.2 604.85,251.8 604.25, 254 C 603.65,256.2 602.85,257 602.25, 259 C 601.65,261 601.65,262.6 601.25, 264 C 600.85,265.4 600.45,265.4 600.25, 266 C 600.05,266.6 600.25,266.6 600.25, 267 C 600.25,267.4 600.45,267.4 600.25, 268 C 600.05,268.6 599.85,268.6 599.25, 270 C 598.65,271.4 598.05,272.8 597.25, 275 C 596.45,277.2 596.05,278.6 595.25, 281 C 594.45,283.4 594.05,285 593.25, 287 C 592.45,289 591.85,289.6 591.25, 291 C 590.65,292.4 590.65,293.2 590.25, 294 C 589.85,294.8 589.45,294.6 589.25, 295 C 589.05,295.4 589.45,295.4 589.25, 296 C 589.05,296.6 588.65,297.2 588.25, 298 C 587.85,298.8 587.65,299 587.25, 300 C 586.85,301 586.85,301.8 586.25, 303 C 585.65,304.2 584.85,304.8 584.25, 306 C 583.65,307.2 583.65,308.2 583.25, 309 C 582.85,309.8 582.45,309.6 582.25, 310 C 582.05,310.4 582.45,310.6 582.25, 311 C 582.05,311.4 581.65,311.4 581.25, 312 C 580.85,312.6 580.85,313 580.25, 314 C 579.65,315 578.85,316.2 578.25, 317 C 577.65,317.8 577.65,317.6 577.25, 318 C 576.85,318.4 576.45,318.6 576.25, 319 C 576.05,319.4 576.45,319.6 576.25, 320 C 576.05,320.4 575.45,320.8 575.25, 321 C 575.05,321.2 575.45,320.8 575.25, 321 C 575.05,321.2 574.85,321.2 574.25, 322 C 573.65,322.8 572.85,324 572.25, 325 C 571.65,326 571.85,326.4 571.25, 327 C 570.65,327.6 569.65,327.6 569.25, 328 C 568.85,328.4 569.25,328.8 569.25, 329 C 569.25,329.2 569.45,329 569.25, 329 C 569.05,329 568.45,328.8 568.25, 329 C 568.05,329.2 568.65,329.4 568.25, 330 C 567.85,330.6 567.05,331 566.25, 332 C 565.45,333 565.05,334 564.25, 335 C 563.45,336 562.85,336.4 562.25, 337 C 561.65,337.6 561.45,337.6 561.25, 338 C 561.05,338.4 561.45,338.8 561.25, 339 C 561.05,339.2 560.45,338.8 560.25, 339 C 560.05,339.2 560.65,339.4 560.25, 340 C 559.85,340.6 559.05,341.2 558.25, 342 C 557.45,342.8 556.85,343.2 556.25, 344 C 555.65,344.8 555.65,345.4 555.25, 346 C 554.85,346.6 554.65,346.6 554.25, 347 C 553.85,347.4 553.45,347.8 553.25, 348 C 553.05,348.2 553.25,347.8 553.25, 348 C 553.25,348.2 553.25,348.8 553.25, 349 C 553.25,349.2 553.25,349 553.25, 349 C 553.25,349 553.45,349 553.25, 349 C 553.05,349 552.65,348.8 552.25, 349 C 551.85,349.2 551.65,349.4 551.25, 350 C 550.85,350.6 550.65,351.2 550.25, 352 C 549.85,352.8 549.65,353.6 549.25, 354 C 548.85,354.4 548.45,353.8 548.25, 354 C 548.05,354.2 548.25,354.8 548.25, 355 C 548.25,355.2 548.25,355 548.25, 355" fill="none" stroke-linecap="round" stroke="#000000" stroke-width="4"></path><path id="react-sketch-canvas__1" d="M 536.25,359 C 536.25,359 536.25,358.8 536.25, 359 C 536.25,359.2 536.45,359.8 536.25, 360 C 536.05,360.2 535.85,359.8 535.25, 360 C 534.65,360.2 534.05,360.4 533.25, 361 C 532.45,361.6 532.45,361.8 531.25, 363 C 530.05,364.2 529.05,365.6 527.25, 367 C 525.45,368.4 523.85,369 522.25, 370 C 520.65,371 520.25,371.2 519.25, 372 C 518.25,372.8 518.05,373.4 517.25, 374 C 516.45,374.6 515.65,374.8 515.25, 375 C 514.85,375.2 515.25,375 515.25, 375 C 515.25,375 515.45,375 515.25, 375 C 515.05,375 515.05,374.6 514.25, 375 C 513.45,375.4 512.85,376 511.25, 377 C 509.65,378 508.05,378.8 506.25, 380 C 504.45,381.2 503.85,382 502.25, 383 C 500.65,384 499.45,384.4 498.25, 385 C 497.05,385.6 496.85,385.6 496.25, 386 C 495.65,386.4 495.45,386.8 495.25, 387 C 495.05,387.2 495.25,387 495.25, 387 C 495.25,387 495.45,387 495.25, 387 C 495.05,387 494.45,386.8 494.25, 387 C 494.05,387.2 495.05,387.4 494.25, 388 C 493.45,388.6 491.85,389 490.25, 390 C 488.65,391 487.65,392 486.25, 393 C 484.85,394 484.25,394.4 483.25, 395 C 482.25,395.6 481.85,395.6 481.25, 396 C 480.65,396.4 480.65,396.6 480.25, 397 C 479.85,397.4 479.45,397.8 479.25, 398 C 479.05,398.2 479.25,398 479.25, 398 C 479.25,398 479.65,397.6 479.25, 398 C 478.85,398.4 478.45,399 477.25, 400 C 476.05,401 474.85,402 473.25, 403 C 471.65,404 470.65,404 469.25, 405 C 467.85,406 467.25,407.2 466.25, 408 C 465.25,408.8 464.85,408.6 464.25, 409 C 463.65,409.4 463.45,409.8 463.25, 410 C 463.05,410.2 463.25,410 463.25, 410 C 463.25,410 463.25,409.8 463.25, 410 C 463.25,410.2 463.45,410.8 463.25, 411 C 463.05,411.2 462.65,411 462.25, 411 C 461.85,411 462.25,410.4 461.25, 411 C 460.25,411.6 459.05,412.8 457.25, 414 C 455.45,415.2 453.85,416 452.25, 417 C 450.65,418 450.65,418.2 449.25, 419 C 447.85,419.8 447.05,420.2 445.25, 421 C 443.45,421.8 441.85,422.2 440.25, 423 C 438.65,423.8 438.45,424.2 437.25, 425 C 436.05,425.8 435.25,426.4 434.25, 427 C 433.25,427.6 432.85,427.8 432.25, 428 C 431.65,428.2 431.65,427.8 431.25, 428 C 430.85,428.2 431.05,428.6 430.25, 429 C 429.45,429.4 428.65,429.4 427.25, 430 C 425.85,430.6 424.85,431.2 423.25, 432 C 421.65,432.8 421.45,432.8 419.25, 434 C 417.05,435.2 415.25,436.4 412.25, 438 C 409.25,439.6 406.25,440.8 404.25, 442 C 402.25,443.2 403.25,443.4 402.25, 444 C 401.25,444.6 400.05,444.8 399.25, 445 C 398.45,445.2 398.45,444.8 398.25, 445 C 398.05,445.2 398.45,445.8 398.25, 446 C 398.05,446.2 397.45,446 397.25, 446 C 397.05,446 397.45,446 397.25, 446 C 397.05,446 397.05,445.8 396.25, 446 C 395.45,446.2 394.45,446.6 393.25, 447 C 392.05,447.4 391.65,447.6 390.25, 448 C 388.85,448.4 388.05,448.4 386.25, 449 C 384.45,449.6 383.05,450.4 381.25, 451 C 379.45,451.6 378.65,451.6 377.25, 452 C 375.85,452.4 375.25,452.8 374.25, 453 C 373.25,453.2 372.85,453 372.25, 453 C 371.65,453 371.45,453 371.25, 453 C 371.05,453 371.65,453 371.25, 453 C 370.85,453 370.65,452.8 369.25, 453 C 367.85,453.2 366.25,453.8 364.25, 454 C 362.25,454.2 361.45,453.8 359.25, 454 C 357.05,454.2 355.65,454.6 353.25, 455 C 350.85,455.4 349.45,455.8 347.25, 456 C 345.05,456.2 344.25,455.8 342.25, 456 C 340.25,456.2 339.25,456.8 337.25, 457 C 335.25,457.2 334.45,457 332.25, 457 C 330.05,457 328.25,457 326.25, 457 C 324.25,457 324.05,457 322.25, 457 C 320.45,457 319.05,457 317.25, 457 C 315.45,457 315.05,457 313.25, 457 C 311.45,457 310.25,457 308.25, 457 C 306.25,457 305.25,457 303.25, 457 C 301.25,457 300.05,457 298.25, 457 C 296.45,457 296.05,457 294.25, 457 C 292.45,457 291.05,457 289.25, 457 C 287.45,457 286.65,457 285.25, 457 C 283.85,457 283.65,457 282.25, 457 C 280.85,457 279.85,457.2 278.25, 457 C 276.65,456.8 276.05,456.2 274.25, 456 C 272.45,455.8 271.25,456.2 269.25, 456 C 267.25,455.8 266.25,455.4 264.25, 455 C 262.25,454.6 261.05,454.4 259.25, 454 C 257.45,453.6 257.05,453.2 255.25, 453 C 253.45,452.8 251.85,453.2 250.25, 453 C 248.65,452.8 248.25,452.4 247.25, 452 C 246.25,451.6 245.85,451.2 245.25, 451 C 244.65,450.8 244.65,451 244.25, 451 C 243.85,451 243.45,451 243.25, 451 C 243.05,451 243.45,451 243.25, 451 C 243.05,451 242.45,451 242.25, 451 C 242.05,451 242.25,451 242.25, 451 C 242.25,451 242.45,451 242.25, 451 C 242.05,451 241.65,451 241.25, 451 C 240.85,451 240.45,451 240.25, 451 C 240.05,451 240.45,451.2 240.25, 451 C 240.05,450.8 239.65,450.2 239.25, 450 C 238.85,449.8 238.45,450.2 238.25, 450 C 238.05,449.8 238.25,449.2 238.25, 449 C 238.25,448.8 238.45,449.2 238.25, 449 C 238.05,448.8 237.45,448.2 237.25, 448 C 237.05,447.8 237.45,448 237.25, 448 C 237.05,448 236.45,448.2 236.25, 448 C 236.05,447.8 236.45,447.2 236.25, 447 C 236.05,446.8 235.65,447.2 235.25, 447 C 234.85,446.8 234.45,446.2 234.25, 446 C 234.05,445.8 234.85,446.4 234.25, 446 C 233.65,445.6 233.45,444.8 231.25, 444 C 229.05,443.2 226.65,443.2 223.25, 442 C 219.85,440.8 218.05,439.4 214.25, 438 C 210.45,436.6 208.05,436.2 204.25, 435 C 200.45,433.8 198.65,433.2 195.25, 432 C 191.85,430.8 190.45,430 187.25, 429 C 184.05,428 182.25,427.6 179.25, 427 C 176.25,426.4 174.85,426.6 172.25, 426 C 169.65,425.4 168.45,424.8 166.25, 424 C 164.05,423.2 163.25,423 161.25, 422 C 159.25,421 157.85,420 156.25, 419 C 154.65,418 154.45,417.6 153.25, 417 C 152.05,416.4 151.05,416.4 150.25, 416 C 149.45,415.6 149.45,415.2 149.25, 415 C 149.05,414.8 149.45,415 149.25, 415 C 149.05,415 148.45,415 148.25, 415 C 148.05,415 148.25,415.2 148.25, 415 C 148.25,414.8 148.45,414.2 148.25, 414 C 148.05,413.8 147.85,414.2 147.25, 414 C 146.65,413.8 146.05,413.4 145.25, 413 C 144.45,412.6 144.05,412.4 143.25, 412 C 142.45,411.6 142.05,411.6 141.25, 411 C 140.45,410.4 140.05,409.6 139.25, 409 C 138.45,408.4 137.85,408.4 137.25, 408 C 136.65,407.6 136.65,407.6 136.25, 407 C 135.85,406.4 135.85,405.6 135.25, 405 C 134.65,404.4 133.85,404.4 133.25, 404 C 132.65,403.6 132.45,403.4 132.25, 403 C 132.05,402.6 132.25,402.4 132.25, 402 C 132.25,401.6 132.25,401.2 132.25, 401 C 132.25,400.8 132.25,401.2 132.25, 401 C 132.25,400.8 132.25,400.2 132.25, 400 C 132.25,399.8 132.25,400.2 132.25, 400 C 132.25,399.8 132.25,399.2 132.25, 399 C 132.25,398.8 132.25,399.2 132.25, 399 C 132.25,398.8 132.25,398.2 132.25, 398 C 132.25,397.8 132.25,398.2 132.25, 398 C 132.25,397.8 132.25,397.2 132.25, 397 C 132.25,396.8 132.25,397 132.25, 397 C 132.25,397 132.25,397 132.25, 397 C 132.25,397 132.25,397 132.25, 397 C 132.25,397 132.05,397 132.25, 397 C 132.45,397 133.05,397 133.25, 397 C 133.45,397 133.05,397 133.25, 397 C 133.45,397 134.05,397 134.25, 397 C 134.45,397 134.05,397 134.25, 397 C 134.45,397 134.85,397 135.25, 397 C 135.65,397 135.65,397 136.25, 397 C 136.85,397 137.45,397 138.25, 397 C 139.05,397 139.05,397.2 140.25, 397 C 141.45,396.8 142.25,396.6 144.25, 396 C 146.25,395.4 147.85,394.6 150.25, 394 C 152.65,393.4 153.65,393.6 156.25, 393 C 158.85,392.4 160.45,391.8 163.25, 391 C 166.05,390.2 167.45,389.6 170.25, 389 C 173.05,388.4 174.25,388.6 177.25, 388 C 180.25,387.4 182.25,386.6 185.25, 386 C 188.25,385.4 189.45,385.6 192.25, 385 C 195.05,384.4 196.65,383.6 199.25, 383 C 201.85,382.4 202.85,382.6 205.25, 382 C 207.65,381.4 209.05,380.6 211.25, 380 C 213.45,379.4 214.05,379.6 216.25, 379 C 218.45,378.4 219.85,377.8 222.25, 377 C 224.65,376.2 226.05,375.8 228.25, 375 C 230.45,374.2 231.25,373.8 233.25, 373 C 235.25,372.2 236.05,371.8 238.25, 371 C 240.45,370.2 241.85,369.8 244.25, 369 C 246.65,368.2 248.05,367.8 250.25, 367 C 252.45,366.2 253.45,365.8 255.25, 365 C 257.05,364.2 257.45,363.8 259.25, 363 C 261.05,362.2 262.45,361.8 264.25, 361 C 266.05,360.2 266.25,359.8 268.25, 359 C 270.25,358.2 272.05,357.6 274.25, 357 C 276.45,356.4 278.05,356.4 279.25, 356 C 280.45,355.6 279.85,355.2 280.25, 355 C 280.65,354.8 280.85,355 281.25, 355 C 281.65,355 281.85,355 282.25, 355 C 282.65,355 283.05,355 283.25, 355 C 283.45,355 283.25,355 283.25, 355 C 283.25,355 283.05,355 283.25, 355 C 283.45,355 283.85,355 284.25, 355 C 284.65,355 285.05,355 285.25, 355 C 285.45,355 285.45,355 285.25, 355 C 285.05,355 284.85,355 284.25, 355 C 283.65,355 283.05,355 282.25, 355 C 281.45,355 281.45,355 280.25, 355 C 279.05,355 277.65,355 276.25, 355 C 274.85,355 274.85,355 273.25, 355 C 271.65,355 270.25,355.2 268.25, 355 C 266.25,354.8 265.45,354.6 263.25, 354 C 261.05,353.4 259.65,352.6 257.25, 352 C 254.85,351.4 253.85,351.6 251.25, 351 C 248.65,350.4 247.25,350 244.25, 349 C 241.25,348 239.05,347 236.25, 346 C 233.45,345 232.85,345 230.25, 344 C 227.65,343 225.85,342.2 223.25, 341 C 220.65,339.8 219.25,339.2 217.25, 338 C 215.25,336.8 215.05,336.2 213.25, 335 C 211.45,333.8 210.05,333.4 208.25, 332 C 206.45,330.6 205.65,329.4 204.25, 328 C 202.85,326.6 202.25,326.2 201.25, 325 C 200.25,323.8 200.25,323.4 199.25, 322 C 198.25,320.6 197.25,319.6 196.25, 318 C 195.25,316.4 195.05,315.6 194.25, 314 C 193.45,312.4 193.05,311.4 192.25, 310 C 191.45,308.6 191.05,308.2 190.25, 307 C 189.45,305.8 188.85,305 188.25, 304 C 187.65,303 187.85,303 187.25, 302 C 186.65,301 185.85,300 185.25, 299 C 184.65,298 184.65,297.6 184.25, 297 C 183.85,296.4 183.85,296.6 183.25, 296 C 182.65,295.4 181.65,294.6 181.25, 294 C 180.85,293.4 181.25,293.2 181.25, 293 C 181.25,292.8 181.25,293 181.25, 293 C 181.25,293 181.25,293 181.25, 293 C 181.25,293 181.25,293.2 181.25, 293 C 181.25,292.8 181.25,292.2 181.25, 292 C 181.25,291.8 181.25,292 181.25, 292 C 181.25,292 181.05,292 181.25, 292 C 181.45,292 182.05,292 182.25, 292 C 182.45,292 182.05,292 182.25, 292 C 182.45,292 183.05,292 183.25, 292 C 183.45,292 182.85,291.8 183.25, 292 C 183.65,292.2 183.65,292.6 185.25, 293 C 186.85,293.4 189.25,293.8 191.25, 294 C 193.25,294.2 191.25,293.8 195.25, 294 C 199.25,294.2 207.25,294.8 211.25, 295 C 215.25,295.2 213.65,295 215.25, 295 C 216.85,295 217.85,295 219.25, 295 C 220.65,295 221.05,295 222.25, 295 C 223.45,295 224.05,295 225.25, 295 C 226.45,295 227.25,295 228.25, 295 C 229.25,295 229.65,295 230.25, 295 C 230.85,295 230.85,295 231.25, 295 C 231.65,295 232.05,295 232.25, 295 C 232.45,295 232.25,295 232.25, 295 C 232.25,295 232.25,295 232.25, 295 C 232.25,295 232.25,295 232.25, 295 C 232.25,295 232.25,295 232.25, 295 C 232.25,295 232.45,295 232.25, 295 C 232.05,295 231.45,295 231.25, 295 C 231.05,295 231.45,295 231.25, 295 C 231.05,295 230.65,295 230.25, 295 C 229.85,295 229.65,295 229.25, 295 C 228.85,295 229.05,295.6 228.25, 295 C 227.45,294.4 226.25,292.8 225.25, 292 C 224.25,291.2 224.05,291.4 223.25, 291 C 222.45,290.6 221.85,290.4 221.25, 290 C 220.65,289.6 220.65,289.4 220.25, 289 C 219.85,288.6 219.85,288.6 219.25, 288 C 218.65,287.4 217.85,286.6 217.25, 286 C 216.65,285.4 216.85,285.6 216.25, 285 C 215.65,284.4 215.25,284 214.25, 283 C 213.25,282 212.85,281.6 211.25, 280 C 209.65,278.4 209.45,278.2 206.25, 275 C 203.05,271.8 198.45,267.4 195.25, 264 C 192.05,260.6 192.45,260.2 190.25, 258 C 188.05,255.8 186.45,254.6 184.25, 253 C 182.05,251.4 182.05,251.8 179.25, 250 C 176.45,248.2 172.85,245.6 170.25, 244 C 167.65,242.4 167.65,242.6 166.25, 242 C 164.85,241.4 164.65,241.4 163.25, 241 C 161.85,240.6 160.65,240.4 159.25, 240 C 157.85,239.6 157.85,239.4 156.25, 239 C 154.65,238.6 152.65,238.2 151.25, 238 C 149.85,237.8 149.85,238.2 149.25, 238 C 148.65,237.8 148.65,237.2 148.25, 237 C 147.85,236.8 147.45,237 147.25, 237 C 147.05,237 147.25,237 147.25, 237" fill="none" stroke-linecap="round" stroke="#000000" stroke-width="4"></path><path id="react-sketch-canvas__2" d="M 150.25,229 C 150.25,228.8 150.25,228.6 150.25, 228 C 150.25,227.4 150.25,227.2 150.25, 226 C 150.25,224.8 150.25,223.8 150.25, 222 C 150.25,220.2 150.25,218.8 150.25, 217 C 150.25,215.2 150.25,214.2 150.25, 213 C 150.25,211.8 150.25,211.8 150.25, 211 C 150.25,210.2 150.25,210 150.25, 209 C 150.25,208 150.25,207.2 150.25, 206 C 150.25,204.8 150.25,203.8 150.25, 203 C 150.25,202.2 150.25,202.4 150.25, 202 C 150.25,201.6 150.25,201.4 150.25, 201 C 150.25,200.6 150.25,200.2 150.25, 200 C 150.25,199.8 150.25,200 150.25, 200 C 150.25,200 150.05,200 150.25, 200 C 150.45,200 151.05,199.8 151.25, 200 C 151.45,200.2 151.25,200.8 151.25, 201 C 151.25,201.2 151.05,201 151.25, 201 C 151.45,201 151.85,200.8 152.25, 201 C 152.65,201.2 152.85,201.6 153.25, 202 C 153.65,202.4 153.65,202.6 154.25, 203 C 154.85,203.4 155.25,203.4 156.25, 204 C 157.25,204.6 157.85,205.4 159.25, 206 C 160.65,206.6 161.45,206.4 163.25, 207 C 165.05,207.6 166.45,208.4 168.25, 209 C 170.05,209.6 170.45,209.4 172.25, 210 C 174.05,210.6 175.45,211.4 177.25, 212 C 179.05,212.6 179.85,212.8 181.25, 213 C 182.65,213.2 183.25,212.8 184.25, 213 C 185.25,213.2 185.45,213.6 186.25, 214 C 187.05,214.4 187.45,214.8 188.25, 215 C 189.05,215.2 189.65,215 190.25, 215 C 190.85,215 190.85,214.8 191.25, 215 C 191.65,215.2 191.85,215.8 192.25, 216 C 192.65,216.2 192.85,216 193.25, 216 C 193.65,216 194.05,216 194.25, 216 C 194.45,216 194.25,216 194.25, 216 C 194.25,216 194.25,216 194.25, 216 C 194.25,216 194.45,216 194.25, 216 C 194.05,216 193.65,216.2 193.25, 216 C 192.85,215.8 192.65,215.4 192.25, 215 C 191.85,214.6 191.65,214.4 191.25, 214 C 190.85,213.6 190.85,213.4 190.25, 213 C 189.65,212.6 189.05,212.6 188.25, 212 C 187.45,211.4 187.05,211 186.25, 210 C 185.45,209 185.05,208.4 184.25, 207 C 183.45,205.6 183.25,204.8 182.25, 203 C 181.25,201.2 180.45,199.8 179.25, 198 C 178.05,196.2 177.25,195.6 176.25, 194 C 175.25,192.4 175.25,191.6 174.25, 190 C 173.25,188.4 172.25,187.6 171.25, 186 C 170.25,184.4 170.05,183.4 169.25, 182 C 168.45,180.6 168.25,180 167.25, 179 C 166.25,178 165.25,177.8 164.25, 177 C 163.25,176.2 162.85,175.8 162.25, 175 C 161.65,174.2 161.85,174 161.25, 173 C 160.65,172 159.85,171 159.25, 170 C 158.65,169 158.85,169 158.25, 168 C 157.65,167 156.65,166.2 156.25, 165 C 155.85,163.8 156.45,163 156.25, 162 C 156.05,161 155.45,160.8 155.25, 160 C 155.05,159.2 155.45,159 155.25, 158 C 155.05,157 154.45,156 154.25, 155 C 154.05,154 154.25,153.6 154.25, 153 C 154.25,152.4 154.25,152.4 154.25, 152 C 154.25,151.6 154.25,151.4 154.25, 151 C 154.25,150.6 154.25,150.4 154.25, 150 C 154.25,149.6 154.25,149.4 154.25, 149 C 154.25,148.6 154.25,148.4 154.25, 148 C 154.25,147.6 154.25,147.2 154.25, 147 C 154.25,146.8 154.25,147 154.25, 147 C 154.25,147 154.25,147.2 154.25, 147 C 154.25,146.8 154.25,146.2 154.25, 146 C 154.25,145.8 154.25,146 154.25, 146 C 154.25,146 154.25,146 154.25, 146 C 154.25,146 154.25,146.2 154.25, 146 C 154.25,145.8 154.25,146 154.25, 145 C 154.25,144 154.25,143.6 154.25, 141 C 154.25,138.4 154.25,135.2 154.25, 132 C 154.25,128.8 154.05,127.8 154.25, 125 C 154.45,122.2 154.85,121.4 155.25, 118 C 155.65,114.6 155.85,111.6 156.25, 108 C 156.65,104.4 156.85,102.8 157.25, 100 C 157.65,97.2 157.85,95.8 158.25, 94 C 158.65,92.2 158.85,92 159.25, 91 C 159.65,90 160.05,89.8 160.25, 89 C 160.45,88.2 160.05,87.4 160.25, 87 C 160.45,86.6 160.85,87 161.25, 87 C 161.65,87 162.05,87 162.25, 87 C 162.45,87 162.25,87 162.25, 87 C 162.25,87 162.25,87 162.25, 87 C 162.25,87 162.25,87 162.25, 87 C 162.25,87 162.05,87 162.25, 87 C 162.45,87 163.05,87 163.25, 87 C 163.45,87 163.25,87 163.25, 87 C 163.25,87 163.25,87 163.25, 87 C 163.25,87 163.25,87 163.25, 87 C 163.25,87 163.05,87 163.25, 87 C 163.45,87 164.05,87 164.25, 87 C 164.45,87 164.25,87 164.25, 87 C 164.25,87 164.25,86.8 164.25, 87 C 164.25,87.2 164.25,87.8 164.25, 88 C 164.25,88.2 164.25,87.8 164.25, 88 C 164.25,88.2 164.05,88.8 164.25, 89 C 164.45,89.2 165.05,88.8 165.25, 89 C 165.45,89.2 165.25,89.8 165.25, 90 C 165.25,90.2 165.05,89.8 165.25, 90 C 165.45,90.2 166.05,90.8 166.25, 91 C 166.45,91.2 166.25,90.8 166.25, 91 C 166.25,91.2 166.25,91.8 166.25, 92 C 166.25,92.2 166.25,92 166.25, 92 C 166.25,92 166.05,91.8 166.25, 92 C 166.45,92.2 167.05,92.8 167.25, 93 C 167.45,93.2 167.25,93 167.25, 93 C 167.25,93 167.25,92.8 167.25, 93 C 167.25,93.2 167.05,93.6 167.25, 94 C 167.45,94.4 167.85,94.8 168.25, 95 C 168.65,95.2 168.65,94.8 169.25, 95 C 169.85,95.2 170.45,95.6 171.25, 96 C 172.05,96.4 172.25,96.6 173.25, 97 C 174.25,97.4 175.25,97.6 176.25, 98 C 177.25,98.4 177.25,98.6 178.25, 99 C 179.25,99.4 180.25,99.6 181.25, 100 C 182.25,100.4 182.25,100.6 183.25, 101 C 184.25,101.4 185.05,101.4 186.25, 102 C 187.45,102.6 188.25,103.4 189.25, 104 C 190.25,104.6 190.05,104.4 191.25, 105 C 192.45,105.6 193.85,106.2 195.25, 107 C 196.65,107.8 197.05,108.2 198.25, 109 C 199.45,109.8 200.05,110.2 201.25, 111 C 202.45,111.8 202.85,112.2 204.25, 113 C 205.65,113.8 206.85,114.2 208.25, 115 C 209.65,115.8 210.05,116.2 211.25, 117 C 212.45,117.8 213.25,118.4 214.25, 119 C 215.25,119.6 215.45,119.6 216.25, 120 C 217.05,120.4 217.45,120.6 218.25, 121 C 219.05,121.4 219.65,121.6 220.25, 122 C 220.85,122.4 220.65,122.6 221.25, 123 C 221.85,123.4 222.65,123.6 223.25, 124 C 223.85,124.4 223.65,124.6 224.25, 125 C 224.85,125.4 225.45,125.6 226.25, 126 C 227.05,126.4 227.65,126.6 228.25, 127 C 228.85,127.4 228.65,127.8 229.25, 128 C 229.85,128.2 230.45,127.8 231.25, 128 C 232.05,128.2 232.45,128.6 233.25, 129 C 234.05,129.4 234.45,129.6 235.25, 130 C 236.05,130.4 236.45,130.6 237.25, 131 C 238.05,131.4 238.45,131.6 239.25, 132 C 240.05,132.4 240.65,132.8 241.25, 133 C 241.85,133.2 241.85,132.8 242.25, 133 C 242.65,133.2 242.65,133.6 243.25, 134 C 243.85,134.4 244.45,134.6 245.25, 135 C 246.05,135.4 246.65,135.8 247.25, 136 C 247.85,136.2 247.85,135.8 248.25, 136 C 248.65,136.2 248.85,136.6 249.25, 137 C 249.65,137.4 249.85,137.8 250.25, 138 C 250.65,138.2 251.05,138 251.25, 138 C 251.45,138 251.25,138 251.25, 138 C 251.25,138 250.85,137.8 251.25, 138 C 251.65,138.2 252.05,138.4 253.25, 139 C 254.45,139.6 255.65,140.2 257.25, 141 C 258.85,141.8 259.65,142.2 261.25, 143 C 262.85,143.8 263.65,144.2 265.25, 145 C 266.85,145.8 267.85,146.2 269.25, 147 C 270.65,147.8 271.05,148.4 272.25, 149 C 273.45,149.6 274.25,149.6 275.25, 150 C 276.25,150.4 276.65,150.6 277.25, 151 C 277.85,151.4 277.85,151.6 278.25, 152 C 278.65,152.4 278.85,152.8 279.25, 153 C 279.65,153.2 279.85,152.8 280.25, 153 C 280.65,153.2 281.05,153.8 281.25, 154 C 281.45,154.2 281.25,154 281.25, 154 C 281.25,154 280.85,154 281.25, 154 C 281.65,154 282.45,153.8 283.25, 154 C 284.05,154.2 284.25,154.6 285.25, 155 C 286.25,155.4 287.05,155.6 288.25, 156 C 289.45,156.4 290.05,156.6 291.25, 157 C 292.45,157.4 293.05,157.6 294.25, 158 C 295.45,158.4 296.05,158.6 297.25, 159 C 298.45,159.4 299.05,159.4 300.25, 160 C 301.45,160.6 302.25,161.4 303.25, 162 C 304.25,162.6 304.05,162.6 305.25, 163 C 306.45,163.4 307.85,163.6 309.25, 164 C 310.65,164.4 310.85,164.4 312.25, 165 C 313.65,165.6 314.65,166.4 316.25, 167 C 317.85,167.6 318.65,167.6 320.25, 168 C 321.85,168.4 322.85,168.6 324.25, 169 C 325.65,169.4 326.25,169.6 327.25, 170 C 328.25,170.4 328.45,170.6 329.25, 171 C 330.05,171.4 330.85,171.8 331.25, 172 C 331.65,172.2 331.05,172 331.25, 172 C 331.45,172 332.05,172 332.25, 172 C 332.45,172 332.05,172 332.25, 172 C 332.45,172 332.65,172 333.25, 172 C 333.85,172 334.25,171.8 335.25, 172 C 336.25,172.2 337.05,172.8 338.25, 173 C 339.45,173.2 339.85,172.8 341.25, 173 C 342.65,173.2 343.65,173.8 345.25, 174 C 346.85,174.2 348.05,174 349.25, 174 C 350.45,174 350.45,174 351.25, 174 C 352.05,174 351.85,174 353.25, 174 C 354.65,174 357.05,174 358.25, 174 C 359.45,174 358.85,174 359.25, 174 C 359.65,174 360.05,174 360.25, 174 C 360.45,174 360.05,174 360.25, 174 C 360.45,174 360.25,174 361.25, 174 C 362.25,174 364.05,174.2 365.25, 174 C 366.45,173.8 366.45,173.2 367.25, 173 C 368.05,172.8 368.25,173 369.25, 173 C 370.25,173 371.45,173 372.25, 173 C 373.05,173 373.05,173 373.25, 173 C 373.45,173 373.05,173 373.25, 173 C 373.45,173 373.65,173.2 374.25, 173 C 374.85,172.8 374.85,172.6 376.25, 172 C 377.65,171.4 379.65,170.6 381.25, 170 C 382.85,169.4 383.25,169.2 384.25, 169 C 385.25,168.8 385.65,169 386.25, 169 C 386.85,169 386.85,169 387.25, 169 C 387.65,169 388.05,169.2 388.25, 169 C 388.45,168.8 388.25,168.2 388.25, 168 C 388.25,167.8 387.85,168 388.25, 168 C 388.65,168 389.65,168 390.25, 168 C 390.85,168 391.05,168 391.25, 168 C 391.45,168 391.25,168 391.25, 168 C 391.25,168 391.25,168 391.25, 168 C 391.25,168 391.25,168 391.25, 168 C 391.25,168 391.25,168.2 391.25, 168 C 391.25,167.8 391.25,167.4 391.25, 167 C 391.25,166.6 391.25,166.6 391.25, 166 C 391.25,165.4 391.25,165 391.25, 164 C 391.25,163 391.05,163 391.25, 161 C 391.45,159 391.85,156.2 392.25, 154 C 392.65,151.8 392.45,152.4 393.25, 150 C 394.05,147.6 395.25,144.4 396.25, 142 C 397.25,139.6 397.05,140 398.25, 138 C 399.45,136 401.05,133.6 402.25, 132 C 403.45,130.4 403.65,130.8 404.25, 130 C 404.85,129.2 404.25,129 405.25, 128 C 406.25,127 406.65,127 409.25, 125 C 411.85,123 415.45,120.2 418.25, 118 C 421.05,115.8 421.45,115.8 423.25, 114 C 425.05,112.2 425.45,111 427.25, 109 C 429.05,107 430.65,105.8 432.25, 104 C 433.85,102.2 433.45,102.4 435.25, 100 C 437.05,97.6 439.05,94.4 441.25, 92 C 443.45,89.6 444.85,89.2 446.25, 88 C 447.65,86.8 447.05,86.6 448.25, 86 C 449.45,85.4 450.85,85.4 452.25, 85 C 453.65,84.6 453.65,84.8 455.25, 84 C 456.85,83.2 458.85,81.6 460.25, 81 C 461.65,80.4 461.65,81.2 462.25, 81 C 462.85,80.8 462.65,80.4 463.25, 80 C 463.85,79.6 464.85,79.2 465.25, 79 C 465.65,78.8 465.25,79 465.25, 79 C 465.25,79 465.25,79 465.25, 79" fill="none" stroke-linecap="round" stroke="#000000" stroke-width="4"></path></g></svg>