<svg xmlns="http://www.w3.org/2000/svg" width="512" height="512"><path d="M350 424,349 425,350 426,350 427,351 428,351 430,352 431,354 431,354 429,353 428,353 426,351 424,Z" fill="none" stroke="black" stroke-width="1"/><path d="M363 400,363 402,364 403,364 405,365 406,365 407,371 413,372 413,374 415,377 415,378 416,381 416,382 415,384 415,385 414,386 414,386 411,384 409,382 409,381 408,379 408,378 407,374 407,373 406,371 406,369 404,368 404,365 401,365 400,365 401,366 402,366 403,367 404,368 404,369 405,370 405,371 406,373 406,374 407,378 407,379 408,381 408,382 409,383 409,386 412,386 413,385 414,384 414,383 415,382 415,381 416,378 416,377 415,375 415,373 413,372 413,365 406,365 405,364 404,364 403,363 402,Z" fill="none" stroke="black" stroke-width="1"/><path d="M313 386,312 387,312 388,311 389,311 391,310 392,310 396,309 397,309 401,310 402,310 406,311 407,311 409,312 410,312 411,313 412,313 413,319 419,320 419,321 420,322 420,323 421,325 421,326 422,332 422,333 421,333 420,332 419,332 418,330 416,330 415,329 414,329 413,327 411,327 410,326 409,326 408,325 407,325 406,324 405,324 404,323 403,323 402,322 401,322 400,321 399,321 397,320 396,320 395,319 394,319 392,318 391,318 389,317 388,317 387,316 386,Z" fill="none" stroke="black" stroke-width="1"/><path d="M145 383,145 387,144 388,144 400,146 400,146 398,147 397,147 395,148 394,148 387,147 386,147 383,Z" fill="none" stroke="black" stroke-width="1"/><path d="M307 375,307 380,306 381,306 391,306 381,307 380,Z" fill="none" stroke="black" stroke-width="1"/><path d="M309 373,309 374,310 375,310 378,311 379,311 382,309 384,309 385,308 386,308 391,308 387,309 386,309 385,311 383,311 379,310 378,310 375,309 374,Z" fill="none" stroke="black" stroke-width="1"/><path d="M322 372,321 373,321 375,320 376,320 379,319 380,319 381,320 382,320 385,321 386,321 389,322 390,322 392,323 393,323 394,324 395,324 396,325 397,325 399,326 400,326 401,327 402,327 403,328 404,328 405,329 406,329 407,330 408,330 409,331 410,331 411,332 412,332 413,334 415,334 416,336 418,336 419,337 420,338 420,339 419,341 419,344 416,344 415,345 414,344 413,344 412,343 411,343 410,341 408,341 407,339 405,339 404,337 402,337 401,336 400,336 399,334 397,334 396,333 395,333 394,332 393,332 392,331 391,331 390,330 389,330 388,329 387,329 386,328 385,328 384,327 383,327 382,326 381,326 379,325 378,325 376,324 375,324 374,323 373,323 372,Z" fill="none" stroke="black" stroke-width="1"/><path d="M379 368,378 369,377 369,374 372,373 372,373 373,370 376,370 377,369 378,369 379,368 380,368 382,367 383,367 385,366 386,366 387,365 388,364 387,364 384,364 387,365 388,365 390,366 390,368 388,368 387,370 385,370 384,374 380,374 379,377 376,377 375,379 373,379 372,380 371,380 370,379 371,379 372,377 374,377 375,374 378,374 379,370 383,370 384,369 385,369 386,368 387,368 388,366 390,365 389,365 388,366 387,366 386,367 385,367 383,368 382,368 380,370 378,370 377,373 374,373 373,374 372,375 372,379 368,380 368,Z" fill="none" stroke="black" stroke-width="1"/><path d="M165 366,164 367,162 367,161 368,160 368,159 369,158 369,157 370,156 370,154 372,153 372,151 374,150 374,148 376,148 378,150 380,150 382,151 383,151 390,152 391,151 392,151 397,150 398,150 400,148 402,148 403,145 406,145 407,146 408,146 410,149 413,150 413,151 414,158 414,159 413,161 413,163 411,164 411,165 410,165 409,167 407,167 406,169 404,169 402,170 401,170 400,171 399,171 397,172 396,172 395,173 394,173 391,174 390,174 384,175 383,174 382,174 375,173 374,173 373,172 372,172 370,171 369,171 368,169 366,Z" fill="none" stroke="black" stroke-width="1"/><path d="M127 365,125 367,123 367,122 368,121 368,120 369,119 369,117 371,116 371,115 372,114 372,112 374,111 374,108 377,107 377,101 383,101 384,97 388,97 389,96 390,96 391,94 393,94 394,93 395,93 396,92 397,92 398,91 399,91 400,90 401,90 402,89 403,89 405,88 406,88 407,87 408,87 409,86 410,86 412,85 413,85 414,84 415,84 417,83 418,83 420,82 421,82 423,81 424,81 427,80 428,80 430,79 431,79 434,78 435,78 439,77 440,77 446,76 447,76 464,76 447,77 446,77 440,78 439,78 435,79 434,79 431,80 430,80 428,81 427,81 424,82 423,82 421,83 420,83 418,84 417,84 415,85 414,85 413,86 412,86 410,87 409,87 408,88 407,88 406,89 405,89 404,90 403,90 401,92 399,92 398,93 397,93 396,94 395,94 394,96 392,96 391,97 390,97 389,101 385,101 384,108 377,109 377,112 374,113 374,115 372,116 372,117 371,118 371,120 369,121 369,122 368,123 368,124 367,125 367,126 366,127 366,128 365,131 365,134 368,135 368,140 373,139 374,138 374,137 375,135 375,134 376,132 376,131 377,128 377,127 378,126 378,125 379,123 379,122 380,121 380,120 381,118 381,117 382,116 382,115 383,114 383,113 384,112 384,110 386,109 386,99 396,99 397,96 400,96 401,94 403,94 404,93 405,93 406,92 407,92 408,91 409,91 411,90 412,90 413,89 414,89 415,88 416,88 418,87 419,87 421,86 422,86 424,85 425,85 428,84 429,84 432,83 433,83 436,82 437,82 440,81 441,81 445,80 446,80 452,79 453,79 459,78 460,78 464,78 460,79 459,79 453,80 452,80 446,81 445,81 441,82 440,82 437,83 436,83 433,84 432,84 429,85 428,85 425,86 424,86 422,87 421,87 419,88 418,88 416,89 415,89 414,90 413,90 412,91 411,91 410,92 409,92 408,93 407,93 406,94 405,94 404,96 402,96 401,99 398,99 397,110 386,111 386,113 384,114 384,115 383,116 383,117 382,118 382,119 381,120 381,121 380,122 380,123 379,125 379,126 378,127 378,128 377,131 377,132 376,134 376,135 375,137 375,138 374,140 374,140 372,136 368,135 368,132 365,Z" fill="none" stroke="black" stroke-width="1"/><path d="M379 362,378 363,377 363,376 364,376 365,375 366,376 367,377 367,380 364,381 364,380 364,377 367,376 367,375 366,379 362,380 362,Z" fill="none" stroke="black" stroke-width="1"/><path d="M176 359,174 361,172 361,172 364,174 366,174 367,175 368,175 369,176 370,176 372,177 373,177 375,178 376,178 389,177 390,177 393,176 394,176 396,175 397,175 398,178 398,179 397,179 396,181 394,181 393,182 392,182 390,183 389,183 387,184 386,184 371,183 370,183 367,182 366,182 365,181 364,181 362,178 359,Z" fill="none" stroke="black" stroke-width="1"/><path d="M143 359,142 360,140 360,139 361,137 361,136 362,135 362,135 364,136 365,137 365,143 371,146 371,148 369,148 367,149 366,149 361,148 360,146 360,145 359,Z" fill="none" stroke="black" stroke-width="1"/><path d="M390 358,388 360,388 362,390 362,391 363,392 363,393 364,394 364,395 365,396 365,397 366,399 366,400 367,401 367,402 368,404 368,405 369,406 369,407 370,408 370,409 371,410 371,411 372,412 372,413 373,414 373,415 374,416 374,417 375,418 375,420 377,421 377,422 378,424 378,424 376,423 376,420 373,419 373,416 370,415 370,414 369,413 369,411 367,410 367,409 366,408 366,407 365,405 365,404 364,403 364,402 363,400 363,399 362,398 362,397 361,396 361,394 359,392 359,391 358,Z" fill="none" stroke="black" stroke-width="1"/><path d="M201 358,201 360,202 361,202 362,203 363,203 364,204 365,204 366,205 367,205 368,206 369,206 370,207 371,207 373,208 374,208 375,209 376,209 377,210 378,210 380,211 381,211 382,212 383,212 384,213 385,213 386,214 387,214 389,215 390,215 391,216 392,216 393,217 394,217 395,218 396,218 397,219 398,219 400,220 401,220 402,221 403,221 404,222 405,222 406,223 407,223 409,224 410,224 411,225 412,225 413,226 414,226 416,227 417,227 418,228 419,228 420,229 421,229 422,230 423,230 425,231 426,231 427,232 428,232 429,233 430,233 431,234 432,234 433,237 436,237 437,238 438,241 438,241 433,240 432,240 431,239 430,239 428,238 427,238 426,237 425,237 424,236 423,236 422,235 421,235 420,234 419,234 418,233 417,233 416,231 414,231 413,230 412,230 411,229 410,229 409,228 408,228 407,227 406,227 405,226 404,226 403,225 402,225 401,224 400,224 399,223 398,223 397,222 396,222 395,221 394,221 393,220 392,220 391,219 390,219 389,217 387,217 385,216 384,216 383,215 382,215 381,214 380,214 379,213 378,213 377,212 376,212 375,211 374,211 373,210 372,210 371,208 369,208 368,207 367,207 366,206 365,206 364,205 363,205 362,204 361,204 360,203 359,203 358,203 359,204 360,204 362,203 363,202 362,202 361,201 360,Z" fill="none" stroke="black" stroke-width="1"/><path d="M198 352,198 353,199 354,200 354,200 353,199 352,Z" fill="none" stroke="black" stroke-width="1"/><path d="M146 352,145 353,145 356,146 356,147 357,148 357,152 361,152 366,151 367,152 368,154 368,156 366,157 366,159 364,160 364,161 363,162 363,163 362,165 362,165 360,164 360,159 355,158 355,156 353,155 353,154 352,Z" fill="none" stroke="black" stroke-width="1"/><path d="M188 351,185 354,184 354,182 356,182 359,183 360,183 361,184 362,184 363,185 364,185 365,186 366,186 368,188 368,188 367,189 366,189 364,190 363,190 351,190 363,189 364,189 365,188 366,188 367,187 368,186 367,186 366,185 365,185 363,183 361,183 359,182 358,182 357,185 354,186 354,188 352,Z" fill="none" stroke="black" stroke-width="1"/><path d="M391 349,388 352,387 352,386 353,385 353,382 356,382 358,386 358,394 350,394 349,Z" fill="none" stroke="black" stroke-width="1"/><path d="M194 345,194 347,195 348,196 347,197 348,196 347,196 345,196 346,195 347,194 346,Z" fill="none" stroke="black" stroke-width="1"/><path d="M336 344,334 346,334 347,332 349,332 350,331 351,331 352,330 353,330 355,329 356,329 357,328 358,328 360,327 361,327 367,326 368,326 369,327 370,327 374,328 375,328 376,329 377,329 379,330 380,330 381,331 382,331 383,332 384,332 386,333 387,333 388,334 389,334 390,335 391,335 392,337 394,337 395,338 396,338 397,339 398,339 399,341 401,341 402,342 403,342 404,344 406,344 407,346 409,346 410,349 410,351 408,351 407,353 405,353 404,354 403,354 402,355 401,355 400,356 399,356 398,357 397,357 395,358 394,358 392,359 391,359 388,360 387,360 383,361 382,361 372,359 372,357 374,357 375,356 376,356 377,355 378,355 379,354 380,354 382,353 383,353 385,352 386,352 388,351 389,351 391,350 392,350 393,348 395,347 394,347 391,348 390,348 387,349 386,349 384,350 383,350 382,351 381,351 380,352 379,352 378,353 377,353 376,355 374,355 373,356 372,356 371,357 370,357 369,358 368,358 365,356 363,356 362,338 344,Z" fill="none" stroke="black" stroke-width="1"/><path d="M342 337,340 339,340 342,349 351,350 351,353 354,353 355,360 362,360 363,362 363,366 359,366 358,368 356,368 353,367 352,366 352,364 350,363 350,362 349,361 349,359 347,358 347,356 345,355 345,353 343,352 343,348 339,347 339,345 337,Z" fill="none" stroke="black" stroke-width="1"/><path d="M302 334,302 336,301 337,301 338,300 339,300 342,299 343,299 352,300 353,300 355,302 357,302 358,302 357,301 356,301 355,300 354,300 353,299 352,299 343,300 342,300 339,301 338,301 337,302 336,302 335,303 334,304 335,304 337,303 338,303 355,304 356,304 357,304 356,303 355,303 338,304 337,304 334,Z" fill="none" stroke="black" stroke-width="1"/><path d="M306 333,306 334,Z" fill="none" stroke="black" stroke-width="1"/><path d="M307 329,307 330,308 331,308 335,307 336,307 340,306 341,305 340,306 341,306 353,307 354,307 360,308 361,308 363,309 364,309 365,310 366,310 367,312 369,312 371,313 372,313 374,314 375,314 377,316 377,316 376,317 375,317 374,318 373,318 371,319 370,319 364,318 363,318 362,317 361,317 359,316 358,316 357,315 356,315 355,314 354,314 352,313 351,313 350,312 349,312 348,311 347,311 346,310 345,310 344,308 342,308 341,307 340,307 336,308 335,308 331,307 330,308 329,Z" fill="none" stroke="black" stroke-width="1"/><path d="M315 315,315 317,314 318,314 319,313 320,313 323,312 324,312 337,313 338,313 342,314 343,314 345,315 346,315 348,316 349,316 351,318 353,318 355,319 356,319 357,320 358,320 359,321 360,321 361,322 362,322 364,324 364,324 358,325 357,325 355,326 354,326 353,327 352,327 351,329 349,329 348,333 344,333 343,334 342,334 340,331 337,331 336,327 332,327 331,325 329,325 328,323 326,323 325,322 324,322 323,321 322,321 321,319 319,319 318,318 317,318 316,317 315,Z" fill="none" stroke="black" stroke-width="1"/><path d="M373 311,373 313,374 314,374 315,375 316,375 317,376 318,376 319,377 320,377 321,378 322,378 323,379 324,379 325,380 326,380 328,381 329,381 339,380 340,380 342,379 343,379 345,377 347,377 348,376 349,376 350,375 351,375 352,373 354,373 355,366 362,366 363,364 365,364 366,363 367,363 371,364 372,364 376,364 372,363 371,363 368,364 367,364 366,366 364,366 363,373 356,373 355,375 353,375 352,376 351,376 350,377 349,377 348,378 347,378 346,379 345,379 343,380 342,380 340,381 339,381 329,380 328,380 326,379 325,379 323,378 322,378 321,377 320,377 319,376 318,376 317,375 316,375 315,373 313,Z" fill="none" stroke="black" stroke-width="1"/><path d="M366 308,365 309,365 310,363 312,363 313,361 315,361 316,356 321,356 322,351 327,351 328,347 332,347 335,350 338,351 338,353 340,354 340,356 342,357 342,359 344,360 344,362 346,363 346,364 347,365 347,366 348,367 348,368 349,369 349,370 350,372 350,374 348,374 347,375 346,375 344,376 343,376 341,377 340,377 329,376 328,376 326,375 325,375 323,374 322,374 321,373 320,373 319,371 317,371 316,370 315,370 314,369 313,369 311,368 310,368 308,368 310,369 311,369 313,370 314,370 316,371 317,371 318,373 320,373 321,374 322,374 323,375 324,375 325,376 326,376 328,377 329,377 340,376 341,376 343,375 344,375 345,374 346,374 347,371 350,370 350,368 348,367 348,366 347,365 347,364 346,363 346,361 344,360 344,358 342,357 342,355 340,354 340,352 338,351 338,347 334,347 333,351 329,351 328,356 323,356 322,361 317,361 316,363 314,363 313,365 311,365 310,366 309,Z" fill="none" stroke="black" stroke-width="1"/><path d="M322 299,321 300,321 301,320 302,320 304,319 305,319 311,320 312,320 313,321 314,321 316,323 318,323 319,324 320,324 321,325 322,325 323,326 324,326 325,328 327,328 328,330 330,330 331,334 335,334 336,336 338,338 338,338 337,341 334,341 333,340 332,340 331,336 327,336 326,334 324,334 323,332 321,332 320,330 318,330 317,329 316,329 315,328 314,328 313,327 312,327 311,326 310,326 308,325 307,325 304,324 303,324 301,323 300,323 299,Z" fill="none" stroke="black" stroke-width="1"/><path d="M396 283,397 284,397 285,398 286,398 287,400 289,400 290,403 293,403 294,405 296,405 297,407 299,407 300,409 302,409 303,410 304,410 305,411 306,411 307,413 309,413 311,414 312,414 314,415 315,415 326,414 327,414 329,413 330,413 331,411 333,411 334,407 338,406 338,405 339,404 339,403 338,405 336,405 334,406 333,406 332,407 331,407 327,408 326,408 316,407 315,407 312,406 311,406 309,405 308,405 307,404 306,404 304,403 303,403 302,401 300,401 299,400 298,400 297,399 296,399 295,398 294,398 293,397 292,397 291,396 290,396 288,395 287,395 285,395 287,396 288,396 290,397 291,397 292,398 293,398 295,399 296,399 297,400 298,400 299,401 300,401 301,403 303,403 304,404 305,404 306,405 307,405 308,406 309,406 311,407 312,407 315,408 316,408 326,407 327,407 331,406 332,406 333,405 334,405 335,404 336,404 337,403 338,403 339,404 340,405 340,407 338,408 338,411 335,411 334,413 332,413 330,414 329,414 327,415 326,415 315,414 314,414 312,413 311,413 309,412 308,412 307,411 306,411 305,410 304,410 303,409 302,409 301,407 299,407 298,405 296,405 295,403 293,403 292,400 289,400 288,398 286,398 285,Z" fill="none" stroke="black" stroke-width="1"/><path d="M124 282,124 284,123 285,123 288,122 289,122 293,121 294,121 303,122 304,122 309,123 310,123 313,124 314,124 316,125 317,125 319,126 320,126 321,127 322,127 324,128 325,128 326,130 328,130 329,131 330,131 331,134 334,134 335,136 337,136 338,141 343,141 344,144 347,144 348,145 349,145 350,147 350,149 348,149 346,148 345,148 344,141 337,141 336,137 332,137 331,134 328,134 327,132 325,132 324,131 323,131 321,132 320,133 320,135 322,135 323,137 325,137 326,138 327,138 328,140 330,140 331,144 335,144 336,165 357,166 357,168 359,171 359,172 358,174 358,175 357,175 355,174 354,174 353,173 352,173 351,165 343,165 342,158 335,158 334,153 329,153 328,149 324,149 323,146 320,146 319,144 317,144 316,141 313,141 312,139 310,139 309,138 308,138 307,136 305,136 304,135 303,135 302,134 301,134 300,133 299,133 298,132 297,132 296,131 295,131 294,130 293,130 292,129 291,129 290,127 288,127 286,126 285,126 283,126 285,127 286,127 288,128 289,128 290,129 291,129 292,130 293,130 294,131 295,131 296,132 297,132 298,133 299,133 300,134 301,134 302,135 303,135 304,136 305,136 306,138 308,138 309,139 310,139 311,141 313,141 314,144 317,144 318,146 320,146 321,149 324,149 325,153 329,153 330,158 335,158 336,165 343,165 344,173 352,173 353,175 355,175 356,173 358,172 358,171 359,169 359,167 357,166 357,144 335,144 334,140 330,140 329,138 327,138 326,137 325,137 324,135 322,135 321,134 320,131 320,131 324,132 325,132 326,134 328,134 329,137 332,137 333,141 337,141 338,148 345,148 346,149 347,149 348,148 349,147 349,146 350,145 349,145 348,144 347,144 346,141 343,141 342,136 337,136 336,134 334,134 333,131 330,131 329,130 328,130 327,128 325,128 324,127 323,127 322,126 321,126 320,125 319,125 317,124 316,124 314,123 313,123 310,122 309,122 304,121 303,121 294,122 293,122 289,123 288,123 285,124 284,Z" fill="none" stroke="black" stroke-width="1"/><path d="M107 279,104 282,104 283,103 284,103 285,101 287,101 288,100 289,100 291,99 292,99 294,98 295,98 298,97 299,97 304,96 305,96 311,97 312,97 317,98 318,98 320,99 321,99 323,100 324,100 326,101 327,101 328,102 329,102 331,104 333,104 334,105 335,105 336,107 338,107 339,120 352,121 352,124 355,125 355,127 357,128 357,129 358,134 358,135 357,137 357,138 356,139 356,140 355,142 355,142 350,141 349,141 348,138 345,138 344,134 340,134 339,130 335,130 334,128 332,128 331,126 329,126 328,125 327,125 326,124 325,124 324,123 323,123 322,122 321,122 320,121 319,121 317,120 316,120 313,119 312,119 309,118 308,118 290,119 289,119 287,118 287,116 285,115 285,110 280,110 279,Z" fill="none" stroke="black" stroke-width="1"/><path d="M270 278,268 280,266 280,265 281,264 281,263 282,254 282,253 281,251 281,250 280,249 281,248 281,248 283,249 284,250 284,251 285,253 285,254 286,263 286,264 285,266 285,267 284,269 284,272 281,272 278,Z" fill="none" stroke="black" stroke-width="1"/><path d="M113 278,115 278,117 280,118 280,120 282,119 283,118 283,117 282,116 282,114 280,117 283,120 283,120 281,119 281,118 280,117 280,115 278,Z" fill="none" stroke="black" stroke-width="1"/><path d="M314 276,313 277,313 278,311 280,311 281,310 282,310 283,309 284,309 286,308 287,308 288,307 289,307 291,306 292,306 295,305 296,305 299,304 300,304 314,305 315,305 318,306 319,306 321,307 322,307 323,307 321,306 320,306 319,305 318,305 315,304 314,304 300,305 299,305 296,306 295,306 292,307 291,307 289,308 288,308 287,309 286,309 284,311 282,311 281,313 279,313 278,315 276,316 277,316 278,315 279,315 282,314 283,314 286,313 287,313 302,314 303,314 309,312 311,312 313,311 314,311 315,310 316,310 318,309 319,309 322,309 319,310 318,310 316,311 315,311 314,312 313,312 312,314 310,314 303,313 302,313 287,314 286,314 283,315 282,315 279,316 278,316 276,Z" fill="none" stroke="black" stroke-width="1"/><path d="M373 269,373 271,372 272,372 274,371 275,371 277,370 278,370 280,369 281,369 284,368 285,368 291,367 292,368 293,368 299,369 299,371 297,371 296,373 294,373 293,374 292,374 291,375 290,375 288,376 287,376 284,377 283,377 273,376 272,376 271,375 270,375 269,Z" fill="none" stroke="black" stroke-width="1"/><path d="M120 266,118 268,117 268,111 274,111 275,112 275,113 276,118 276,120 278,121 277,122 277,122 275,121 274,121 266,Z" fill="none" stroke="black" stroke-width="1"/><path d="M253 260,252 261,250 261,249 262,248 262,242 268,239 268,238 269,237 269,237 272,238 273,244 273,245 272,252 272,253 273,262 273,263 272,264 272,265 271,267 271,268 270,270 270,271 271,275 271,276 272,281 272,282 271,283 271,283 267,278 267,272 261,271 261,270 260,267 260,266 261,265 261,264 262,263 262,261 264,258 261,256 261,255 260,Z" fill="none" stroke="black" stroke-width="1"/><path d="M182 247,182 251,183 252,183 254,184 255,184 257,185 258,185 260,186 261,186 263,187 264,187 265,188 266,188 268,189 269,189 270,190 271,190 273,191 274,191 276,192 277,192 279,193 280,193 282,194 283,194 287,195 288,195 294,196 295,196 306,195 307,195 313,194 314,194 317,193 318,193 321,192 322,192 325,191 326,191 328,190 329,190 335,191 336,191 338,192 337,193 338,193 337,194 336,194 335,196 333,196 332,198 330,198 329,199 328,199 327,200 326,200 325,201 324,201 323,202 322,202 320,203 319,203 316,204 315,204 311,205 310,205 292,204 291,204 286,203 285,203 281,202 280,202 279,198 275,198 274,196 272,196 271,195 270,195 269,194 268,194 267,192 265,192 263,190 261,190 259,189 258,189 255,188 254,188 252,187 251,187 247,Z" fill="none" stroke="black" stroke-width="1"/><path d="M168 245,168 246,166 248,166 250,165 251,165 253,169 253,170 252,171 252,172 251,172 249,173 248,173 247,172 246,172 245,Z" fill="none" stroke="black" stroke-width="1"/><path d="M331 236,331 237,330 238,330 243,329 244,329 249,328 250,328 253,327 254,327 257,326 258,326 260,325 261,325 262,324 263,324 265,323 266,323 267,322 268,322 270,321 271,321 272,320 273,320 276,319 277,319 280,318 281,318 284,317 285,317 290,316 291,316 301,317 300,318 300,318 299,319 298,319 297,320 296,320 295,321 294,321 293,322 292,322 290,323 289,323 287,324 286,324 284,325 283,325 282,326 281,326 279,327 278,327 276,328 275,328 274,329 273,329 271,330 270,330 268,331 267,331 265,332 264,332 261,333 260,333 258,334 257,334 254,335 253,335 249,336 248,336 236,Z" fill="none" stroke="black" stroke-width="1"/><path d="M341 235,339 237,339 239,340 240,340 241,339 242,339 251,338 252,338 256,337 257,337 260,336 261,336 263,335 264,335 266,334 267,334 269,333 270,333 272,332 273,332 275,331 276,331 278,330 279,330 281,329 282,329 284,328 285,328 286,327 287,327 290,326 291,326 296,327 297,327 301,328 302,328 305,329 306,329 308,330 309,330 310,331 311,331 313,332 314,332 315,333 316,333 317,334 318,334 319,336 321,336 322,338 324,338 325,342 329,342 330,345 330,347 328,347 327,352 322,352 321,356 317,356 316,359 313,359 312,362 309,362 308,365 305,365 299,364 298,364 286,365 285,365 282,366 281,366 278,367 277,367 275,368 274,368 272,369 271,369 269,370 268,370 263,368 261,368 260,354 246,353 246,346 239,345 239,Z" fill="none" stroke="black" stroke-width="1"/><path d="M245 229,244 230,243 230,240 233,240 234,239 235,239 236,238 237,238 245,241 248,248 248,249 247,250 247,253 244,254 244,256 246,257 246,258 247,263 247,264 246,265 246,266 245,267 245,269 243,270 244,270 246,271 247,277 247,278 246,279 246,280 245,280 244,281 243,281 239,280 238,280 237,279 236,279 235,277 233,277 232,275 230,272 230,272 233,278 239,278 241,275 244,274 243,274 241,273 240,272 240,271 239,270 239,269 240,266 240,261 245,259 243,259 242,258 241,257 241,256 240,250 240,248 242,247 242,247 243,245 245,244 245,241 242,241 239,242 238,242 237,243 236,243 235,246 232,246 230,Z" fill="none" stroke="black" stroke-width="1"/><path d="M332 226,331 227,331 229,330 230,330 233,333 233,334 232,334 229,333 228,333 227,Z" fill="none" stroke="black" stroke-width="1"/><path d="M173 226,165 234,165 235,160 240,160 241,156 245,156 246,152 250,152 251,149 254,149 255,146 258,146 259,142 263,142 264,140 266,140 267,139 268,139 269,138 270,138 272,137 273,137 282,138 283,136 285,134 283,134 282,133 281,133 274,134 273,134 270,135 269,135 268,137 266,137 265,138 264,138 263,142 259,142 258,145 255,145 254,150 249,150 248,154 244,154 243,158 239,158 238,159 237,157 239,157 240,150 247,150 248,145 253,145 254,142 257,142 258,139 261,139 262,138 263,138 264,136 266,136 267,135 268,135 269,134 270,134 273,133 274,133 281,134 282,134 284,135 284,136 285,137 284,138 284,138 283,137 282,137 273,138 272,138 270,140 268,140 267,142 265,142 264,146 260,146 259,149 256,149 255,152 252,152 251,156 247,156 246,160 242,160 241,165 236,165 235,174 226,175 227,175 240,176 241,176 243,175 244,174 243,174 242,172 240,168 240,164 244,164 245,163 246,163 248,162 249,162 253,161 254,161 262,162 263,162 268,163 269,163 271,164 272,164 274,165 275,165 276,166 277,166 279,167 280,167 281,168 282,168 283,169 284,169 285,170 286,170 287,171 288,171 289,173 291,173 292,174 293,174 294,175 295,175 296,176 297,176 298,177 299,177 301,178 302,178 304,179 305,179 307,180 308,180 312,181 313,181 318,182 319,182 324,183 325,183 328,184 329,184 331,185 332,185 333,186 334,186 336,187 337,187 340,188 341,188 344,189 345,186 348,185 348,179 354,178 353,178 352,176 350,176 349,170 343,170 342,162 334,162 333,157 328,157 327,153 323,153 322,150 319,150 318,147 315,147 314,145 312,145 311,143 309,143 308,141 306,141 305,139 303,139 302,138 301,138 300,137 299,137 298,136 297,136 296,135 295,135 294,134 293,134 292,133 291,133 290,131 288,131 286,130 285,130 284,129 283,129 282,128 281,128 277,129 276,129 275,130 274,130 273,131 272,131 271,132 270,132 269,133 268,133 267,134 266,134 265,136 263,136 262,137 261,137 260,140 257,140 256,143 253,143 252,148 247,148 246,155 239,155 238,157 236,148 245,148 246,143 251,143 252,140 255,140 256,138 258,138 259,136 261,136 262,135 263,135 264,133 266,133 267,132 268,132 269,131 270,131 271,130 272,130 273,129 274,129 275,128 276,128 281,129 282,129 284,131 286,131 288,132 289,132 290,133 291,133 292,134 293,134 294,135 295,135 296,136 297,136 298,137 299,137 300,138 301,138 302,139 303,139 304,141 306,141 307,143 309,143 310,145 312,145 313,147 315,147 316,150 319,150 320,153 323,153 324,157 328,157 329,162 334,162 335,170 343,170 344,176 350,176 351,179 354,180 354,186 348,187 348,188 347,188 346,189 345,188 344,188 341,187 340,187 337,186 336,186 334,185 333,185 332,184 331,184 329,183 328,183 325,182 324,182 319,181 318,181 313,180 312,180 308,179 307,179 305,178 304,178 302,177 301,177 299,176 298,176 297,175 296,175 294,174 293,174 292,173 291,173 290,171 288,171 287,170 286,170 285,169 284,169 283,168 282,168 281,167 280,167 279,166 278,166 277,165 276,165 275,164 274,164 272,163 271,163 269,162 268,162 263,161 262,161 254,162 253,162 249,163 248,163 247,164 246,164 245,169 240,171 240,174 243,174 244,175 245,175 246,176 247,176 249,175 250,175 251,170 256,169 256,168 257,165 257,165 266,166 267,166 269,167 270,167 272,168 273,168 274,169 275,169 276,170 277,170 279,171 280,171 281,172 282,172 283,173 284,173 285,175 287,175 288,176 289,176 290,177 291,177 292,178 293,178 294,179 295,179 296,180 297,180 298,181 299,181 301,182 302,182 305,183 306,183 308,185 308,186 309,186 316,185 317,185 320,186 321,186 326,188 326,188 323,189 322,189 320,190 319,190 316,191 315,191 311,192 310,192 293,191 292,191 287,190 286,190 283,189 282,189 279,188 278,188 276,187 275,187 274,186 273,186 271,185 270,185 269,184 268,184 266,183 265,183 263,182 262,182 260,181 259,181 257,180 256,180 254,179 253,179 250,178 249,178 247,177 246,177 244,176 243,176 241,175 240,175 226,Z" fill="none" stroke="black" stroke-width="1"/><path d="M396 221,396 222,395 223,395 226,394 227,394 231,393 232,393 236,392 237,392 241,391 242,391 248,390 249,390 260,391 261,391 264,392 265,392 267,393 268,393 270,394 271,396 271,396 270,397 269,397 268,399 266,399 265,400 264,400 262,401 261,401 259,402 258,402 257,403 256,403 253,404 252,404 238,403 237,403 234,402 233,402 231,401 230,401 228,400 227,400 225,398 223,398 222,397 221,Z" fill="none" stroke="black" stroke-width="1"/><path d="M181 220,180 221,180 223,182 225,182 226,181 227,180 226,179 226,179 227,178 228,178 238,179 239,179 241,180 242,180 243,185 243,185 231,184 230,184 225,183 224,183 220,182 221,Z" fill="none" stroke="black" stroke-width="1"/><path d="M335 219,336 220,336 221,345 230,346 230,351 235,352 235,361 244,361 245,369 253,369 254,371 256,371 258,371 256,370 255,370 254,367 251,367 250,361 244,361 243,353 235,352 235,347 230,346 230,Z" fill="none" stroke="black" stroke-width="1"/><path d="M333 219,333 220,334 221,334 222,336 224,336 225,340 229,340 230,345 235,346 235,352 241,353 241,369 257,369 258,369 257,367 255,367 254,354 241,353 241,347 235,346 235,340 229,340 228,334 222,334 221,333 220,Z" fill="none" stroke="black" stroke-width="1"/><path d="M323 203,324 204,324 205,325 206,325 207,324 208,322 206,322 205,322 206,323 207,323 208,324 209,326 209,326 208,325 207,325 206,324 205,324 204,Z" fill="none" stroke="black" stroke-width="1"/><path d="M326 201,325 202,326 203,326 204,327 205,327 206,329 206,329 205,328 204,328 202,327 201,Z" fill="none" stroke="black" stroke-width="1"/><path d="M301 198,301 199,300 200,302 198,303 199,303 200,301 202,299 202,302 202,303 201,303 198,Z" fill="none" stroke="black" stroke-width="1"/><path d="M297 195,294 198,294 201,295 202,295 203,297 205,302 205,303 204,304 204,306 202,306 200,308 198,309 199,311 199,313 201,310 204,309 204,307 206,306 206,304 208,303 208,302 209,295 209,294 208,293 208,292 207,290 207,292 207,293 208,294 208,295 209,302 209,303 208,304 208,305 207,306 207,307 206,308 206,311 203,312 203,313 202,313 200,312 200,311 199,310 199,309 198,307 198,307 199,306 200,306 201,303 204,302 204,301 205,298 205,294 201,294 198,297 195,299 195,Z" fill="none" stroke="black" stroke-width="1"/><path d="M301 194,Z" fill="none" stroke="black" stroke-width="1"/><path d="M297 193,299 193,Z" fill="none" stroke="black" stroke-width="1"/><path d="M212 193,211 194,209 194,207 196,206 196,205 197,204 197,203 198,201 198,200 199,200 203,201 203,202 204,204 204,205 205,206 205,207 206,207 207,206 208,206 210,209 213,211 213,212 214,220 214,221 213,223 213,224 212,225 212,226 211,227 211,228 210,228 208,225 208,224 209,223 209,222 210,216 210,211 205,211 203,214 200,215 201,215 203,216 204,216 205,217 206,218 206,219 207,220 207,221 206,223 206,226 203,227 204,228 204,228 202,227 201,227 200,228 199,230 201,230 202,232 204,232 205,235 208,238 208,238 205,237 204,237 203,228 194,226 194,225 193,Z" fill="none" stroke="black" stroke-width="1"/><path d="M306 192,306 193,308 193,307 193,Z" fill="none" stroke="black" stroke-width="1"/><path d="M214 175,225 175,226 176,225 177,215 177,225 177,226 178,227 178,229 180,227 178,226 178,225 177,226 176,228 176,231 179,231 180,231 178,230 177,229 177,228 176,226 176,225 175,Z" fill="none" stroke="black" stroke-width="1"/><path d="M314 162,314 165,315 166,315 173,316 174,316 175,321 180,320 181,318 181,317 180,316 180,315 181,316 182,316 184,317 185,317 188,318 189,318 191,319 192,319 194,320 195,320 196,321 197,323 197,324 196,325 197,326 197,331 202,331 207,330 208,330 210,332 212,332 213,342 223,343 223,348 228,349 228,353 232,354 232,365 243,365 244,368 247,369 246,369 245,368 244,368 243,367 242,367 241,366 240,366 239,365 238,365 237,364 236,364 235,363 234,363 233,362 232,362 231,360 229,360 228,358 226,358 225,356 223,356 222,354 220,354 219,350 215,350 214,347 211,347 210,343 206,343 205,341 203,341 202,338 199,338 198,335 195,335 194,333 192,333 191,332 190,332 189,330 187,330 186,328 184,328 183,326 181,326 180,325 179,325 178,323 176,323 175,321 173,321 172,320 171,320 170,318 168,318 167,317 166,317 165,316 164,316 163,316 165,315 166,314 165,Z" fill="none" stroke="black" stroke-width="1"/><path d="M364 153,364 155,365 156,365 160,366 161,366 164,367 165,367 168,368 169,368 170,369 171,369 173,370 174,370 176,371 177,371 178,372 179,372 180,374 182,374 183,376 185,376 186,379 189,379 190,382 193,382 194,385 197,385 198,389 202,389 203,391 205,391 206,392 207,393 206,393 199,392 198,392 194,391 193,391 191,390 190,390 189,389 188,389 186,388 185,388 184,387 183,387 182,385 180,385 179,383 177,383 176,382 175,382 174,380 172,380 171,377 168,377 167,374 164,374 163,371 160,371 159,367 155,367 154,366 153,366 154,367 155,367 156,371 160,371 161,374 164,374 165,377 168,377 169,380 172,380 173,382 175,382 176,383 177,383 178,385 180,385 181,387 183,387 184,388 185,388 186,389 187,389 188,390 189,390 190,391 191,391 193,392 194,392 198,393 199,393 205,392 206,391 205,391 204,389 202,389 201,385 197,385 196,382 193,382 192,379 189,379 188,376 185,376 184,374 182,374 181,372 179,372 178,371 177,371 176,370 175,370 174,369 173,369 171,368 170,368 169,367 168,367 165,366 164,366 161,365 160,365 156,364 155,Z" fill="none" stroke="black" stroke-width="1"/><path d="M163 146,162 147,160 147,159 148,157 148,150 155,150 157,149 158,149 160,148 161,148 172,149 173,149 174,151 174,152 175,153 174,155 174,158 171,158 170,159 169,159 167,160 166,160 165,161 164,161 162,162 161,162 154,160 152,160 151,161 150,162 150,163 149,165 149,165 146,Z" fill="none" stroke="black" stroke-width="1"/><path d="M277 115,276 116,272 116,271 117,269 117,269 119,270 120,278 120,279 121,282 121,283 122,285 122,286 123,287 123,288 124,289 124,291 126,292 126,295 129,295 130,298 133,298 135,299 136,299 138,300 139,300 142,301 143,301 146,302 147,302 150,303 151,303 154,304 155,304 157,305 158,305 160,306 161,306 163,307 164,307 165,308 166,308 167,309 168,309 170,311 170,311 161,310 160,310 153,309 152,309 150,308 149,308 148,307 147,307 146,305 144,305 142,304 141,304 139,303 138,303 136,302 135,302 133,301 132,301 131,300 130,300 128,299 127,299 126,297 124,297 123,292 118,291 118,290 117,289 117,288 116,286 116,285 115,Z" fill="none" stroke="black" stroke-width="1"/><path d="M279 111,278 112,274 112,273 113,271 113,270 114,268 114,265 117,265 120,267 122,268 122,269 123,274 123,275 124,280 124,281 125,283 125,284 126,285 126,287 128,288 128,294 134,294 135,295 136,295 137,296 138,296 140,297 141,297 145,298 146,298 149,299 150,299 153,300 154,300 156,301 157,301 159,302 160,302 161,303 162,303 163,304 164,304 166,305 167,305 168,306 169,306 170,307 171,306 172,293 172,292 173,290 173,289 174,288 174,285 177,285 178,284 179,284 182,287 182,290 179,293 179,294 178,309 178,312 181,312 185,313 186,313 189,314 190,314 192,315 193,315 194,314 195,313 195,312 194,311 194,310 193,310 191,308 191,307 190,301 190,300 191,295 191,294 192,293 192,291 194,290 194,286 198,286 199,284 201,284 203,283 204,283 207,284 207,285 208,286 207,287 207,287 206,289 204,289 203,292 200,292 197,295 194,292 197,292 199,289 202,288 201,289 202,289 203,287 205,287 206,285 208,283 206,283 204,284 203,284 202,286 200,286 199,291 194,292 194,294 192,295 192,296 191,300 191,301 190,307 190,308 191,309 191,310 192,310 194,312 194,313 195,315 195,315 193,314 192,314 190,313 189,313 186,312 185,312 181,311 180,311 179,310 179,309 178,294 178,293 179,290 179,289 180,288 180,286 182,285 182,284 181,284 179,290 173,292 173,293 172,306 172,307 171,306 170,306 169,305 168,305 167,304 166,304 164,303 163,303 162,302 161,302 160,301 159,301 157,300 156,300 154,299 153,299 150,298 149,298 146,297 145,297 141,296 140,296 138,295 137,295 135,294 134,294 133,289 128,288 128,286 126,284 126,283 125,281 125,280 124,275 124,274 123,269 123,265 119,265 118,269 114,270 114,271 113,273 113,274 112,278 112,279 111,283 111,284 112,287 112,288 113,290 113,292 115,293 115,301 123,301 124,302 125,302 126,303 127,303 128,304 129,304 130,305 131,305 133,306 134,306 136,307 137,307 139,308 140,308 143,308 140,307 139,307 137,306 136,306 134,305 133,305 131,304 130,304 129,303 128,303 126,302 125,302 124,301 123,301 122,294 115,293 115,292 114,291 114,290 113,288 113,287 112,284 112,283 111,Z" fill="none" stroke="black" stroke-width="1"/><path d="M232 108,231 109,228 109,227 110,226 110,223 113,223 114,222 115,222 116,221 117,221 119,220 120,220 124,221 125,221 127,221 125,222 124,222 123,224 121,224 120,226 118,227 118,228 117,229 117,230 116,238 116,239 117,241 117,242 118,244 118,242 118,241 117,242 116,241 117,239 117,238 116,239 115,240 115,239 115,238 114,230 114,229 113,230 112,232 112,233 111,236 111,237 112,239 112,240 113,241 113,242 114,243 114,244 115,245 115,246 114,244 112,243 112,242 111,241 111,240 110,238 110,237 109,234 109,233 108,Z" fill="none" stroke="black" stroke-width="1"/><path d="M229 105,228 106,226 106,225 107,224 107,220 111,220 112,219 113,219 114,218 115,218 117,217 118,217 145,216 146,216 149,215 150,215 153,214 154,214 156,213 157,213 158,212 159,212 161,211 162,211 163,210 164,210 166,209 167,209 168,208 169,208 170,207 171,207 173,205 175,205 177,204 178,204 179,202 181,202 182,201 183,201 184,200 185,200 186,198 188,198 189,197 190,197 191,195 193,195 194,194 195,194 196,193 197,193 198,191 200,191 201,189 203,189 204,184 209,184 210,178 216,177 216,170 223,169 223,165 227,164 227,162 229,161 229,158 232,157 232,154 235,153 235,142 246,142 247,139 250,139 251,137 253,137 254,135 256,135 257,134 258,134 259,132 261,132 262,131 263,131 264,130 265,130 266,128 268,128 269,127 270,127 271,126 272,125 271,125 263,126 262,126 261,128 259,128 258,132 254,132 253,155 230,156 230,162 224,163 224,173 214,174 214,186 202,186 201,190 197,190 196,193 193,193 192,195 190,195 189,196 188,196 187,198 185,198 184,199 183,199 182,200 181,200 180,202 178,202 176,203 175,203 174,204 173,204 172,205 171,205 170,206 169,206 167,207 166,207 165,208 164,208 162,209 161,209 160,210 159,210 157,211 156,211 154,212 153,212 150,213 149,213 140,211 140,211 142,210 143,210 146,209 147,209 150,208 151,208 153,207 154,207 156,206 157,206 159,205 160,205 162,204 163,204 164,203 165,203 167,202 168,202 169,201 170,201 172,199 174,199 175,198 176,198 177,197 178,197 179,196 180,196 181,194 183,194 184,193 185,193 186,191 188,191 189,188 192,188 193,183 198,183 199,169 213,168 213,161 220,160 220,154 226,153 226,146 233,145 233,137 241,137 242,129 250,129 251,128 252,137 243,137 242,146 233,147 233,154 226,155 226,161 220,162 220,169 213,170 213,183 200,183 199,188 194,188 193,191 190,191 189,193 187,193 186,194 185,194 184,196 182,196 181,197 180,197 179,198 178,198 177,199 176,199 175,200 174,200 173,201 172,201 170,202 169,202 168,203 167,203 165,204 164,204 163,205 162,205 160,206 159,206 157,207 156,207 154,208 153,208 151,209 150,209 147,210 146,210 143,211 142,211 141,212 140,213 141,213 149,212 150,212 153,211 154,211 156,210 157,210 159,209 160,209 161,208 162,208 164,207 165,207 166,206 167,206 169,204 171,204 173,203 174,203 175,202 176,202 177,201 178,201 179,199 181,199 182,198 183,198 184,196 186,196 187,195 188,195 189,193 191,193 192,190 195,190 196,186 200,186 201,173 214,172 214,162 224,161 224,155 230,154 230,132 252,132 253,128 257,128 258,126 260,126 262,125 263,125 272,126 273,127 272,127 271,128 270,128 269,130 267,130 266,131 265,131 264,132 263,132 262,134 260,134 259,135 258,135 257,137 255,137 254,139 252,139 251,142 248,142 247,154 235,155 235,158 232,159 232,162 229,163 229,165 227,166 227,170 223,171 223,178 216,179 216,184 211,184 210,189 205,189 204,191 202,191 201,192 200,192 199,194 197,194 196,195 195,195 194,197 192,197 191,198 190,198 189,200 187,200 186,201 185,201 184,202 183,202 182,203 181,203 180,204 179,204 178,205 177,205 176,206 175,206 174,207 173,207 172,208 171,208 169,209 168,209 167,210 166,210 164,211 163,211 162,212 161,212 159,213 158,213 157,214 156,214 154,215 153,215 150,216 149,216 146,217 145,217 118,218 117,218 115,220 113,220 112,225 107,226 107,227 106,228 106,229 105,238 105,239 106,240 106,241 107,242 107,244 109,245 109,249 113,249 114,250 115,250 117,247 120,246 120,245 121,240 121,239 120,231 120,230 121,229 121,228 122,227 122,226 123,226 124,224 126,224 127,223 128,223 130,222 131,222 136,221 137,221 144,220 145,220 149,219 150,219 153,218 154,218 156,217 157,217 158,216 159,216 161,215 162,215 163,214 164,214 165,213 166,213 168,211 170,211 171,210 172,211 173,213 173,214 172,227 172,228 173,229 173,230 174,231 174,236 179,236 181,233 184,231 184,230 183,229 183,228 182,227 182,226 181,224 181,223 180,220 180,219 179,209 179,206 182,206 183,204 185,204 186,202 188,202 189,201 190,201 191,200 192,200 194,199 195,199 196,197 198,197 199,196 200,196 201,194 203,194 204,192 206,192 207,188 211,188 212,186 214,186 216,187 217,187 224,188 225,188 235,189 236,189 242,190 243,190 248,191 249,191 252,192 253,192 255,193 256,193 258,194 259,194 261,195 262,195 263,196 264,196 265,197 266,197 267,198 268,198 269,199 270,199 271,201 273,201 274,204 277,204 278,213 287,214 287,218 291,219 291,222 294,223 294,225 296,226 296,228 298,229 298,231 300,232 300,233 301,234 301,235 302,236 302,237 303,239 303,240 304,241 304,242 305,244 305,245 306,248 306,249 307,262 307,263 306,266 306,267 305,269 305,270 304,271 304,272 303,274 303,276 301,277 301,278 300,279 300,280 299,281 299,283 297,284 297,286 295,287 295,289 293,290 293,292 291,293 291,297 287,298 287,310 275,310 274,313 271,313 270,316 267,316 266,317 265,317 264,318 263,318 262,319 261,319 260,320 259,320 258,321 257,321 255,322 254,322 253,323 252,323 249,324 248,324 245,325 244,325 240,326 239,326 232,327 231,327 221,326 220,326 219,325 218,325 216,323 214,323 213,321 211,321 210,319 208,319 207,317 205,317 204,314 204,314 205,309 210,308 210,307 211,306 211,305 212,296 212,295 211,294 211,293 210,292 210,291 209,290 209,291 210,292 210,293 211,295 211,296 212,305 212,306 211,308 211,309 210,310 210,314 206,314 205,315 204,316 204,317 205,317 206,319 208,319 209,321 211,321 212,323 214,323 215,325 217,325 218,326 219,326 220,327 221,327 231,326 232,326 239,325 240,325 244,324 245,324 248,323 249,323 252,322 253,322 254,321 255,321 257,319 259,319 260,318 261,318 262,317 263,317 264,316 265,316 266,313 269,313 270,310 273,310 274,297 287,296 287,292 291,291 291,289 293,288 293,286 295,285 295,283 297,282 297,280 299,279 299,278 300,277 300,276 301,275 301,273 303,272 303,271 304,270 304,269 305,267 305,266 306,263 306,262 307,249 307,248 306,245 306,244 305,242 305,241 304,240 304,239 303,238 303,237 302,236 302,235 301,234 301,233 300,232 300,230 298,229 298,227 296,226 296,224 294,223 294,220 291,219 291,215 287,214 287,204 277,204 276,201 273,201 272,199 270,199 269,198 268,198 267,197 266,197 265,195 263,195 262,194 261,194 259,193 258,193 256,192 255,192 253,191 252,191 249,190 248,190 243,189 242,189 236,188 235,188 225,187 224,187 217,186 216,186 215,188 213,188 212,192 208,192 207,194 205,194 204,196 202,196 201,197 200,197 199,199 197,199 195,200 194,200 193,201 192,201 191,202 190,202 189,204 187,204 186,206 184,206 183,210 179,219 179,220 180,223 180,224 181,226 181,228 183,230 183,231 184,233 184,234 183,235 183,236 182,236 178,232 174,231 174,230 173,228 173,227 172,214 172,213 173,211 173,210 172,212 170,212 169,213 168,213 167,214 166,214 164,215 163,215 162,216 161,216 159,217 158,217 157,218 156,218 154,219 153,219 150,220 149,220 145,221 144,221 137,222 136,222 131,223 130,223 128,226 125,226 124,228 122,229 122,231 120,239 120,240 121,245 121,246 120,248 120,250 118,250 115,249 114,249 112,246 109,245 109,243 107,241 107,240 106,239 106,238 105,Z" fill="none" stroke="black" stroke-width="1"/><path d="M227 99,226 100,223 100,222 101,220 101,218 103,217 103,216 104,215 104,208 111,208 112,206 114,206 115,205 116,205 117,203 119,203 120,202 121,202 122,201 123,201 124,200 125,200 126,198 128,198 129,197 130,197 131,196 132,196 133,195 134,195 135,194 136,194 137,193 138,193 139,191 141,191 142,190 143,190 144,188 146,188 147,187 148,187 149,185 151,185 152,183 154,183 155,181 157,181 158,179 160,179 161,177 163,177 164,175 166,175 167,172 170,172 171,170 173,170 174,168 176,168 177,166 179,166 180,164 182,164 183,162 185,162 186,160 188,160 189,158 191,158 192,156 194,156 195,154 197,154 198,152 200,152 201,150 203,150 204,148 206,148 207,146 209,146 210,145 211,145 212,143 214,143 215,141 217,141 218,140 219,140 220,139 221,139 222,138 223,138 224,136 226,136 227,135 228,135 229,134 230,134 232,133 233,133 234,132 235,132 237,131 238,131 239,130 240,130 242,129 243,129 244,128 245,128 247,127 248,127 250,126 251,127 250,127 248,128 247,128 245,129 244,129 243,130 242,130 240,131 239,131 238,132 237,132 235,133 234,133 233,134 232,134 231,135 230,135 229,136 228,136 227,138 225,138 224,139 223,139 222,140 221,140 220,141 219,141 218,143 216,143 215,145 213,145 212,146 211,146 210,148 208,148 207,150 205,150 204,152 202,152 201,154 199,154 198,156 196,156 195,158 193,158 192,160 190,160 189,162 187,162 186,164 184,164 183,166 181,166 180,168 178,168 177,170 175,170 174,172 172,172 171,175 168,175 167,177 165,177 164,179 162,179 161,181 159,181 158,183 156,183 155,185 153,185 152,187 150,187 149,188 148,188 147,190 145,190 144,191 143,191 142,193 140,193 139,194 138,194 137,195 136,195 135,196 134,196 133,197 132,197 131,198 130,198 129,200 127,200 126,201 125,201 124,202 123,202 122,203 121,203 120,205 118,205 117,206 116,206 115,208 113,208 112,216 104,217 104,218 103,219 103,221 101,222 101,223 100,226 100,227 99,240 99,241 100,243 100,244 101,245 101,250 106,250 107,252 109,252 111,253 112,253 113,254 114,254 115,255 116,263 116,270 109,271 109,273 107,274 107,275 106,288 106,289 107,292 107,293 108,294 108,296 110,297 110,305 118,305 119,306 120,306 121,307 122,307 123,308 124,308 128,309 129,309 135,310 136,310 143,310 136,309 135,309 129,308 128,308 124,307 123,307 122,306 121,306 119,305 118,305 117,298 110,297 110,296 109,295 109,294 108,293 108,292 107,289 107,288 106,275 106,274 107,272 107,270 109,269 109,265 113,265 114,263 116,256 116,253 113,253 112,252 111,252 109,251 108,251 107,250 106,250 105,246 101,244 101,243 100,241 100,240 99,Z" fill="none" stroke="black" stroke-width="1"/><path d="M273 88,272 89,270 89,269 90,267 90,266 91,265 91,264 92,263 92,263 94,266 94,267 93,270 93,271 92,276 92,277 91,282 91,283 92,287 92,288 93,290 93,292 95,293 95,294 96,295 96,297 98,298 98,307 107,307 108,309 110,309 111,310 112,310 113,311 114,311 115,312 116,312 117,314 119,314 120,315 121,315 123,316 124,316 126,317 127,317 128,318 129,318 131,319 132,319 134,320 135,320 136,321 137,321 138,323 140,323 141,324 142,324 143,325 144,325 145,327 147,327 148,330 151,330 152,333 155,333 156,337 160,337 161,342 166,342 167,349 174,349 175,356 182,356 183,361 188,361 189,365 193,365 194,368 197,368 198,370 200,370 201,372 203,372 204,373 205,373 206,374 207,374 208,376 210,376 212,377 213,377 215,378 216,378 218,379 219,379 222,380 223,380 227,381 228,381 234,382 235,382 242,383 243,383 249,384 250,384 254,385 255,385 257,386 258,386 261,387 262,387 264,388 265,388 267,389 268,389 270,390 271,390 273,391 274,391 275,392 276,392 279,391 280,391 287,392 288,392 290,393 291,393 293,394 294,394 295,395 296,395 297,397 299,397 300,398 301,398 302,399 303,399 304,400 305,400 306,401 307,401 308,402 309,402 311,403 312,403 313,404 314,404 318,405 319,405 324,404 325,403 324,403 321,402 320,402 318,401 317,401 315,400 314,400 312,399 311,399 310,398 309,398 308,395 305,392 305,392 308,394 310,394 311,395 312,395 313,397 315,397 316,398 317,398 318,399 319,399 321,400 322,400 326,401 327,401 332,400 333,400 336,398 338,398 339,393 344,392 344,389 347,388 347,386 349,385 349,383 351,382 351,375 358,375 359,374 360,374 361,373 362,373 363,372 364,372 365,370 367,370 368,369 369,369 370,367 372,367 373,366 374,366 376,366 375,367 374,367 373,369 371,369 370,370 369,370 368,372 366,372 365,373 364,373 363,374 362,374 361,375 360,375 359,383 351,384 351,386 349,387 349,389 347,390 347,393 344,394 344,398 340,398 339,399 338,399 337,400 336,400 333,401 332,401 327,400 326,400 322,399 321,399 319,398 318,398 317,397 316,397 314,395 312,395 311,394 310,394 309,392 307,392 306,393 305,394 305,398 309,398 310,399 311,399 312,400 313,400 314,401 315,401 317,402 318,402 320,403 321,403 325,405 325,405 319,404 318,404 314,403 313,403 312,402 311,402 309,401 308,401 307,400 306,400 304,399 303,399 302,398 301,398 300,397 299,397 298,395 296,395 295,394 294,394 293,393 292,393 291,392 290,392 288,391 287,391 280,392 279,392 275,390 273,390 271,389 270,389 268,388 267,388 265,387 264,387 262,386 261,386 258,385 257,385 255,384 254,384 250,383 249,383 243,382 242,382 235,381 234,381 228,380 227,380 223,379 222,379 219,378 218,378 216,377 215,377 213,376 212,376 210,375 209,375 208,374 207,374 206,373 205,373 204,372 203,372 202,370 200,370 199,368 197,368 196,365 193,365 192,361 188,361 187,356 182,356 181,349 174,349 173,342 166,342 165,337 160,337 159,333 155,333 154,330 151,330 150,327 147,327 146,325 144,325 143,324 142,324 141,322 139,322 138,321 137,321 136,320 135,320 134,319 133,319 132,318 131,318 129,317 128,317 127,316 126,316 124,315 123,315 121,314 120,314 119,313 118,313 117,312 116,312 115,311 114,311 113,310 112,310 111,309 110,309 109,307 107,307 106,299 98,298 98,296 96,295 96,294 95,293 95,292 94,291 94,290 93,288 93,287 92,283 92,282 91,277 91,276 92,271 92,270 93,267 93,266 94,264 94,263 93,264 92,265 92,266 91,267 91,268 90,269 90,270 89,272 89,273 88,286 88,287 89,290 89,291 90,292 90,293 91,294 91,296 93,297 93,299 95,300 95,310 105,310 106,312 108,312 109,314 111,314 112,315 113,315 114,316 115,316 116,317 117,317 118,318 119,318 120,319 121,319 123,320 124,320 126,321 127,321 128,322 129,322 131,323 132,323 134,324 135,324 136,326 138,326 139,327 140,327 141,329 143,329 144,331 146,331 147,334 150,334 151,337 154,337 155,342 160,342 161,348 167,348 168,355 175,355 176,361 182,361 183,365 187,365 188,368 191,368 192,371 195,371 196,373 198,373 199,375 201,375 202,376 203,376 204,377 205,377 206,379 208,379 209,380 210,380 212,381 213,381 215,382 216,382 218,383 219,383 223,384 224,384 229,385 230,385 240,386 241,386 246,386 241,385 240,385 230,384 229,384 224,383 223,383 219,382 218,382 216,381 215,381 213,380 212,380 210,379 209,379 208,378 207,378 206,377 205,377 204,376 203,376 202,375 201,375 200,373 198,373 197,371 195,371 194,368 191,368 190,365 187,365 186,361 182,361 181,355 175,355 174,348 167,348 166,342 160,342 159,337 154,337 153,334 150,334 149,331 146,331 145,329 143,329 142,327 140,327 139,326 138,326 137,324 135,324 134,323 133,323 132,322 131,322 129,321 128,321 127,320 126,320 124,319 123,319 121,318 120,318 119,317 118,317 117,316 116,316 114,315 113,315 112,314 111,314 110,312 108,312 107,310 105,310 104,301 95,300 95,298 93,297 93,295 91,294 91,293 90,291 90,290 89,287 89,286 88,Z" fill="none" stroke="black" stroke-width="1"/><path d="M228 87,227 88,227 91,232 91,232 88,231 87,Z" fill="none" stroke="black" stroke-width="1"/><path d="M331 81,331 83,334 86,335 86,338 89,340 89,340 87,339 87,335 83,340 88,339 89,338 89,333 84,333 82,332 81,Z" fill="none" stroke="black" stroke-width="1"/><path d="M277 68,276 69,272 69,271 70,269 70,268 71,266 71,265 72,264 72,263 73,262 73,260 75,259 75,250 84,249 84,249 88,251 90,255 90,256 89,257 89,258 88,258 87,269 76,270 76,271 75,272 75,273 74,274 74,275 73,277 73,278 72,282 72,283 71,291 71,292 72,296 72,292 72,291 71,283 71,282 72,278 72,277 73,275 73,274 74,272 74,271 75,270 75,269 76,268 76,258 86,258 87,256 89,255 89,254 90,252 90,249 87,249 85,250 84,251 84,260 75,261 75,263 73,264 73,266 71,268 71,269 70,271 70,272 69,276 69,277 68,286 68,287 69,292 69,293 70,296 70,293 70,292 69,287 69,286 68,Z" fill="none" stroke="black" stroke-width="1"/><path d="M248 65,247 66,246 66,246 67,245 68,246 69,246 70,249 70,250 69,250 68,251 67,251 66,250 66,249 65,Z" fill="none" stroke="black" stroke-width="1"/><path d="M224 57,223 58,219 58,218 59,216 59,215 60,214 60,213 61,211 61,210 62,209 62,207 64,206 64,203 67,202 67,185 84,185 85,180 90,180 91,177 94,177 95,174 98,174 99,172 101,172 102,170 104,170 105,168 107,168 108,167 109,167 110,165 112,165 113,164 114,164 115,163 116,163 117,162 118,162 119,160 121,160 122,158 124,158 125,157 126,157 127,155 129,155 130,154 131,154 132,153 133,153 135,152 136,152 137,151 138,151 139,150 140,150 142,149 143,149 145,148 146,148 148,147 149,147 151,146 152,146 155,145 156,145 162,144 163,144 189,143 190,143 193,142 194,142 196,141 197,141 199,140 200,140 201,139 202,139 203,137 205,137 206,136 207,136 208,134 210,134 211,130 215,130 216,123 223,123 224,118 229,118 230,115 233,115 234,112 237,112 238,111 239,111 240,109 242,109 243,108 244,108 246,107 247,107 249,106 250,106 252,105 253,105 264,106 265,106 267,107 268,107 269,108 270,108 271,110 271,116 265,117 265,120 262,120 261,121 260,121 259,122 258,122 255,123 254,123 250,124 249,124 246,125 245,125 242,126 241,126 240,127 239,127 237,128 236,128 235,129 234,129 233,130 232,130 231,131 230,131 229,132 228,132 227,133 226,133 225,134 224,134 223,135 222,135 221,136 220,136 219,138 217,138 216,139 215,139 214,141 212,141 211,143 209,143 208,144 207,144 206,146 204,146 203,148 201,148 200,150 198,150 197,152 195,152 194,154 192,154 191,156 189,156 188,158 186,158 185,160 183,160 182,163 179,163 178,165 176,165 175,167 173,167 172,169 170,169 169,171 167,171 166,173 164,173 163,175 161,175 160,177 158,177 157,179 155,179 154,181 152,181 151,183 149,183 148,185 146,185 145,186 144,186 143,188 141,188 140,190 138,190 137,191 136,191 135,192 134,192 133,193 132,193 131,194 130,194 129,195 128,195 127,196 126,196 125,197 124,197 123,198 122,198 121,200 119,200 118,201 117,201 116,203 114,203 113,204 112,204 111,214 101,215 101,217 99,218 99,219 98,220 98,221 97,223 97,224 96,227 96,228 95,238 95,239 96,243 96,244 97,245 97,246 98,247 98,253 104,253 105,255 107,255 108,257 108,258 107,258 106,259 105,259 104,261 102,261 101,263 99,264 99,266 97,267 97,268 96,271 96,272 95,274 95,275 96,272 99,270 99,269 100,268 100,266 102,265 102,262 105,262 106,260 108,260 109,259 110,259 112,263 112,264 111,264 110,266 108,267 108,271 104,272 104,273 103,276 103,277 102,288 102,289 103,292 103,293 104,294 104,295 105,296 105,297 106,298 106,300 108,301 108,306 113,306 114,308 116,308 117,309 118,309 119,310 120,310 121,311 122,311 125,312 126,312 130,313 131,313 141,314 142,314 152,315 153,315 155,316 156,316 158,317 159,317 160,318 161,318 162,320 164,320 165,321 166,321 167,323 169,323 170,324 171,324 172,326 174,326 175,328 177,328 178,329 179,329 180,331 182,331 183,333 185,333 186,335 188,335 189,337 191,337 192,339 194,339 195,342 198,342 199,345 202,345 203,348 206,348 207,351 210,351 211,354 214,354 215,357 218,357 219,360 222,360 223,362 225,362 226,364 228,364 229,365 230,365 231,366 232,366 233,368 235,368 236,369 237,369 238,370 239,370 241,371 242,371 243,372 244,372 246,373 247,373 249,374 250,374 253,375 254,375 263,377 265,377 266,378 267,378 268,379 269,379 270,380 271,380 273,381 274,381 282,380 283,380 286,379 287,379 289,378 290,378 291,377 292,377 293,376 294,376 295,374 297,374 298,372 300,372 301,371 302,371 306,374 306,375 307,376 307,379 310,379 312,380 313,379 314,378 314,377 313,377 312,376 312,375 311,375 312,376 312,378 314,379 314,380 313,379 312,379 309,377 307,376 307,375 306,372 306,371 305,371 303,372 302,372 301,374 299,374 298,376 296,376 295,377 294,377 292,378 291,378 290,379 289,379 287,380 286,380 283,381 282,381 274,380 273,380 271,379 270,379 268,378 267,378 266,377 265,377 264,375 262,375 254,374 253,374 250,373 249,373 247,372 246,372 244,371 243,371 242,370 241,370 239,369 238,369 236,368 235,368 234,366 232,366 231,365 230,365 229,364 228,364 227,362 225,362 224,360 222,360 221,357 218,357 217,354 214,354 213,351 210,351 209,348 206,348 205,345 202,345 201,342 198,342 197,339 194,339 193,337 191,337 190,335 188,335 187,333 185,333 184,331 182,331 181,329 179,329 178,328 177,328 176,326 174,326 173,324 171,324 170,323 169,323 168,321 166,321 165,320 164,320 163,318 161,318 160,317 159,317 158,316 157,316 156,315 155,315 153,314 152,314 142,313 141,313 131,312 130,312 126,311 125,311 122,310 121,310 120,309 119,309 117,308 116,308 115,306 113,306 112,302 108,301 108,299 106,298 106,297 105,296 105,295 104,293 104,292 103,289 103,288 102,277 102,276 103,273 103,272 104,270 104,266 108,265 108,264 109,264 110,262 112,260 112,259 111,259 110,262 107,262 106,266 102,267 102,269 100,270 100,271 99,272 99,273 98,274 98,275 97,275 95,272 95,271 96,268 96,267 97,265 97,263 99,262 99,261 100,261 101,259 103,259 104,258 105,258 106,256 108,255 107,255 106,253 104,253 103,248 98,247 98,246 97,244 97,243 96,239 96,238 95,228 95,227 96,224 96,223 97,221 97,220 98,218 98,217 99,216 99,214 101,213 101,204 110,204 111,203 112,203 113,201 115,201 116,200 117,200 118,198 120,198 121,197 122,197 123,196 124,196 125,195 126,195 127,194 128,194 129,193 130,193 131,192 132,192 133,191 134,191 135,190 136,190 137,188 139,188 140,186 142,186 143,185 144,185 145,183 147,183 148,181 150,181 151,179 153,179 154,177 156,177 157,175 159,175 160,173 162,173 163,171 165,171 166,169 168,169 169,167 171,167 172,165 174,165 175,163 177,163 178,160 181,160 182,158 184,158 185,156 187,156 188,154 190,154 191,152 193,152 194,150 196,150 197,148 199,148 200,146 202,146 203,144 205,144 206,143 207,143 208,141 210,141 211,139 213,139 214,138 215,138 216,136 218,136 219,135 220,135 221,134 222,134 223,133 224,133 225,132 226,132 227,131 228,131 229,130 230,130 232,129 233,129 234,128 235,128 236,127 237,127 239,126 240,126 241,125 242,125 245,124 246,124 249,123 250,123 254,122 255,122 258,120 260,120 261,116 265,115 265,109 271,107 269,107 267,106 266,106 265,105 264,105 253,106 252,106 250,107 249,107 247,108 246,108 245,109 244,109 243,111 241,111 240,112 239,112 238,115 235,115 234,118 231,118 230,123 225,123 224,130 217,130 216,134 212,134 211,136 209,136 208,137 207,137 206,139 204,139 203,140 202,140 200,141 199,141 197,142 196,142 194,143 193,143 190,144 189,144 163,145 162,145 156,146 155,146 152,147 151,147 149,148 148,148 146,149 145,149 143,150 142,150 140,151 139,151 138,152 137,152 136,153 135,153 134,154 133,154 132,155 131,155 130,157 128,157 127,158 126,158 125,160 123,160 122,162 120,162 119,163 118,163 117,164 116,164 115,165 114,165 113,167 111,167 110,168 109,168 108,170 106,170 105,172 103,172 102,174 100,174 99,177 96,177 95,180 92,180 91,184 87,184 86,189 81,189 80,199 70,200 70,205 65,206 65,208 63,209 63,210 62,211 62,212 61,213 61,214 60,215 60,216 59,218 59,219 58,223 58,224 57,229 57,230 58,234 58,235 59,234 60,221 60,220 61,218 61,217 62,215 62,214 63,213 63,212 64,211 64,210 65,209 65,207 67,206 67,201 72,200 72,191 81,191 82,186 87,186 88,184 90,184 91,182 93,182 94,180 96,180 97,178 99,178 100,176 102,176 103,175 104,175 105,174 106,174 107,172 109,172 114,174 114,176 112,176 111,178 109,178 108,179 107,179 106,181 104,181 103,182 102,182 101,184 99,184 98,186 96,186 95,188 93,188 92,191 89,191 88,196 83,196 82,205 73,206 73,209 70,210 70,212 68,213 68,215 66,216 66,217 65,220 65,221 64,234 64,235 65,237 65,238 66,240 66,241 67,241 68,242 69,242 71,244 73,246 73,247 74,249 74,250 73,251 73,253 71,253 69,254 68,254 67,258 63,259 63,260 62,261 62,262 61,263 61,264 60,265 60,266 59,269 59,270 58,273 58,274 57,289 57,290 58,289 59,281 59,281 61,282 61,283 62,288 62,289 63,292 63,293 64,295 64,296 65,298 65,300 67,299 68,298 68,297 67,295 67,294 66,292 66,291 65,287 65,286 64,277 64,276 65,272 65,271 66,269 66,268 67,267 67,266 68,264 68,263 69,262 69,261 70,260 70,258 72,257 72,255 74,255 75,251 79,250 79,248 81,243 76,242 76,241 75,239 75,238 74,237 74,236 73,220 73,219 74,216 74,215 75,214 75,213 76,211 76,210 77,209 77,208 78,207 78,205 80,204 80,195 89,195 90,192 93,192 94,190 96,190 97,188 99,188 100,187 101,187 102,186 103,186 104,184 106,184 107,183 108,183 109,182 110,182 111,181 112,181 113,179 115,179 116,178 117,178 118,176 120,176 121,172 125,172 126,168 130,168 131,166 133,166 134,165 135,165 141,166 142,174 142,175 141,176 141,177 140,178 140,179 139,180 139,189 130,189 129,191 127,191 126,193 124,193 123,194 122,194 121,195 120,195 119,197 117,197 116,198 115,198 114,199 113,199 112,201 110,201 109,202 108,202 107,203 106,203 105,205 103,205 102,208 99,208 98,216 90,217 90,219 88,220 88,221 87,222 87,223 86,225 86,226 85,233 85,236 88,237 88,237 87,238 86,238 85,237 84,237 83,236 82,235 82,234 81,225 81,224 82,222 82,221 83,220 83,219 84,218 84,217 85,216 85,213 88,212 88,204 96,204 97,202 99,202 100,200 102,200 103,199 104,199 105,197 107,197 108,196 109,196 110,194 112,194 113,193 114,193 115,192 116,192 117,191 118,191 119,189 121,189 122,188 123,188 124,184 128,184 129,178 135,177 135,175 137,174 137,173 138,172 138,171 139,170 139,168 137,171 134,171 133,175 129,175 128,179 124,179 123,181 121,181 120,182 119,182 118,184 116,184 115,185 114,185 113,186 112,186 111,187 110,187 109,189 107,189 106,190 105,190 104,192 102,192 101,194 99,194 98,196 96,196 95,199 92,199 91,207 83,208 83,210 81,211 81,212 80,213 80,214 79,215 79,216 78,218 78,219 77,224 77,225 76,232 76,233 77,236 77,237 78,238 78,240 80,241 80,243 82,243 83,245 85,245 86,246 87,246 88,247 89,247 90,250 93,252 93,253 94,254 94,255 93,258 93,263 88,263 87,270 80,271 80,273 78,274 78,275 77,276 77,277 76,279 76,280 75,303 75,305 77,306 77,307 78,308 78,310 80,311 80,313 82,314 82,316 84,317 84,327 94,327 95,329 97,329 98,331 100,331 101,333 103,333 104,334 105,334 106,335 107,335 108,336 109,336 110,337 111,337 112,338 113,338 114,340 116,340 117,341 118,341 119,342 120,342 121,343 122,343 123,345 125,345 126,347 128,347 129,349 131,349 132,350 133,350 134,353 137,353 138,355 140,355 141,357 143,357 144,360 147,360 154,361 155,361 159,362 160,362 163,363 164,363 167,364 168,364 170,365 171,365 173,366 174,366 175,367 176,367 178,368 179,368 180,369 181,369 182,371 184,371 185,373 187,373 188,375 190,375 191,379 195,379 196,382 199,382 200,385 203,385 204,387 206,387 207,390 210,390 211,391 212,391 213,393 215,393 218,392 219,392 223,391 224,391 228,390 229,390 233,389 234,389 238,388 239,388 245,388 239,389 238,389 234,390 233,390 229,391 228,391 224,392 223,392 219,393 218,393 215,392 214,392 213,391 212,391 211,390 210,390 209,387 206,387 205,385 203,385 202,382 199,382 198,379 195,379 194,375 190,375 189,373 187,373 186,371 184,371 183,369 181,369 180,368 179,368 178,367 177,367 176,366 175,366 174,365 173,365 171,364 170,364 168,363 167,363 164,362 163,362 160,361 159,361 155,360 154,360 146,357 143,357 142,355 140,355 139,353 137,353 136,350 133,350 132,349 131,349 130,347 128,347 127,345 125,345 124,343 122,343 121,342 120,342 119,341 118,341 117,340 116,340 115,338 113,338 112,337 111,337 110,336 109,336 108,335 107,335 106,334 105,334 104,333 103,333 102,331 100,331 99,329 97,329 96,327 94,327 93,318 84,317 84,315 82,314 82,312 80,311 80,309 78,308 78,307 77,306 77,304 75,280 75,279 76,277 76,276 77,275 77,274 78,272 78,270 80,269 80,263 86,263 87,257 93,255 93,254 94,253 94,252 93,251 93,247 89,247 88,245 86,245 84,243 82,243 81,242 80,241 80,239 78,237 78,236 77,233 77,232 76,225 76,224 77,219 77,218 78,216 78,215 79,213 79,212 80,211 80,210 81,209 81,207 83,206 83,199 90,199 91,196 94,196 95,194 97,194 98,192 100,192 101,190 103,190 104,189 105,189 106,187 108,187 109,186 110,186 111,185 112,185 113,184 114,184 115,182 117,182 118,181 119,181 120,179 122,179 123,175 127,175 128,171 132,171 133,168 136,168 138,169 138,170 139,171 139,172 138,174 138,175 137,176 137,178 135,179 135,184 130,184 129,188 125,188 124,189 123,189 122,191 120,191 119,192 118,192 117,193 116,193 115,194 114,194 113,196 111,196 110,197 109,197 108,199 106,199 105,200 104,200 103,202 101,202 100,204 98,204 97,213 88,214 88,217 85,218 85,219 84,220 84,221 83,222 83,223 82,224 82,225 81,234 81,238 85,238 86,236 88,234 86,234 85,226 85,225 86,223 86,222 87,220 87,219 88,218 88,216 90,215 90,208 97,208 98,205 101,205 102,203 104,203 105,202 106,202 107,201 108,201 109,199 111,199 112,198 113,198 114,197 115,197 116,195 118,195 119,194 120,194 121,193 122,193 123,191 125,191 126,189 128,189 129,179 139,178 139,177 140,176 140,174 142,167 142,165 140,165 136,166 135,166 134,168 132,168 131,172 127,172 126,176 122,176 121,178 119,178 118,179 117,179 116,181 114,181 113,182 112,182 111,183 110,183 109,184 108,184 107,186 105,186 104,187 103,187 102,188 101,188 100,190 98,190 97,192 95,192 94,195 91,195 90,205 80,206 80,208 78,209 78,210 77,211 77,212 76,213 76,214 75,215 75,216 74,219 74,220 73,236 73,237 74,238 74,239 75,240 75,241 76,242 76,246 80,247 80,248 81,249 81,251 79,252 79,255 76,255 75,258 72,259 72,261 70,262 70,264 68,266 68,267 67,268 67,269 66,271 66,272 65,276 65,277 64,286 64,287 65,291 65,292 66,294 66,295 67,297 67,299 69,300 69,301 70,302 70,304 72,305 72,306 73,307 73,309 75,310 75,312 77,313 77,315 79,316 79,318 81,319 81,330 92,330 93,333 96,333 97,335 99,335 100,336 101,336 102,337 103,337 104,338 105,338 106,340 108,340 109,341 110,341 111,342 112,342 113,343 114,343 115,344 116,344 117,345 118,345 119,347 121,347 122,348 123,348 124,350 126,350 127,352 129,352 130,353 131,353 132,355 134,355 135,356 136,356 137,358 137,358 134,357 133,357 131,356 130,356 128,355 127,355 126,354 125,354 124,353 123,353 121,352 120,352 119,351 118,351 117,350 116,350 115,349 114,349 113,348 112,348 111,346 109,346 108,345 107,345 106,343 104,343 103,341 101,341 100,339 98,339 97,335 93,335 92,321 78,320 78,318 76,317 76,315 74,314 74,313 73,312 73,311 72,310 72,309 71,308 71,306 69,305 69,304 68,303 68,302 67,300 67,298 65,296 65,295 64,293 64,292 63,289 63,288 62,283 62,281 60,282 59,289 59,290 60,293 60,294 61,296 61,297 62,298 62,299 63,300 63,301 64,302 64,303 65,304 65,306 67,307 67,308 68,309 68,310 69,311 69,312 70,311 69,312 68,310 66,309 66,308 65,307 65,305 63,304 63,303 62,302 62,301 61,300 61,299 60,297 60,296 59,294 59,293 58,290 58,289 57,274 57,273 58,270 58,269 59,266 59,265 60,264 60,263 61,261 61,260 62,259 62,258 63,257 63,254 66,254 68,253 69,253 70,249 74,247 74,246 73,245 73,242 70,242 69,241 68,241 66,238 66,237 65,235 65,234 64,221 64,220 65,217 65,216 66,215 66,214 67,213 67,212 68,211 68,209 70,208 70,205 73,204 73,196 81,196 82,191 87,191 88,188 91,188 92,186 94,186 95,184 97,184 98,182 100,182 101,181 102,181 103,179 105,179 106,178 107,178 108,176 110,176 111,173 114,172 113,172 110,174 108,174 107,175 106,175 105,176 104,176 103,178 101,178 100,180 98,180 97,182 95,182 94,184 92,184 91,186 89,186 88,190 84,190 83,204 69,205 69,208 66,209 66,210 65,211 65,213 63,214 63,215 62,217 62,218 61,220 61,221 60,234 60,235 61,237 61,239 63,242 63,242 61,241 61,240 60,238 60,237 59,235 59,234 58,230 58,229 57,Z" fill="none" stroke="black" stroke-width="1"/><path d="M274 53,273 54,269 54,268 55,266 55,265 56,263 56,262 57,260 57,258 59,257 59,256 60,255 60,254 61,253 61,252 62,247 62,243 58,242 58,240 56,238 56,237 55,235 55,234 54,219 54,218 55,216 55,215 56,213 56,212 57,211 57,210 58,209 58,208 59,207 59,205 61,204 61,201 64,200 64,195 69,194 69,186 77,186 78,180 84,180 85,176 89,176 90,174 92,174 93,171 96,171 97,169 99,169 100,167 102,167 103,165 105,165 106,163 108,163 109,162 110,162 111,161 112,161 113,159 115,159 116,158 117,158 118,156 120,156 121,155 122,155 123,153 125,153 126,152 127,152 128,151 129,151 130,150 131,150 132,149 133,149 134,148 135,148 137,147 138,147 139,146 140,146 142,145 143,145 145,144 146,144 148,143 149,143 152,142 153,142 157,141 158,141 179,140 180,140 189,139 190,139 193,138 194,138 196,137 197,137 199,135 201,135 202,134 203,134 204,132 206,132 207,129 210,129 211,124 216,124 217,117 224,117 225,113 229,113 230,110 233,110 234,108 236,108 237,107 238,107 239,106 240,106 241,105 242,105 243,104 244,104 245,103 246,103 248,102 249,102 252,101 253,101 264,102 265,102 267,103 268,103 270,104 271,104 272,105 273,105 275,102 278,102 279,100 281,100 282,99 283,99 284,98 285,98 286,97 287,97 288,96 289,96 291,95 292,95 294,94 295,94 298,93 299,93 316,94 317,94 320,95 321,95 324,96 325,96 326,97 327,97 329,98 330,98 331,99 332,99 333,100 334,100 335,101 336,101 337,103 339,103 340,106 343,106 344,117 355,118 355,120 357,121 357,124 360,125 360,126 361,124 363,122 363,121 364,120 364,118 366,117 366,116 367,115 367,114 368,113 368,111 370,110 370,107 373,106 373,96 383,96 384,93 387,93 388,92 389,92 390,90 392,90 393,89 394,89 395,88 396,88 397,87 398,87 399,86 400,86 401,85 402,85 404,84 405,84 406,83 407,83 408,82 409,82 411,81 412,81 414,80 415,80 416,79 417,79 420,78 421,78 423,77 424,77 426,76 427,76 430,75 431,75 434,74 435,74 440,73 441,73 448,72 449,72 465,73 466,73 468,74 468,75 469,79 469,80 468,80 467,81 466,81 464,82 463,82 459,83 458,83 453,84 452,84 447,85 446,85 442,86 441,86 437,87 436,87 433,88 432,88 430,89 429,89 426,90 425,90 423,91 422,91 420,92 419,92 417,93 416,93 415,94 414,94 413,95 412,95 411,96 410,96 409,97 408,97 407,99 405,99 404,101 402,101 401,113 389,114 389,116 387,117 387,118 386,119 386,120 385,121 385,122 384,123 384,124 383,126 383,127 382,128 382,129 381,131 381,132 380,134 380,135 379,137 379,138 378,140 378,141 377,142 377,143 378,143 381,142 382,142 385,141 386,141 389,140 390,140 402,141 403,141 406,142 407,142 409,143 410,143 411,144 412,144 413,148 417,150 417,151 418,159 418,160 417,162 417,164 415,165 415,169 411,169 410,171 408,171 407,175 403,177 403,179 401,180 401,182 399,182 398,184 396,184 395,185 394,185 393,186 392,186 390,187 389,187 386,188 385,188 374,190 372,190 371,191 370,191 369,192 368,192 366,193 365,193 352,194 351,195 352,195 353,196 354,196 356,197 357,197 358,198 359,198 360,199 361,199 363,200 364,200 366,201 367,201 368,202 369,202 371,203 372,203 373,204 374,204 375,205 376,205 377,206 378,206 379,207 380,207 382,208 383,208 384,209 385,209 386,210 387,210 389,211 390,211 391,212 392,212 393,213 394,213 395,214 396,214 397,215 398,215 400,216 401,216 402,217 403,217 404,218 405,218 406,219 407,219 409,220 410,220 411,221 412,221 413,222 414,222 415,223 416,223 418,224 419,224 420,225 421,225 422,226 423,226 425,227 426,227 427,228 428,228 429,229 430,229 431,230 432,230 433,231 434,231 435,233 437,233 438,236 441,238 441,239 442,242 442,243 441,244 441,244 439,245 438,245 435,244 434,244 431,243 430,243 429,242 428,242 427,241 426,241 424,240 423,240 422,239 421,239 420,238 419,238 418,237 417,237 416,236 415,236 414,235 413,235 412,234 411,234 410,232 408,232 407,231 406,231 405,230 404,230 403,229 402,229 401,228 400,228 399,227 398,227 397,226 396,226 395,225 394,225 393,224 392,224 391,223 390,223 389,222 388,222 387,221 386,221 385,220 384,220 383,219 382,219 381,218 380,218 379,217 378,217 377,216 376,216 375,215 374,215 373,214 372,214 371,213 370,213 369,212 368,212 367,211 366,211 365,209 363,209 362,208 361,208 360,207 359,207 358,205 356,205 355,204 354,204 353,203 352,203 351,202 350,202 349,201 348,201 347,200 346,200 345,198 343,198 342,196 340,196 339,199 336,199 335,201 333,201 332,202 331,202 330,203 329,203 327,204 326,204 325,205 324,205 322,206 321,206 319,207 318,207 315,208 314,208 308,209 307,209 298,210 297,212 299,212 300,217 305,218 305,224 311,225 311,227 313,228 313,229 314,230 314,231 315,232 315,233 316,234 316,235 317,236 317,237 318,239 318,240 319,243 319,244 320,249 320,250 321,255 321,256 320,261 320,262 319,265 319,266 318,267 318,268 317,270 317,271 316,272 316,273 315,274 315,276 313,277 313,279 311,280 311,282 309,283 309,286 306,287 306,291 302,292 302,299 295,299 293,298 293,297 292,298 291,299 291,302 288,302 287,304 285,305 286,305 287,304 288,304 289,303 290,303 291,302 292,302 295,301 296,301 300,300 301,300 313,301 314,301 318,302 319,302 322,303 323,303 325,304 326,302 328,302 329,299 332,299 333,298 334,298 336,297 337,297 338,296 339,296 353,297 354,297 356,298 357,298 358,300 360,300 361,305 366,305 370,304 371,304 376,303 377,303 397,304 398,304 401,305 402,305 405,306 406,306 407,307 408,307 410,308 411,308 412,309 413,309 414,311 416,311 417,316 422,317 422,318 423,319 423,320 424,321 424,322 425,325 425,326 426,332 426,333 425,334 425,336 427,336 428,338 430,338 431,343 436,343 437,348 442,350 442,350 439,347 436,347 435,345 433,345 432,343 430,343 429,341 427,341 426,339 424,341 422,342 422,346 418,347 418,348 419,348 420,349 421,346 424,346 428,347 429,347 430,348 431,348 432,350 434,351 434,352 435,356 435,357 434,357 433,358 432,358 429,357 428,357 426,356 425,356 424,355 423,355 422,353 420,353 419,351 417,351 416,350 415,350 414,353 411,353 410,355 408,355 407,357 405,357 404,358 403,358 401,359 400,359 397,360 396,361 397,361 404,362 405,362 407,363 408,363 409,364 410,364 411,370 417,371 417,372 418,374 418,375 419,384 419,385 418,387 418,389 416,389 415,390 414,390 410,386 406,385 406,384 405,382 405,381 404,377 404,376 403,373 403,372 402,371 402,369 400,369 399,367 397,367 395,368 394,368 393,369 392,369 391,372 388,372 387,376 383,376 382,379 379,379 378,381 376,381 374,382 373,382 371,383 370,383 367,386 364,388 366,390 366,391 367,392 367,393 368,394 368,395 369,396 369,397 370,399 370,400 371,401 371,402 372,403 372,404 373,406 373,407 374,408 374,409 375,410 375,411 376,412 376,413 377,414 377,415 378,416 378,418 380,419 380,420 381,421 381,422 382,424 382,425 383,426 383,428 385,429 385,435 391,435 392,438 395,438 396,439 397,439 398,440 399,440 400,441 401,441 402,442 403,442 404,443 405,443 406,444 407,444 409,445 410,445 412,446 413,446 415,447 416,447 419,448 420,448 424,449 425,449 429,450 430,450 433,451 434,451 439,452 440,452 444,453 445,453 451,454 452,454 457,455 458,455 461,456 462,456 463,457 464,459 464,459 463,460 462,459 461,459 456,458 455,458 451,457 450,457 445,456 444,456 440,455 439,455 434,454 433,454 429,453 428,453 424,452 423,452 420,451 419,451 416,450 415,450 412,449 411,449 409,448 408,448 406,447 405,447 404,446 403,446 401,445 400,445 398,444 397,444 396,442 394,442 393,441 392,441 391,439 389,439 388,437 386,437 385,434 382,434 381,425 372,424 372,421 369,420 369,417 366,416 366,415 365,414 365,413 364,412 364,411 363,410 363,409 362,407 362,406 361,405 361,404 360,403 360,402 359,400 359,399 358,398 358,397 357,396 357,395 356,395 355,397 353,397 352,399 350,399 349,404 344,405 344,406 343,407 343,409 341,410 341,415 336,415 335,416 334,416 332,417 331,417 330,418 329,418 326,419 325,419 317,418 316,418 312,417 311,417 309,416 308,416 306,415 305,415 304,413 302,413 301,412 300,412 299,410 297,410 296,408 294,408 293,406 291,406 290,403 287,403 286,401 284,401 283,399 281,399 280,397 278,397 276,398 275,398 274,399 273,399 272,400 271,400 270,401 269,401 268,402 267,402 266,403 265,403 263,404 262,404 261,405 260,405 258,406 257,406 255,407 254,407 251,408 250,408 240,407 239,407 235,406 234,406 231,405 230,405 228,404 227,404 226,403 225,403 223,402 222,402 221,400 219,400 218,399 217,399 216,397 214,397 199,396 198,396 195,395 194,395 192,394 191,394 189,393 188,393 186,392 185,392 184,391 183,391 182,390 181,390 180,388 178,388 177,387 176,387 175,385 173,385 172,383 170,383 169,381 167,381 166,377 162,377 161,374 158,374 157,370 153,370 152,367 149,367 148,364 145,364 143,363 142,363 138,362 137,362 134,361 133,361 131,360 130,360 129,359 128,359 126,358 125,358 124,357 123,357 121,356 120,356 119,355 118,355 117,354 116,354 115,353 114,353 113,352 112,352 111,351 110,351 109,349 107,349 106,348 105,348 104,346 102,346 101,344 99,344 98,341 95,341 94,340 94,341 95,341 96,344 99,344 100,346 102,346 103,348 105,348 106,349 107,349 108,351 110,351 111,352 112,352 113,353 114,353 115,354 116,354 117,355 118,355 119,357 121,357 123,358 124,358 125,359 126,359 128,360 129,360 130,361 131,361 133,362 134,362 137,363 138,363 142,364 143,364 146,367 149,367 150,370 153,370 154,374 158,374 159,377 162,377 163,381 167,381 168,383 170,383 171,385 173,385 174,387 176,387 177,388 178,388 179,390 181,390 182,391 183,391 184,392 185,392 186,393 187,393 188,394 189,394 191,395 192,395 194,396 195,396 198,397 199,397 215,399 217,399 218,400 219,400 220,402 222,402 223,403 224,403 225,404 226,404 227,405 228,405 230,406 231,406 234,407 235,407 239,408 240,408 250,407 251,407 254,406 255,406 257,405 258,405 260,404 261,404 262,403 263,403 265,402 266,402 267,400 269,400 271,398 273,398 275,397 276,397 279,399 281,399 282,401 284,401 285,403 287,403 288,406 291,406 292,408 294,408 295,410 297,410 298,412 300,412 301,413 302,413 303,415 305,415 306,416 307,416 308,417 309,417 311,418 312,418 316,419 317,419 325,418 326,418 329,417 330,417 331,416 332,416 333,415 334,415 335,409 341,408 341,406 343,405 343,404 344,403 344,399 348,399 349,397 351,397 352,395 354,395 357,397 357,398 358,399 358,400 359,402 359,403 360,404 360,405 361,406 361,407 362,409 362,411 364,412 364,413 365,414 365,415 366,416 366,419 369,420 369,423 372,424 372,434 382,434 383,437 386,437 387,439 389,439 390,441 392,441 393,442 394,442 395,444 397,444 398,445 399,445 400,446 401,446 403,447 404,447 405,448 406,448 408,449 409,449 411,450 412,450 415,451 416,451 419,452 420,452 423,453 424,453 428,454 429,454 433,455 434,455 439,456 440,456 444,457 445,457 450,458 451,458 455,459 456,459 461,460 462,458 464,455 461,455 458,454 457,454 452,453 451,453 445,452 444,452 440,451 439,451 434,450 433,450 430,449 429,449 425,448 424,448 420,447 419,447 416,446 415,446 413,445 412,445 410,444 409,444 407,443 406,443 405,442 404,442 402,441 401,441 400,440 399,440 398,439 397,439 396,438 395,438 394,435 391,435 390,430 385,429 385,427 383,425 383,424 382,423 382,422 381,421 381,420 380,419 380,417 378,416 378,415 377,414 377,413 376,412 376,411 375,409 375,408 374,407 374,406 373,404 373,403 372,402 372,401 371,400 371,399 370,397 370,396 369,395 369,394 368,393 368,392 367,391 367,390 366,389 366,387 364,385 364,383 366,383 370,382 371,382 373,381 374,381 375,379 377,379 378,376 381,376 382,372 386,372 387,369 390,369 391,368 392,368 393,367 394,367 398,369 400,369 401,370 402,372 402,373 403,376 403,377 404,381 404,382 405,384 405,390 411,390 414,386 418,385 418,384 419,375 419,374 418,373 418,372 417,371 417,364 410,364 409,363 408,363 407,362 406,362 405,361 404,361 397,362 396,362 393,363 392,363 389,362 388,362 386,362 388,363 389,363 392,362 393,361 392,361 390,361 392,360 393,360 396,359 397,359 400,358 401,358 402,357 403,357 404,355 406,355 407,353 409,353 410,350 413,350 416,351 417,351 418,353 420,353 421,355 423,355 424,356 425,356 426,357 427,357 428,358 429,358 432,355 435,352 435,348 431,348 430,346 428,346 425,348 423,348 422,349 421,350 422,348 420,348 418,345 418,341 422,340 422,339 423,339 425,341 427,341 428,343 430,343 431,345 433,345 434,347 436,347 437,350 440,350 441,349 442,343 436,343 435,338 430,338 429,336 427,336 426,335 425,333 425,332 426,326 426,325 425,322 425,320 423,319 423,318 422,317 422,311 416,311 415,309 413,309 412,308 411,308 410,307 409,307 408,306 407,306 406,305 405,305 402,304 401,304 398,303 397,303 377,304 376,304 371,305 370,305 366,304 365,304 364,300 360,300 359,298 357,298 356,297 355,297 354,296 353,296 339,297 338,297 337,298 336,298 335,299 334,299 333,302 330,302 329,303 328,303 327,304 326,303 325,303 323,302 322,302 319,301 318,301 314,300 313,300 301,301 300,301 296,302 295,302 292,303 291,303 290,305 288,305 285,304 285,298 291,297 291,295 293,294 293,292 295,291 295,289 297,288 297,286 299,285 299,283 301,282 301,280 303,279 303,278 304,277 304,276 305,275 305,273 307,272 307,271 308,269 308,268 309,266 309,265 310,262 310,261 311,250 311,249 310,246 310,245 309,243 309,242 308,240 308,239 307,238 307,237 306,236 306,235 305,234 305,233 304,232 304,230 302,229 302,228 301,227 301,226 300,225 300,223 298,222 298,218 294,217 294,213 290,212 290,210 288,210 287,208 287,208 289,209 290,209 291,225 307,226 307,228 309,229 309,231 311,232 311,233 312,234 312,235 313,236 313,237 314,239 314,240 315,242 315,243 316,247 316,248 317,257 317,258 316,262 316,263 315,265 315,266 314,268 314,269 313,270 313,272 311,273 311,274 310,275 310,277 308,278 308,280 306,281 306,283 304,284 304,287 301,288 301,291 298,292 298,295 295,293 297,292 297,289 300,288 300,286 302,285 302,283 304,282 304,280 306,279 306,277 308,276 308,274 310,273 310,272 311,271 311,269 313,268 313,267 314,266 314,265 315,263 315,262 316,258 316,257 317,248 317,247 316,243 316,242 315,240 315,239 314,237 314,235 312,234 312,233 311,232 311,230 309,229 309,227 307,226 307,208 289,208 288,209 287,216 294,217 294,221 298,222 298,224 300,225 300,226 301,227 301,228 302,229 302,231 304,232 304,233 305,234 305,235 306,237 306,238 307,239 307,240 308,242 308,243 309,245 309,246 310,249 310,250 311,261 311,262 310,265 310,266 309,268 309,269 308,271 308,272 307,273 307,274 306,275 306,276 305,277 305,278 304,279 304,281 302,282 302,284 300,285 300,287 298,288 298,291 295,292 295,294 293,295 293,296 292,297 292,298 293,297 294,298 295,291 302,290 302,286 306,285 306,282 309,281 309,279 311,278 311,276 313,275 313,273 315,272 315,271 316,270 316,269 317,268 317,267 318,266 318,265 319,262 319,261 320,256 320,255 321,250 321,249 320,244 320,243 319,240 319,239 318,237 318,236 317,235 317,233 315,232 315,231 314,230 314,229 313,228 313,226 311,225 311,219 305,218 305,212 299,212 298,210 296,210 297,209 298,208 297,208 296,208 297,209 298,209 307,208 308,208 314,207 315,207 318,206 319,206 321,205 322,205 324,204 325,204 326,203 327,203 328,202 329,202 330,201 331,201 332,199 334,199 335,196 338,196 340,197 341,197 342,198 343,198 344,200 346,200 347,201 348,201 349,202 350,202 351,203 352,203 353,204 354,204 355,205 356,205 357,207 359,207 360,208 361,208 362,209 363,209 364,211 366,211 367,212 368,212 369,213 370,213 371,214 372,214 373,215 374,215 375,216 376,216 377,217 378,217 379,218 380,218 381,219 382,219 383,220 384,220 385,221 386,221 387,222 388,222 389,223 390,223 391,224 392,224 393,225 394,225 395,226 396,226 397,227 398,227 399,228 400,228 401,229 402,229 403,230 404,230 405,231 406,231 407,232 408,232 409,234 411,234 412,235 413,235 414,236 415,236 416,237 417,237 418,238 419,238 420,239 421,239 422,240 423,240 424,241 425,241 426,242 427,242 428,243 429,243 430,244 431,244 434,245 435,245 438,244 439,244 440,243 441,242 441,241 442,239 442,238 441,237 441,233 437,233 436,231 434,231 433,230 432,230 431,229 430,229 429,228 428,228 427,226 425,226 423,225 422,225 421,224 420,224 419,223 418,223 416,222 415,222 414,221 413,221 412,220 411,220 410,219 409,219 407,218 406,218 405,217 404,217 403,216 402,216 401,215 400,215 398,214 397,214 396,213 395,213 394,212 393,212 392,211 391,211 390,210 389,210 387,209 386,209 385,208 384,208 383,207 382,207 380,206 379,206 378,205 377,205 376,204 375,204 374,203 373,203 372,202 371,202 369,201 368,201 367,200 366,200 364,199 363,199 361,198 360,198 359,197 358,197 356,196 355,196 354,195 353,195 351,194 350,192 350,192 351,193 352,193 365,192 366,192 368,190 370,190 371,188 373,188 385,187 386,187 389,186 390,186 392,184 394,184 395,182 397,182 398,179 401,178 401,176 403,175 403,174 404,173 404,171 406,171 407,169 409,169 410,164 415,163 415,161 417,160 417,159 418,151 418,150 417,149 417,144 412,144 411,142 409,142 407,141 406,141 403,140 402,140 390,141 389,141 386,142 385,142 382,143 381,143 377,141 377,140 378,138 378,137 379,135 379,134 380,132 380,131 381,129 381,128 382,127 382,126 383,124 383,123 384,122 384,121 385,119 385,118 386,117 386,116 387,115 387,113 389,112 389,101 400,101 401,99 403,99 404,97 406,97 407,96 408,96 409,95 410,95 411,94 412,94 414,93 415,93 416,92 417,92 419,91 420,91 422,90 423,90 425,89 426,89 429,88 430,88 432,87 433,87 436,86 437,86 441,85 442,85 446,84 447,84 452,83 453,83 458,82 459,82 463,81 464,81 466,78 469,76 469,75 468,74 468,73 467,73 466,72 465,72 449,73 448,73 441,74 440,74 435,75 434,75 431,76 430,76 427,77 426,77 424,78 423,78 421,79 420,79 417,80 416,80 415,81 414,81 412,82 411,82 409,83 408,83 407,84 406,84 405,85 404,85 403,86 402,86 401,87 400,87 399,88 398,88 397,89 396,89 395,90 394,90 393,92 391,92 390,93 389,93 388,96 385,96 384,107 373,108 373,111 370,112 370,114 368,115 368,116 367,117 367,118 366,119 366,121 364,122 364,123 363,124 363,125 362,126 362,126 360,125 360,122 357,121 357,119 355,118 355,106 343,106 342,103 339,103 338,101 336,101 335,100 334,100 333,99 332,99 331,97 329,97 327,96 326,96 325,95 324,95 321,94 320,94 317,93 316,93 299,94 298,94 295,95 294,95 292,96 291,96 289,98 287,98 286,99 285,99 284,100 283,100 282,102 280,102 279,105 276,105 272,103 270,103 268,102 267,102 265,101 264,101 253,102 252,102 249,103 248,103 246,105 244,105 243,106 242,106 241,107 240,107 239,108 238,108 237,110 235,110 234,113 231,113 230,117 226,117 225,124 218,124 217,129 212,129 211,132 208,132 207,134 205,134 204,135 203,135 202,136 201,136 200,137 199,137 197,138 196,138 194,139 193,139 190,140 189,140 180,141 179,141 158,142 157,142 153,143 152,143 149,144 148,144 146,145 145,145 143,146 142,146 140,147 139,147 138,148 137,148 136,149 135,149 134,150 133,150 132,151 131,151 130,152 129,152 128,153 127,153 126,155 124,155 123,156 122,156 121,158 119,158 118,159 117,159 116,161 114,161 113,162 112,162 111,163 110,163 109,165 107,165 106,167 104,167 103,169 101,169 100,171 98,171 97,174 94,174 93,176 91,176 90,180 86,180 85,186 79,186 78,195 69,196 69,201 64,202 64,205 61,206 61,208 59,209 59,210 58,211 58,213 56,215 56,216 55,218 55,219 54,234 54,235 55,237 55,238 56,239 56,241 58,242 58,246 62,252 62,253 61,255 61,256 60,257 60,258 59,259 59,261 57,262 57,263 56,265 56,266 55,268 55,269 54,273 54,274 53,286 53,287 54,291 54,292 55,294 55,295 56,297 56,298 57,299 57,300 58,301 58,302 59,303 59,304 60,305 60,306 61,307 61,309 63,310 63,312 65,313 65,321 73,321 74,322 75,323 75,324 76,326 76,327 77,329 77,330 78,331 78,332 79,333 79,334 80,335 80,338 83,339 83,343 87,343 88,344 89,344 91,343 92,342 92,344 92,344 88,343 87,343 86,340 83,339 83,336 80,335 80,334 79,333 79,332 78,330 78,329 77,327 77,326 76,325 76,324 75,323 75,321 73,321 72,314 65,313 65,311 63,310 63,308 61,307 61,306 60,305 60,304 59,303 59,302 58,300 58,299 57,298 57,297 56,295 56,294 55,292 55,291 54,287 54,286 53,Z" fill="none" stroke="black" stroke-width="1"/></svg>