<?xml version="1.0" standalone="no"?>
<!DOCTYPE svg PUBLIC "-//W3C//DTD SVG 20010904//EN"
 "http://www.w3.org/TR/2001/REC-SVG-20010904/DTD/svg10.dtd">
<svg version="1.0" xmlns="http://www.w3.org/2000/svg"
 width="200.000000pt" height="200.000000pt" viewBox="0 0 288.000000 288.000000"
 preserveAspectRatio="xMidYMid meet">
<metadata>
Created by potrace 1.16, written by Peter Selinger 2001-2019
</metadata>
<g transform="translate(0.000000,288.000000) scale(0.056250,-0.056250)"
fill="#000000" stroke="none">
<path d="M2554 4716 c-22 -9 -62 -13 -128 -12 -53 1 -96 -1 -96 -5 0 -3 -6 -6
-12 -7 -44 -3 -158 -42 -158 -55 0 -4 -4 -6 -9 -2 -5 3 -13 0 -16 -6 -4 -5
-14 -8 -22 -5 -8 3 -11 2 -8 -4 6 -9 -34 -36 -47 -32 -5 1 -8 -2 -8 -8 0 -5
-14 -17 -32 -26 -53 -27 -160 -144 -232 -254 -38 -57 -74 -109 -80 -116 -74
-76 -157 -196 -171 -244 0 -3 -9 -30 -18 -61 -25 -83 -30 -124 -31 -229 0 -92
9 -215 19 -242 2 -7 6 -26 9 -43 2 -16 14 -68 25 -115 26 -105 26 -100 -2
-100 -26 0 -60 -26 -66 -50 -2 -8 -6 -26 -10 -40 -11 -39 -5 -161 13 -255 10
-53 17 -105 21 -160 15 -198 29 -263 55 -266 6 -1 14 -2 19 -3 15 -2 18 -9 25
-51 3 -22 8 -50 11 -63 3 -12 7 -30 9 -40 20 -84 100 -224 178 -310 33 -36 38
-48 36 -83 -3 -55 -26 -69 -129 -74 -111 -7 -116 -8 -206 -48 -69 -31 -130
-52 -186 -63 -18 -3 -31 -12 -110 -78 -60 -51 -76 -55 -172 -41 -33 5 -62 8
-65 8 -3 -1 -19 -3 -36 -6 -36 -6 -59 -17 -129 -63 -61 -41 -85 -45 -150 -27
-111 31 -207 16 -365 -55 -36 -16 -69 -30 -75 -32 -16 -4 -67 -42 -101 -75
-53 -50 -104 -134 -104 -169 0 -30 1 -30 29 20 67 122 107 162 221 217 133 64
213 86 296 83 99 -4 129 -23 38 -24 -101 -1 -204 -26 -286 -69 -112 -59 -240
-188 -207 -209 6 -4 25 8 41 25 72 77 135 58 206 -62 30 -52 78 -166 87 -208
7 -34 6 -33 -68 38 -67 65 -97 86 -97 67 0 -4 30 -37 67 -73 118 -115 228
-295 281 -458 18 -54 41 -154 57 -248 12 -71 45 -188 56 -199 20 -21 19 6 -1
75 -12 40 -24 85 -26 99 -3 14 -7 36 -9 50 -13 62 -16 77 -21 105 -26 147
-103 326 -185 429 -30 38 -37 52 -28 62 8 10 8 26 0 61 -12 48 -99 234 -123
263 -26 32 -84 68 -113 72 -30 3 -30 3 28 46 112 84 200 110 383 114 81 2 118
-1 137 -11 15 -8 30 -11 34 -7 7 7 -9 21 -31 29 -17 6 3 24 76 68 63 38 78 43
127 42 31 0 75 -4 97 -8 58 -10 101 7 172 69 49 42 74 55 119 65 32 7 95 31
141 52 74 35 173 59 172 41 -1 -11 -65 -48 -96 -56 -88 -21 -117 -59 -121
-162 -4 -132 86 -310 235 -464 213 -217 502 -387 732 -428 217 -39 516 37 708
179 34 26 52 35 52 25 0 -15 -128 -396 -164 -486 -24 -60 -26 -80 -11 -81 11
-1 113 280 182 502 41 135 52 159 75 172 47 27 136 184 154 270 2 10 5 26 8
35 15 49 26 171 30 314 1 53 7 93 14 100 18 18 14 30 -8 23 -13 -4 -20 -2 -20
7 0 22 -43 64 -95 92 l-50 27 56 -4 c49 -3 65 -10 120 -51 l63 -48 101 7 c116
7 153 -2 241 -62 101 -70 112 -74 153 -57 59 25 69 24 115 -11 62 -47 83 -57
140 -64 l51 -7 -37 -16 c-95 -42 -230 -146 -259 -200 -18 -34 15 -19 59 27 46
48 130 108 202 145 25 13 70 40 100 60 100 67 139 66 220 -10 30 -28 102 -78
160 -112 134 -78 219 -163 274 -271 22 -43 44 -81 49 -84 24 -14 16 15 -24 94
-61 119 -142 199 -284 283 -60 35 -124 78 -142 96 -93 93 -155 102 -255 36
-32 -21 -46 -24 -91 -19 -60 5 -82 15 -146 64 -49 37 -83 41 -135 16 -35 -16
-36 -16 -78 13 -24 16 -45 32 -48 35 -3 4 -34 22 -68 40 -68 35 -151 46 -224
30 -42 -10 -95 6 -128 37 -33 31 -78 49 -133 55 -26 2 -50 6 -52 9 -3 2 19 31
48 63 108 120 166 249 211 466 3 15 14 29 25 32 15 3 20 18 26 73 4 38 8 76
10 84 1 8 6 47 9 85 10 105 15 141 37 247 34 169 20 268 -37 268 -23 0 -25 3
-21 33 3 17 17 77 32 132 38 148 44 206 47 467 1 132 -2 181 -12 192 -7 9 -10
16 -6 16 13 0 -28 65 -61 97 -32 32 -33 35 -23 74 51 190 -55 351 -221 337
-30 -3 -55 0 -62 7 -48 46 -169 109 -277 143 -141 44 -215 65 -222 64 -5 -1
-8 2 -8 6 0 9 0 9 -120 17 -63 4 -93 2 -116 -9z m213 -27 c29 -6 55 -14 58
-19 6 -10 -43 -25 -70 -21 -65 9 -310 6 -370 -5 -170 -31 -200 -41 -289 -103
-95 -65 -226 -191 -226 -216 0 -14 7 -11 35 16 19 19 38 34 43 34 4 0 37 19
73 42 119 78 223 98 365 72 72 -14 74 -14 99 -23 11 -5 34 -13 50 -19 17 -6
61 -29 98 -51 120 -71 162 -117 123 -132 -16 -6 -33 2 -196 91 -133 74 -208
98 -302 98 -58 0 -77 -5 -146 -40 -44 -22 -104 -59 -133 -82 -252 -192 -332
-265 -384 -351 -19 -32 -35 -62 -35 -68 0 -6 -5 -14 -11 -17 -13 -8 14 57 46
110 13 22 54 76 91 120 37 44 98 127 136 185 39 58 89 123 112 144 52 50 195
156 213 157 22 2 27 4 58 21 51 27 149 48 226 48 41 0 97 6 124 14 54 14 130
12 212 -5z m28 -79 c144 -48 281 -155 332 -258 22 -46 25 -61 19 -115 -6 -58
-5 -60 11 -44 45 45 -5 195 -94 283 -45 45 -200 134 -232 134 -7 0 -10 4 -6 9
6 11 37 7 115 -15 167 -48 280 -173 296 -330 11 -107 -44 -181 -123 -164 -48
11 -58 23 -42 51 39 75 15 143 -89 247 -118 116 -291 190 -437 184 -22 -1 -76
-2 -120 -2 -71 0 -107 -4 -204 -24 -38 -8 -39 -19 -1 -12 19 3 76 9 125 12 83
5 97 3 176 -25 146 -52 313 -155 409 -253 27 -28 50 -44 50 -36 0 8 -24 38
-52 67 -82 82 -239 180 -363 228 l-60 24 85 -5 c217 -10 470 -192 470 -337 0
-69 -13 -76 -107 -51 -94 25 -193 37 -193 24 0 -6 21 -13 46 -17 25 -3 56 -8
67 -11 12 -2 35 -7 51 -9 16 -3 40 -12 54 -19 l26 -13 -24 -8 c-57 -18 -138
-3 -290 54 l-55 20 55 1 c85 1 124 43 94 101 -29 58 -224 173 -329 195 -11 2
-31 6 -45 10 -14 3 -66 8 -116 11 -114 7 -194 -17 -284 -83 -33 -24 -60 -42
-60 -40 0 9 139 114 180 136 25 14 52 30 60 36 16 12 125 49 175 59 17 4 73 9
125 11 52 3 99 7 104 8 22 5 145 -15 201 -34z m341 -41 c34 -15 81 -43 106
-62 68 -52 76 -55 120 -45 56 12 136 -25 172 -79 38 -57 54 -178 27 -206 -15
-15 -45 47 -47 97 -3 49 -29 98 -81 150 -40 41 -50 26 -50 -78 -1 -122 -22
-173 -90 -215 -50 -32 -96 -44 -55 -15 14 9 21 22 18 31 -3 8 -2 12 3 9 11 -7
41 61 45 105 2 20 -6 64 -17 99 -38 114 -145 204 -308 256 -30 9 -58 21 -63
25 -16 14 156 -42 220 -72z m70 -115 c61 -75 89 -177 65 -239 -5 -13 -10 1
-14 46 -7 80 -53 181 -105 235 -30 29 -32 33 -10 20 15 -10 43 -38 64 -62z
m-816 -40 c30 -8 80 -30 110 -48 30 -19 93 -53 140 -77 103 -52 98 -48 80 -60
-22 -15 -102 -4 -150 21 -24 12 -75 42 -114 66 -39 25 -89 49 -111 55 -53 15
-164 19 -211 9 -54 -12 -53 -6 3 20 86 41 145 44 253 14z m1056 -40 c36 -45
53 -84 46 -104 -7 -19 -53 -87 -80 -118 -19 -22 -118 -59 -129 -48 -3 3 6 8
20 11 64 16 107 114 101 226 -3 38 -1 69 4 69 5 0 22 -16 38 -36z m-1174 -8
c25 -4 65 -13 87 -21 53 -18 236 -140 197 -131 -15 4 -41 10 -57 13 -16 3 -29
10 -29 16 0 6 -3 8 -6 4 -3 -3 -36 5 -73 19 -36 14 -73 27 -81 29 -8 2 -15 4
-15 5 0 8 -70 14 -160 15 -92 0 -117 -3 -152 -21 -23 -12 -40 -17 -36 -11 6
11 125 66 157 73 41 10 111 20 116 18 3 -1 26 -5 52 -8z m-22 -82 c0 -3 -23
-4 -50 -3 -28 1 -46 5 -41 8 11 7 91 2 91 -5z m-130 2 c0 -2 -18 -6 -40 -8
-22 -2 -40 0 -40 4 0 5 18 8 40 8 22 0 40 -2 40 -4z m-138 -31 c-30 -14 -57
-25 -60 -25 -13 1 83 49 98 49 8 1 -9 -10 -38 -24z m335 -17 c107 -27 227 -87
210 -104 -3 -3 -19 3 -35 15 -16 11 -32 18 -36 14 -3 -3 -6 -2 -6 4 0 6 -17
14 -37 18 -21 5 -45 10 -53 12 -43 9 -150 2 -190 -13 -25 -9 -74 -20 -110 -24
-36 -4 -75 -10 -87 -13 -27 -7 -151 -74 -175 -95 -27 -23 -21 0 10 44 57 78
135 130 232 154 58 14 198 8 277 -12z m1204 -58 c7 -22 10 -42 7 -45 -2 -3
-31 -7 -64 -11 l-59 -5 26 24 c15 13 34 36 44 50 24 36 32 34 46 -13z m-791
-39 c138 -47 178 -54 251 -40 45 9 62 8 93 -5 21 -9 66 -16 99 -16 110 0 176
-54 237 -194 21 -46 50 -171 50 -213 0 -25 -1 -25 -25 -9 -30 20 -35 20 -35 2
0 -8 7 -16 15 -20 20 -7 32 -39 40 -107 4 -30 9 -57 11 -61 3 -4 7 -101 10
-215 5 -239 11 -377 19 -413 18 -89 25 -132 32 -185 10 -73 10 -252 1 -320 -9
-70 -51 -195 -100 -292 -39 -78 -145 -220 -156 -209 -6 7 16 62 45 108 26 43
29 58 10 58 -8 0 -35 -45 -62 -101 -43 -91 -55 -106 -114 -153 -36 -29 -82
-63 -101 -76 -19 -14 -41 -31 -48 -40 -11 -13 -12 -13 -6 0 7 13 6 13 -12 0
-10 -8 -22 -19 -25 -23 -3 -5 -9 -9 -12 -8 -4 0 -37 -14 -74 -31 -37 -16 -78
-32 -92 -35 -13 -2 -28 -6 -33 -9 -38 -24 -244 -36 -333 -19 -154 28 -317 123
-455 264 -52 54 -100 100 -107 102 -21 7 -133 162 -168 234 -60 120 -79 217
-80 395 0 135 5 201 21 283 2 10 6 45 10 76 3 31 12 77 19 103 6 25 12 90 13
143 1 88 7 164 18 219 2 12 7 62 10 111 5 77 3 95 -14 127 -22 43 -22 43 53
81 64 32 91 62 113 123 21 61 73 150 107 186 21 23 131 68 166 68 5 0 38 14
75 31 79 36 88 37 223 43 88 4 107 7 124 25 21 20 21 21 1 42 l-19 22 45 -7
c25 -3 97 -24 160 -45z m-307 14 c20 -10 37 -21 37 -25 0 -3 -41 -7 -92 -9
-94 -3 -121 -9 -220 -55 -32 -14 -58 -24 -58 -21 0 2 -25 -5 -55 -15 -30 -10
-55 -15 -55 -11 0 5 22 29 48 54 86 80 159 107 277 103 52 -2 93 -9 118 -21z
m-396 -56 c-26 -22 -76 -84 -111 -138 -58 -87 -86 -117 -208 -220 -16 -12 -35
-21 -43 -18 -12 5 -9 20 14 90 34 98 44 119 83 170 48 60 210 149 282 155 29
3 29 2 -17 -39z m-298 -31 c-11 -24 -30 -63 -42 -88 -20 -40 -123 -138 -134
-127 -2 3 18 42 45 88 45 76 124 169 144 169 4 0 -1 -19 -13 -42z m1787 31 c6
-10 -23 -23 -107 -46 -55 -15 -60 -15 -86 2 l-28 18 60 17 c66 18 152 23 161
9z m77 -40 c24 -27 56 -90 63 -120 7 -33 7 -109 0 -116 -3 -4 -6 2 -6 13 0 31
-72 117 -120 144 -35 19 -59 24 -107 23 -65 0 -84 12 -35 23 15 3 61 16 102
29 41 12 77 23 80 24 3 1 14 -8 23 -20z m-1840 -26 c-4 -10 -20 -40 -36 -68
-16 -27 -38 -77 -47 -110 -10 -33 -23 -73 -30 -90 l-11 -30 -35 37 c-19 21
-34 42 -34 47 0 5 15 20 33 32 60 42 99 84 128 142 28 54 46 77 32 40z m1786
-87 c54 -40 94 -103 89 -139 -3 -18 -9 -13 -41 31 -38 53 -116 112 -148 112
-9 0 -27 9 -40 21 l-24 20 56 -4 c46 -3 66 -10 108 -41z m-57 -38 c39 -22 122
-121 139 -165 9 -25 24 -30 32 -10 7 15 -1 -234 -8 -283 -5 -33 -29 -136 -40
-170 -3 -8 -12 -45 -21 -82 -9 -38 -20 -66 -24 -63 -4 3 -6 38 -4 77 3 40 6
98 7 128 6 102 -26 214 -74 259 -18 17 -21 25 -13 39 21 34 -4 166 -48 255
-17 33 -17 37 -2 37 9 0 34 -10 56 -22z m-1655 -125 c-6 -21 -20 -49 -31 -62
-26 -29 -133 -84 -141 -72 -7 12 157 170 177 171 3 0 1 -17 -5 -37z m-206
-129 c-1 -34 2 -54 9 -54 6 0 8 -4 5 -10 -6 -10 -11 -32 -21 -86 -11 -65 -14
-113 -15 -237 0 -71 -2 -127 -4 -125 -4 4 -61 221 -70 268 -9 48 -17 363 -9
383 5 13 16 6 57 -35 49 -49 50 -52 48 -104z m1885 -119 c27 -64 36 -132 35
-255 -1 -135 -5 -165 -25 -213 -11 -29 -13 -16 -15 118 -2 197 -14 365 -29
389 -3 5 1 6 7 1 7 -4 19 -22 27 -40z m-1830 -85 c-3 -47 -8 -98 -11 -115 -9
-52 -14 -126 -15 -225 l-1 -95 -19 45 c-15 38 -18 64 -14 160 4 96 14 230 19
250 1 3 5 24 9 48 7 37 10 41 23 30 13 -10 14 -28 9 -98z m-87 -357 c35 -47
49 -108 35 -161 -6 -20 -10 -16 -31 30 l-25 53 -15 -34 c-20 -47 -27 -91 -15
-91 5 0 16 15 23 33 l14 32 5 -30 c4 -19 -4 -59 -21 -110 -33 -96 -33 -168 0
-213 17 -25 21 -44 21 -112 0 -71 -2 -81 -17 -78 -21 4 -30 42 -38 168 -4 52
-8 101 -10 110 -2 8 -6 44 -10 80 -4 35 -10 73 -15 85 -4 11 -8 58 -9 105 -2
85 9 138 32 152 18 11 60 1 76 -19z m2057 6 c20 -16 18 -112 -5 -217 -11 -48
-22 -114 -26 -147 -7 -70 -15 -139 -20 -175 -2 -14 -6 -53 -10 -87 -4 -35 -10
-61 -15 -58 -13 8 -10 207 4 260 16 61 14 93 -9 165 -15 50 -16 58 -2 90 l15
35 7 -42 c7 -42 35 -69 35 -35 0 27 -30 122 -38 122 -4 0 -21 -21 -37 -47
l-30 -48 -3 43 c-4 47 29 124 61 147 21 15 51 12 73 -6z m-2037 -274 c-5 -33
-12 -76 -14 -95 -14 -92 -17 -104 -28 -85 -19 35 0 164 35 228 15 29 17 17 7
-48z m1941 -5 c12 -44 13 -151 1 -130 -5 8 -12 36 -15 62 -4 26 -10 69 -15 95
-8 43 -8 46 5 28 8 -10 19 -35 24 -55z m-1678 -1019 c2 -5 34 -42 72 -82 125
-130 248 -210 413 -265 150 -50 340 -33 567 53 100 38 212 117 271 191 27 35
51 58 53 53 6 -18 -58 -127 -108 -183 -64 -72 -110 -102 -227 -150 -201 -82
-263 -100 -364 -105 -113 -6 -176 8 -287 68 -100 53 -179 115 -297 235 -55 56
-110 104 -123 108 -13 4 -21 11 -19 14 2 4 10 22 17 40 14 32 25 40 32 23z
m259 -196 c78 -46 183 -91 255 -110 54 -15 180 -21 229 -11 11 2 42 7 69 11
145 21 337 119 489 249 31 27 60 46 64 42 6 -6 -34 -53 -112 -129 -145 -144
-524 -245 -722 -193 -76 20 -191 72 -270 122 -62 40 -172 140 -206 189 -12 17
16 -7 62 -53 45 -45 109 -98 142 -117z m1211 132 c77 -35 83 -50 83 -231 -1
-83 -4 -167 -8 -186 -14 -72 -17 -84 -33 -139 -19 -68 -75 -176 -109 -214 -14
-15 -27 -27 -29 -27 -2 0 7 35 19 78 12 42 26 95 29 116 7 36 6 38 -8 27 -9
-8 -16 -22 -16 -32 0 -11 -16 -70 -36 -131 -41 -127 -58 -148 -180 -224 -199
-124 -460 -174 -664 -129 -212 48 -465 199 -666 400 -96 95 -130 138 -177 225
-78 143 -91 281 -32 344 28 30 75 36 76 9 7 -145 31 -247 80 -346 88 -175 222
-304 419 -403 271 -136 481 -149 707 -44 260 121 395 310 456 641 8 41 15 113
16 160 2 79 9 129 17 129 2 0 27 -11 56 -23z m-1508 -31 c12 -7 76 -67 141
-133 194 -193 357 -283 520 -288 44 -1 107 4 140 10 78 16 236 75 355 132 109
52 186 123 233 213 l29 55 -6 -85 c-3 -47 -8 -96 -11 -110 -3 -14 -8 -38 -11
-55 -9 -45 -9 -45 -28 -110 -21 -72 -90 -215 -117 -244 -11 -12 -17 -21 -13
-21 4 0 -23 -29 -61 -65 -37 -36 -72 -65 -77 -65 -5 0 -6 -6 -2 -12 4 -7 4
-10 -1 -6 -4 4 -20 -1 -34 -11 -38 -27 -139 -76 -193 -94 -83 -29 -178 -37
-268 -25 -99 13 -124 19 -215 56 -271 108 -431 247 -533 462 -33 71 -62 196
-62 272 0 61 3 72 26 93 24 22 60 38 109 48 28 5 54 0 79 -17z"/>
<path d="M2077 3474 c-1 -2 -24 -4 -50 -5 -26 -2 -47 -7 -47 -13 0 -5 -3 -7
-6 -3 -21 21 -197 -121 -217 -175 -12 -34 11 -26 60 21 101 97 247 123 403 73
91 -30 94 -30 128 -18 48 16 20 61 -58 90 -38 14 -205 37 -213 30z m208 -58
c32 -14 54 -30 50 -36 -9 -15 -34 -12 -95 12 -41 16 -81 22 -160 24 -93 3
-110 1 -152 -20 -52 -25 -56 -16 -5 11 91 48 268 52 362 9z"/>
<path d="M2877 3452 c-59 -19 -99 -55 -95 -85 4 -32 48 -33 136 -3 139 48 294
22 380 -62 35 -34 63 -44 69 -25 6 16 -103 120 -152 146 -91 46 -244 60 -338
29z m267 -27 c73 -23 81 -36 13 -20 -77 18 -170 10 -254 -21 -77 -28 -116 -27
-92 2 18 22 68 46 109 54 59 11 165 3 224 -15z"/>
<path d="M1982 3243 c-44 -15 -132 -94 -132 -118 0 -14 -22 -25 -50 -25 -17 0
-30 -18 -30 -41 0 -6 17 -7 40 -4 45 7 49 1 19 -31 l-22 -23 26 -53 c46 -94
105 -132 209 -137 82 -3 142 26 222 108 67 71 85 106 68 138 -8 15 -19 18 -46
15 -30 -4 -37 -1 -45 20 -19 50 -204 73 -279 34 -18 -9 -35 -17 -39 -17 -5 -1
-18 -5 -30 -10 -67 -25 7 75 81 111 87 42 170 28 247 -40 44 -39 59 -47 59
-32 0 22 -110 110 -123 100 -2 -2 -10 2 -18 8 -20 16 -106 14 -157 -3z m92
-203 c19 0 41 7 49 15 8 8 17 11 21 8 3 -4 6 2 6 12 0 15 3 16 12 7 15 -15
-11 -37 -65 -54 -62 -19 -120 14 -103 58 6 16 9 14 26 -14 16 -26 26 -32 54
-32z m16 54 c0 -8 -19 -13 -24 -6 -3 5 1 9 9 9 8 0 15 -2 15 -3z m145 -47 c11
-3 32 -8 48 -11 15 -4 27 -12 27 -20 0 -21 -114 -133 -161 -158 -91 -47 -222
-19 -273 60 -36 54 -41 84 -17 99 37 23 79 24 118 3 61 -33 155 -21 192 24 8
9 21 14 30 12 9 -2 25 -7 36 -9z"/>
<path d="M2974 3236 c-53 -25 -104 -70 -104 -92 0 -22 16 -16 34 11 43 66 156
95 238 61 47 -20 108 -73 108 -94 0 -12 3 -13 11 -5 9 9 7 19 -6 40 -56 86
-187 123 -281 79z"/>
<path d="M2944 3126 c-27 -13 -55 -30 -63 -39 -7 -10 -26 -17 -42 -17 -16 0
-29 -6 -30 -12 -7 -79 59 -168 159 -215 137 -64 298 -8 332 116 13 48 5 71
-25 71 -13 0 -27 5 -30 10 -4 6 15 10 50 10 40 0 57 4 61 15 10 24 -14 44 -44
39 -49 -10 -97 -3 -136 18 -28 16 -40 18 -117 23 -53 3 -75 0 -115 -19z m160
-17 c-2 -4 0 -10 6 -14 5 -3 15 -15 20 -26 10 -17 7 -21 -22 -34 -19 -7 -50
-13 -69 -12 -38 3 -99 40 -85 54 4 4 15 -2 23 -14 17 -25 52 -30 72 -10 10 10
11 8 5 -7 -6 -16 -5 -17 15 -7 28 15 37 39 24 61 -9 13 -8 17 3 17 7 0 11 -4
8 -8z m-44 -30 c0 -6 -4 -7 -10 -4 -5 3 -10 11 -10 16 0 6 5 7 10 4 6 -3 10
-11 10 -16z m-110 -38 c0 -4 14 -15 31 -25 40 -24 129 -17 170 13 34 25 36 25
55 6 13 -13 42 -20 67 -16 21 3 -4 -94 -31 -120 -60 -55 -157 -72 -244 -43
-60 20 -154 105 -160 145 -3 21 3 26 42 40 43 14 70 15 70 0z"/>
<path d="M2314 2685 c-47 -44 -63 -131 -33 -187 6 -11 29 -28 52 -38 35 -16
42 -16 51 -4 10 12 46 19 87 15 9 0 28 -12 42 -25 35 -32 86 -30 132 7 36 29
93 34 102 11 6 -16 51 -8 83 15 42 30 51 69 31 128 -9 28 -24 57 -32 65 -17
18 -54 38 -68 38 -18 0 -1 -27 25 -38 55 -26 85 -130 46 -165 -24 -22 -27 -22
-59 11 -50 50 -72 62 -99 50 -13 -6 -24 -15 -24 -20 0 -5 -4 -6 -10 -3 -5 3
-10 2 -10 -2 0 -21 -82 -14 -124 11 l-43 25 -67 -46 c-64 -44 -67 -45 -86 -28
-14 13 -20 31 -20 59 0 53 18 86 57 111 18 11 32 23 33 28 0 16 -41 5 -66 -18z
m404 -147 c19 -19 14 -28 -18 -28 -20 0 -41 -10 -62 -30 -39 -38 -69 -38 -127
-1 -25 16 -56 32 -69 36 -12 3 -20 11 -17 16 9 14 47 11 80 -7 42 -22 103 -21
150 4 48 25 48 25 63 10z"/>
<path d="M2425 2220 c2 -3 -16 -12 -41 -19 -24 -7 -44 -17 -44 -21 0 -5 15 -4
33 1 47 15 130 19 144 7 13 -10 98 -6 109 5 11 10 64 8 104 -4 19 -5 43 -12
54 -14 10 -3 20 -6 22 -8 2 -1 -103 -3 -234 -2 -146 0 -240 4 -244 10 -5 6 -8
6 -8 -2 0 -8 -18 -11 -57 -9 -63 3 -93 -12 -93 -46 0 -22 3 -22 38 -4 29 15
127 14 257 -1 79 -9 137 -9 210 -1 163 20 252 21 286 4 35 -18 42 -16 34 6
-11 29 -58 46 -114 41 -36 -2 -59 1 -70 10 -54 46 -140 60 -218 36 -35 -11
-46 -11 -67 1 -25 13 -108 21 -101 10z"/>
<path d="M2350 2031 c0 -6 31 -25 69 -43 39 -18 70 -36 70 -40 1 -4 -8 -9 -18
-13 -11 -3 -22 -13 -25 -22 -5 -13 -1 -14 31 -7 21 5 75 9 119 9 65 0 86 -4
102 -18 14 -13 22 -15 27 -7 13 21 -29 51 -74 55 -51 3 -61 10 -20 13 32 3
159 56 159 67 0 10 -61 -2 -104 -20 -22 -9 -72 -18 -112 -19 -62 -2 -85 2
-144 26 -80 32 -80 32 -80 19z"/>
<path d="M4516 989 c-88 -69 -222 -430 -252 -679 -7 -59 -7 -232 0 -265 3 -11
5 -26 5 -32 1 -7 8 -13 16 -13 12 0 14 6 8 28 -16 56 -9 281 12 382 3 14 7 36
10 50 18 94 74 247 139 381 46 95 77 135 106 139 40 6 43 2 36 -55 -8 -67 -45
-164 -136 -349 -126 -259 -146 -325 -149 -475 -2 -95 -1 -101 18 -101 18 0 19
3 11 25 -5 13 -8 61 -6 107 4 108 31 187 151 437 132 276 165 383 129 422 -22
25 -65 24 -98 -2z"/>
<path d="M0 846 c0 -7 17 -26 38 -42 98 -75 196 -193 279 -334 56 -96 120
-240 129 -291 6 -34 6 -34 -29 16 -51 73 -119 134 -231 210 -69 46 -102 63
-109 56 -11 -11 17 -51 36 -51 20 0 173 -109 220 -156 26 -27 64 -73 84 -102
38 -55 47 -61 56 -38 19 48 -50 228 -148 392 -83 136 -184 257 -277 328 -40
30 -48 32 -48 12z"/>
<path d="M3807 702 c13 -101 7 -309 -12 -448 -12 -84 -14 -103 -21 -164 -3
-36 -7 -67 -8 -70 0 -3 4 -6 9 -8 11 -3 18 38 41 225 3 27 8 59 10 73 7 37 13
359 7 402 -3 20 -11 39 -19 42 -12 4 -13 -5 -7 -52z"/>
<path d="M5045 705 c-22 -7 -53 -19 -70 -26 -16 -7 -33 -12 -37 -11 -5 1 -8
-3 -8 -9 0 -5 -4 -7 -10 -4 -5 3 -10 1 -10 -5 0 -6 -4 -8 -10 -5 -5 3 -10 1
-10 -6 0 -7 -3 -10 -6 -6 -13 13 -170 -100 -257 -186 -30 -29 -37 -41 -28 -50
9 -9 22 0 54 32 99 104 261 205 400 250 37 13 67 27 67 32 0 12 -26 10 -75 -6z"/>
<path d="M3736 579 c-3 -13 -8 -87 -11 -164 -3 -77 -8 -153 -9 -170 -5 -42
-18 -196 -20 -219 0 -11 5 -21 12 -23 8 -3 12 8 13 34 0 21 2 45 3 53 9 46 26
273 30 390 1 36 6 71 10 79 5 8 2 19 -7 29 -14 14 -16 13 -21 -9z"/>
<path d="M5055 562 c-197 -109 -400 -291 -505 -453 -63 -98 -68 -109 -47 -109
6 1 35 37 62 81 54 88 173 216 275 300 74 60 230 165 260 174 19 6 29 35 13
35 -5 0 -30 -13 -58 -28z"/>
<path d="M97 263 c-14 -14 -5 -23 56 -58 65 -39 162 -118 210 -172 32 -37 65
-46 48 -14 -35 64 -293 265 -314 244z"/>
</g>
</svg>
